<svg width="45" height="44" viewBox="0 0 45 44" fill="none" xmlns="http://www.w3.org/2000/svg">
<path d="M22.4633 40.7677C33.1566 40.7677 41.8253 32.3131 41.8253 21.8839C41.8253 11.4546 33.1566 3 22.4633 3C11.77 3 3.10129 11.4546 3.10129 21.8839C3.10129 32.3131 11.77 40.7677 22.4633 40.7677Z" stroke="#0044AA" stroke-width="5.01916"/>
<path d="M16.0789 24.8938C20.119 24.8938 23.3942 21.6994 23.3942 17.759C23.3942 13.8186 20.119 10.6243 16.0789 10.6243C12.0387 10.6243 8.7635 13.8186 8.7635 17.759C8.7635 21.6994 12.0387 24.8938 16.0789 24.8938Z" stroke="#0044AA" stroke-width="2.97974"/>
<path d="M31.1074 33.9367L24.7003 29.3031L21.1078 23.0458L21.989 21.7467L22.6729 20.5298L30.0042 21.2216L36.9764 25.6113L34.1992 29.9275L31.1074 33.9367Z" fill="#0044AA"/>
</svg>
