<?xml version="1.0" encoding="UTF-8" standalone="no"?>
<!-- Created with Inkscape (http://www.inkscape.org/) -->

<svg
   width="90mm"
   height="90mm"
   viewBox="0 0 90 90"
   version="1.1"
   id="svg1"
   inkscape:version="1.3 (0e150ed6c4, 2023-07-21)"
   sodipodi:docname="logo vaovao.svg"
   xml:space="preserve"
   inkscape:export-filename="logo vaovao.png"
   inkscape:export-xdpi="1411.1112"
   inkscape:export-ydpi="1411.1112"
   xmlns:inkscape="http://www.inkscape.org/namespaces/inkscape"
   xmlns:sodipodi="http://sodipodi.sourceforge.net/DTD/sodipodi-0.dtd"
   xmlns="http://www.w3.org/2000/svg"
   xmlns:svg="http://www.w3.org/2000/svg"><sodipodi:namedview
     id="namedview1"
     pagecolor="#ffffff"
     bordercolor="#000000"
     borderopacity="0.25"
     inkscape:showpageshadow="2"
     inkscape:pageopacity="0.0"
     inkscape:pagecheckerboard="0"
     inkscape:deskcolor="#d1d1d1"
     inkscape:document-units="mm"
     inkscape:zoom="1.1893651"
     inkscape:cx="162.69185"
     inkscape:cy="163.11224"
     inkscape:window-width="1366"
     inkscape:window-height="699"
     inkscape:window-x="0"
     inkscape:window-y="32"
     inkscape:window-maximized="1"
     inkscape:current-layer="layer1" /><defs
     id="defs1"><filter
       inkscape:collect="always"
       style="color-interpolation-filters:sRGB"
       id="filter49"
       x="-0.021876249"
       y="-0.035795955"
       width="1.0437525"
       height="1.0715919"><feGaussianBlur
         inkscape:collect="always"
         stdDeviation="0.2524227"
         id="feGaussianBlur49" /></filter></defs><g
     inkscape:label="Calque 1"
     inkscape:groupmode="layer"
     id="layer1"><path
       id="rect49"
       style="fill:#f9f9f9;stroke-width:1.67062"
       d="m 104.27489,170.28941 h 0.87375 v 0.80939 h -0.87375 z" /><path
       id="rect50"
       style="fill:#f9f9f9;stroke-width:1.67062"
       d="m 104.27489,171.60135 h 0.87375 v 0.80938 h -0.87375 z" /><path
       id="rect51"
       style="fill:#f9f9f9;stroke-width:1.67062"
       d="m 104.27489,172.91328 h 0.87375 v 0.80939 h -0.87375 z" /><path
       id="rect52"
       style="fill:#f9f9f9;stroke-width:1.67062"
       d="m 104.27489,174.22522 h 0.87375 v 0.80938 h -0.87375 z" /><g
       id="g54"><rect
         style="fill:#00aad4;fill-opacity:1;stroke:none;stroke-width:4;stroke-dasharray:none;stroke-dashoffset:1.09153"
         id="rect54"
         width="90"
         height="90"
         x="0"
         y="0"
         ry="15.81571" /><path
         id="path47"
         style="fill:#55ddff;stroke:#666666;stroke-width:2.04253;stroke-dashoffset:0.288801"
         d="m 72.617402,48.03092 c 0,15.25267 -12.36473,27.6174 -27.6174,27.6174 -15.252669,0 -27.617405,-12.36473 -27.617403,-27.6174 1e-6,-11.61683 3.522152,-24.8787 13.680226,-28.95825 3.179282,-1.27682 10.873857,-3.66443 14.147087,-4.67525 2.76844,0.82113 11.10231,3.3993 14.56766,4.96543 9.58551,4.33205 12.83983,17.4654 12.83983,28.66807 z"
         sodipodi:nodetypes="sssccss" /><path
         id="path1"
         style="fill:#666666;stroke-width:1.07539"
         d="m 59.763302,42.92895 a 15.051534,9.3292341 0 0 1 -15.05154,9.32923 15.051534,9.3292341 0 0 1 -15.051532,-9.32923 15.051534,9.3292341 0 0 1 15.051532,-9.32924 15.051534,9.3292341 0 0 1 15.05154,9.32924 z" /><path
         id="rect1"
         style="fill:#666666;stroke-width:1.24709"
         d="m 50.322882,51.2752 c 0,0 1.77369,6.48368 3.18657,9.82496 1.41287,3.34128 5.3472,10.1106 5.3472,10.1106 0,0 -9.33907,4.03092 -14.2304,4.01919 -4.891337,-0.0117 -13.99367,-4.02487 -13.99367,-4.02487 0,0 3.643298,-6.76818 4.969216,-10.10492 1.325918,-3.33674 3.033162,-9.82496 3.033162,-9.82496 z"
         sodipodi:nodetypes="czczczcc" /><path
         id="rect2"
         style="fill:#666666;stroke-width:1.24709"
         d="m 82.745932,29.92229 c 0,0 -7.59649,2.8012 -11.66852,4.58053 -4.07202,1.77935 -12.66897,6.13937 -12.66897,6.13937 L 53.113472,35.443 c 0,0 9.53086,-2.70617 13.86086,-4.16301 4.32999,-1.45684 12.11886,-4.53751 12.11886,-4.53751 z"
         sodipodi:nodetypes="czcczcc" /><path
         id="rect3"
         style="fill:#666666;stroke-width:1.24709"
         d="m 7.254068,29.70986 c 0,0 8.063331,3.75949 12.010511,5.4937 3.947172,1.73421 11.042248,5.43858 11.042248,5.43858 l 5.294971,-5.19919 c 0,0 -8.044748,-2.28763 -12.290964,-3.76073 -4.246215,-1.47309 -13.107262,-5.11588 -13.107262,-5.11588 z"
         sodipodi:nodetypes="czcczcc" /><path
         id="rect4"
         style="fill:#f9f9f9;stroke-width:1.67062"
         d="m 44.274892,59.78823 h 0.87375 v 0.80938 h -0.87375 z" /><path
         id="rect5"
         style="fill:#f9f9f9;stroke-width:1.67062"
         d="m 44.274892,61.10016 h 0.87375 v 0.80939 h -0.87375 z" /><path
         id="rect6"
         style="fill:#f9f9f9;stroke-width:1.67062"
         d="m 44.274892,62.4121 h 0.87375 v 0.80938 h -0.87375 z" /><path
         id="rect7"
         style="fill:#f9f9f9;stroke-width:1.67062"
         d="m 44.274892,63.72404 h 0.87375 v 0.80938 h -0.87375 z" /><path
         id="rect8"
         style="fill:#f9f9f9;stroke-width:1.67062"
         d="m 44.274892,65.03597 h 0.87375 v 0.80938 h -0.87375 z" /><path
         id="rect9"
         style="fill:#f9f9f9;stroke-width:1.67062"
         d="m 44.274892,66.34791 h 0.87375 v 0.80938 h -0.87375 z" /><path
         id="rect10"
         style="fill:#f9f9f9;stroke-width:1.67062"
         d="m 44.274892,67.98781 h 0.87375 v 0.80939 h -0.87375 z" /><path
         id="rect12"
         style="fill:#f9f9f9;stroke-width:1.67062"
         d="m 44.274892,51.58864 h 0.87375 v 0.80939 h -0.87375 z" /><path
         id="rect13"
         style="fill:#f9f9f9;stroke-width:1.67062"
         d="m 44.274892,52.90058 h 0.87375 v 0.80938 h -0.87375 z" /><path
         id="rect14"
         style="fill:#f9f9f9;stroke-width:1.67062"
         d="m 44.274892,54.21251 h 0.87375 v 0.80939 h -0.87375 z" /><path
         id="rect15"
         style="fill:#f9f9f9;stroke-width:1.67062"
         d="m 44.274892,55.52445 h 0.87375 v 0.80938 h -0.87375 z" /><path
         id="rect16"
         style="fill:#f9f9f9;stroke-width:1.67062"
         d="m 44.274892,56.83639 h 0.87375 v 0.80938 h -0.87375 z" /><path
         id="rect17"
         style="fill:#f9f9f9;stroke-width:1.67062"
         d="m 44.274892,58.47629 h 0.87375 v 0.80939 h -0.87375 z" /><path
         id="rect18"
         style="fill:#f9f9f9;stroke-width:1.67062"
         d="m 66.731732,33.50675 0.47027,0.45643 -1.10056,0.43563 -0.47027,-0.45643 z" /><path
         id="rect19"
         style="fill:#f9f9f9;stroke-width:1.67062"
         d="m 64.947832,34.21287 0.47027,0.45643 -1.10056,0.43563 -0.47027,-0.45643 z" /><path
         id="rect20"
         style="fill:#f9f9f9;stroke-width:1.67062"
         d="m 63.163922,34.91898 0.47027,0.45643 -1.10056,0.43563 -0.47027,-0.45643 z" /><path
         id="rect21"
         style="fill:#f9f9f9;stroke-width:1.67062"
         d="m 61.380022,35.6251 0.47027,0.45643 -1.10056,0.43563 -0.47027,-0.45643 z" /><path
         id="rect22"
         style="fill:#f9f9f9;stroke-width:1.67062"
         d="m 59.596122,36.33122 0.47027,0.45643 -1.10056,0.43563 -0.47027,-0.45643 z" /><path
         id="rect23"
         style="fill:#f9f9f9;stroke-width:1.67062"
         d="m 57.812212,37.03733 0.47028,0.45643 -1.10056,0.43564 -0.47028,-0.45643 z" /><path
         id="rect25"
         style="fill:#f9f9f9;stroke-width:1.67062"
         d="m 79.665032,28.3874 0.47027,0.45643 -1.10056,0.43563 -0.47027,-0.45643 z" /><path
         id="rect26"
         style="fill:#f9f9f9;stroke-width:1.67062"
         d="m 77.881132,29.09352 0.47027,0.45643 -1.10056,0.43563 -0.47027,-0.45643 z" /><path
         id="rect27"
         style="fill:#f9f9f9;stroke-width:1.67062"
         d="m 76.097222,29.79963 0.47027,0.45643 -1.10055,0.43563 -0.47028,-0.45643 z" /><path
         id="rect28"
         style="fill:#f9f9f9;stroke-width:1.67062"
         d="m 74.313322,30.50575 0.47027,0.45643 -1.10056,0.43563 -0.47027,-0.45643 z" /><path
         id="rect29"
         style="fill:#f9f9f9;stroke-width:1.67062"
         d="m 72.529422,31.21187 0.47027,0.45643 -1.10056,0.43563 -0.47027,-0.45643 z" /><path
         id="rect30"
         style="fill:#f9f9f9;stroke-width:1.67062"
         d="m 70.745512,31.91799 0.47027,0.45642 -1.10056,0.43564 -0.47027,-0.45643 z" /><path
         id="rect31"
         style="fill:#f9f9f9;stroke-width:1.67062"
         d="m 68.515632,32.80063 0.47027,0.45643 -1.10055,0.43563 -0.47028,-0.45643 z" /><path
         id="rect32"
         style="fill:#f9f9f9;stroke-width:1.67062"
         d="m 22.906151,33.50673 -0.470279,0.45644 1.100568,0.43564 0.470279,-0.45644 z" /><path
         id="rect33"
         style="fill:#f9f9f9;stroke-width:1.67062"
         d="m 24.690064,34.21286 -0.470279,0.45643 1.100558,0.43563 0.470279,-0.45643 z" /><path
         id="rect34"
         style="fill:#f9f9f9;stroke-width:1.67062"
         d="m 26.473967,34.91897 -0.470279,0.45644 1.100558,0.43563 0.470279,-0.45644 z" /><path
         id="rect35"
         style="fill:#f9f9f9;stroke-width:1.67062"
         d="m 28.257879,35.62509 -0.470279,0.45644 1.100558,0.43563 0.470279,-0.45644 z" /><path
         id="rect36"
         style="fill:#f9f9f9;stroke-width:1.67062"
         d="m 30.041772,36.33121 -0.470279,0.45643 1.100559,0.43563 0.470279,-0.45643 z" /><path
         id="rect37"
         style="fill:#f9f9f9;stroke-width:1.67062"
         d="m 31.825666,37.03732 -0.470279,0.45644 1.100568,0.43563 0.470279,-0.45644 z" /><path
         id="rect39"
         style="fill:#f9f9f9;stroke-width:1.67062"
         d="m 9.972857,28.38739 -0.470278,0.45643 1.100558,0.43563 0.470279,-0.45643 z" /><path
         id="rect40"
         style="fill:#f9f9f9;stroke-width:1.67062"
         d="m 11.75677,29.09351 -0.470279,0.45643 1.100558,0.43564 0.470279,-0.45644 z" /><path
         id="rect41"
         style="fill:#f9f9f9;stroke-width:1.67062"
         d="m 13.540682,29.79963 -0.470279,0.45644 1.100559,0.43563 0.470279,-0.45644 z" /><path
         id="rect42"
         style="fill:#f9f9f9;stroke-width:1.67062"
         d="m 15.324576,30.50574 -0.470279,0.45644 1.100558,0.43563 0.470279,-0.45644 z" /><path
         id="rect43"
         style="fill:#f9f9f9;stroke-width:1.67062"
         d="m 17.108469,31.21185 -0.470279,0.45644 1.100559,0.43563 0.470279,-0.45643 z" /><path
         id="rect44"
         style="fill:#f9f9f9;stroke-width:1.67062"
         d="m 18.892372,31.91797 -0.470279,0.45644 1.100559,0.43563 0.470279,-0.45644 z" /><path
         id="rect45"
         style="fill:#f9f9f9;stroke-width:1.67062"
         d="m 21.122258,32.80062 -0.470279,0.45644 1.100559,0.43563 0.470278,-0.45644 z" /><path
         id="path45"
         style="fill:none;stroke:#f9f9f9;stroke-width:0.514204;stroke-dasharray:1.02841, 1.02841;stroke-dashoffset:0.205682"
         d="m 54.385232,42.92901 a 9.6847391,6.0027905 0 0 1 -9.68474,6.00279 9.6847391,6.0027905 0 0 1 -9.684736,-6.00279 9.6847391,6.0027905 0 0 1 9.684736,-6.00279 9.6847391,6.0027905 0 0 1 9.68474,6.00279 z" /><g
         id="g48"
         style="fill:#2b0011;filter:url(#filter49)"
         transform="translate(-59.999998,-100.46908)"><path
           style="fill:#2b0011;stroke-width:0.287747"
           d="m 104.58831,151.38444 c -0.004,-0.28335 -0.32114,-2.4766 -0.37891,-2.61978 -0.004,-0.01 -0.22637,-0.0377 -0.49507,-0.0642 -1.83103,-0.17953 -3.35047,-0.5679 -4.623747,-1.18182 -1.566989,-0.75555 -2.74021,-1.93376 -3.164344,-3.17777 -0.131521,-0.38579 -0.293388,-0.7237 -0.359695,-0.75093 -0.06632,-0.0273 -1.066841,-0.093 -2.223383,-0.14606 -1.156543,-0.0531 -2.242514,-0.12136 -2.413268,-0.15172 -0.18696,-0.0333 0.512648,-0.0949 1.758732,-0.15517 3.278423,-0.1584 2.986582,-0.0908 3.16109,-0.73234 0.327471,-1.20391 1.250971,-2.24522 2.755369,-3.10689 1.384405,-0.7929 2.773196,-1.21459 4.621046,-1.4031 1.14147,-0.11649 1.02544,0.0489 1.25572,-1.78914 0.0886,-0.70694 0.19718,-1.28534 0.24135,-1.28534 0.0441,0 0.153,0.5606 0.24186,1.24577 0.24391,1.88071 0.12862,1.71361 1.26186,1.82922 1.85554,0.1893 3.29762,0.62927 4.64891,1.41835 1.49602,0.87362 2.39769,1.89737 2.72235,3.09091 0.17495,0.6432 -0.0989,0.57918 3.1285,0.73146 1.15123,0.0543 1.98471,0.12216 1.85217,0.15081 -0.13254,0.0287 -1.21893,0.0983 -2.41419,0.15485 -1.19526,0.0567 -2.22265,0.12419 -2.28309,0.15033 -0.0605,0.0262 -0.23633,0.39174 -0.39088,0.81235 -0.32184,0.87589 -0.81666,1.53068 -1.65898,2.19529 -1.38854,1.09562 -3.44088,1.83804 -5.68851,2.0578 -0.4413,0.0432 -0.8346,0.0981 -0.87402,0.1219 -0.0394,0.024 -0.16355,0.68077 -0.27587,1.45964 -0.19875,1.37835 -0.39412,1.93088 -0.405,1.1454 z m 0.39326,-2.84087 c 0.21052,-1.60846 0.51219,-3.66833 0.59077,-4.03394 0.0621,-0.28888 0.0281,-0.3356 -0.39019,-0.53727 l -0.45818,-0.22088 0.0103,3.02881 c 0.006,1.66585 0.031,2.99322 0.0563,2.94972 0.0254,-0.0434 0.11127,-0.5774 0.19099,-1.18644 z m -0.84888,-0.49913 c -0.039,-0.16051 -0.18237,-1.03439 -0.31879,-1.94191 -0.13641,-0.90754 -0.27789,-1.6682 -0.31438,-1.69036 -0.0365,-0.0223 -0.43545,0.1596 -0.88656,0.40394 -0.45112,0.24433 -0.87243,0.44438 -0.93626,0.44459 -0.12888,4.3e-4 0.92634,-0.58281 1.50208,-0.83016 0.33842,-0.14539 0.5029,-0.35595 0.27806,-0.35595 -0.21758,0 -1.96305,1.13672 -1.8996,1.23711 0.0374,0.0592 0.0142,0.1076 -0.0517,0.1076 -0.0658,0 -0.23569,0.0622 -0.37751,0.13842 -0.65428,0.35121 -0.83347,0.43679 -0.83347,0.39812 0,-0.0229 0.58244,-0.4627 1.29431,-0.97727 0.71188,-0.51458 1.26535,-0.96406 1.22994,-0.99885 -0.0354,-0.0349 -0.31007,-0.0633 -0.61036,-0.0634 -0.3003,-9e-5 -1.74355,-0.0709 -3.20723,-0.15732 -1.463674,-0.0866 -2.686364,-0.14192 -2.717079,-0.12324 -0.03075,0.0187 0.03679,0.3119 0.150104,0.65168 0.548316,1.64474 2.646659,3.17559 5.132395,3.74436 0.7929,0.18143 2.37456,0.39139 2.53878,0.33701 0.0539,-0.0178 0.0661,-0.16376 0.0273,-0.32427 z m 2.74085,0.17469 c 2.21665,-0.3182 4.3646,-1.3707 5.39116,-2.6417 0.47717,-0.59077 1.05809,-1.84523 0.89919,-1.94171 -0.0307,-0.0187 -1.25335,0.0351 -2.71708,0.11946 -1.46374,0.0844 -2.90269,0.16398 -3.19768,0.17704 -0.29499,0.0135 -0.5588,0.0452 -0.58625,0.0718 -0.0452,0.0434 0.68481,0.60871 2.00195,1.5503 0.51714,0.36968 0.64064,0.52307 0.26056,0.32358 -0.12539,-0.0659 -0.39902,-0.20479 -0.60807,-0.30888 -0.20906,-0.10405 -0.80532,-0.41168 -1.32504,-0.68356 -0.51972,-0.2719 -0.97373,-0.49435 -1.00892,-0.49435 -0.10219,0 -0.20175,0.49258 -0.41565,2.05651 -0.11008,0.80482 -0.23419,1.57886 -0.27581,1.72014 -0.0749,0.25435 -0.0714,0.25637 0.36215,0.21026 0.2408,-0.0257 0.78957,-0.0971 1.21949,-0.15878 z m 0.24439,-3.66524 c -0.42102,-0.30547 -0.83878,-0.55608 -0.92835,-0.55689 -0.0895,-0.001 -0.16284,0.0122 -0.16284,0.0276 0,0.068 1.74073,1.15504 1.79596,1.1215 0.0334,-0.0202 -0.28375,-0.2868 -0.70477,-0.59227 z m -3.30589,-1.20596 c 0,-0.0353 -2.21308,-0.0593 -4.917936,-0.0531 -4.03963,0.01 -4.673638,0.0244 -3.550037,0.0854 0.75235,0.0408 2.804206,0.1543 4.559672,0.25221 l 3.191771,0.17805 0.35826,-0.19913 c 0.19705,-0.10958 0.35827,-0.22805 0.35827,-0.2634 z m 11.46433,-0.11578 c -1.34799,-0.11543 -9.05594,-0.49007 -9.11448,-0.44296 -0.0407,0.0327 -0.21516,0.1574 -0.3878,0.27704 l -0.31387,0.21752 5.07091,-0.0122 c 2.78901,-0.007 4.92437,-0.0244 4.74524,-0.0397 z m -15.313821,-0.50497 c 1.572861,-0.0884 2.877631,-0.17165 2.899501,-0.18493 0.0219,-0.0135 -0.32704,-0.28895 -0.77533,-0.61262 -1.41008,-1.0181 -1.93949,-1.41426 -1.88996,-1.41426 0.0264,0 0.77734,0.37274 1.66878,0.82835 1.9235,0.98305 1.69999,1.11507 2.00519,-1.1843 0.11549,-0.87006 0.24397,-1.6849 0.28552,-1.81079 l 0.0756,-0.22887 -0.69841,0.0557 c -3.650301,0.29101 -6.654776,2.13151 -7.202073,4.41193 l -0.08915,0.37142 0.430322,-0.0354 c 0.236675,-0.0195 1.717207,-0.10784 3.29007,-0.19618 z m 13.155161,-0.13554 c -0.46399,-1.93262 -2.63471,-3.54614 -5.61434,-4.17316 -0.48972,-0.10319 -1.20234,-0.21224 -1.58362,-0.24263 l -0.69323,-0.0552 0.0726,0.268 c 0.0399,0.14741 0.16176,0.89089 0.27072,1.6522 0.10897,0.76129 0.23466,1.54435 0.27931,1.74011 0.0446,0.19578 0.0742,0.43603 0.0658,0.53392 -0.008,0.098 0.005,0.17796 0.0294,0.17796 0.0247,0 0.4401,-0.22245 0.92307,-0.49435 1.18886,-0.6693 1.38994,-0.93597 0.23854,-0.31639 -0.84659,0.45557 -1.20618,0.60397 -1.01981,0.4209 0.0713,-0.0701 2.19947,-1.13898 2.91992,-1.4666 0.3524,-0.16023 -0.24265,0.29804 -1.72073,1.3252 -0.42466,0.29512 -0.74384,0.55373 -0.70927,0.57474 0.0345,0.0211 1.49331,0.12254 3.24166,0.22558 1.74835,0.10319 3.22637,0.19151 3.2845,0.19647 0.0581,0.004 0.0651,-0.16004 0.0155,-0.36669 z m -8.40885,-2.84747 c -0.008,-1.64223 -0.0358,-2.93251 -0.061,-2.86725 -0.0253,0.0653 -0.16753,1.00848 -0.31614,2.09606 -0.1486,1.08758 -0.32145,2.27995 -0.38411,2.64974 -0.11171,0.65935 -0.10737,0.67651 0.22536,0.88983 0.18659,0.11959 0.38692,0.21753 0.44517,0.21753 0.0582,0 0.0991,-1.34366 0.0907,-2.98591 z m -1.28765,2.76639 c 0,-0.0337 -0.44917,-0.32735 -0.99815,-0.65253 -1.00592,-0.59586 -0.98882,-0.54339 0.0862,0.26447 0.52429,0.394 0.91193,0.55895 0.91193,0.38806 z"
           id="path48" /></g><g
         id="g49"
         style="fill:#f9f9f9"
         transform="translate(-59.999998,-103.11491)"><path
           style="fill:#f9f9f9;stroke-width:0.287747"
           d="m 104.58831,151.38444 c -0.004,-0.28335 -0.32114,-2.4766 -0.37891,-2.61978 -0.004,-0.01 -0.22637,-0.0377 -0.49507,-0.0642 -1.83103,-0.17953 -3.35047,-0.5679 -4.623747,-1.18182 -1.566989,-0.75555 -2.74021,-1.93376 -3.164344,-3.17777 -0.131521,-0.38579 -0.293388,-0.7237 -0.359695,-0.75093 -0.06632,-0.0273 -1.066841,-0.093 -2.223383,-0.14606 -1.156543,-0.0531 -2.242514,-0.12136 -2.413268,-0.15172 -0.18696,-0.0333 0.512648,-0.0949 1.758732,-0.15517 3.278423,-0.1584 2.986582,-0.0908 3.16109,-0.73234 0.327471,-1.20391 1.250971,-2.24522 2.755369,-3.10689 1.384405,-0.7929 2.773196,-1.21459 4.621046,-1.4031 1.14147,-0.11649 1.02544,0.0489 1.25572,-1.78914 0.0886,-0.70694 0.19718,-1.28534 0.24135,-1.28534 0.0441,0 0.153,0.5606 0.24186,1.24577 0.24391,1.88071 0.12862,1.71361 1.26186,1.82922 1.85554,0.1893 3.29762,0.62927 4.64891,1.41835 1.49602,0.87362 2.39769,1.89737 2.72235,3.09091 0.17495,0.6432 -0.0989,0.57918 3.1285,0.73146 1.15123,0.0543 1.98471,0.12216 1.85217,0.15081 -0.13254,0.0287 -1.21893,0.0983 -2.41419,0.15485 -1.19526,0.0567 -2.22265,0.12419 -2.28309,0.15033 -0.0605,0.0262 -0.23633,0.39174 -0.39088,0.81235 -0.32184,0.87589 -0.81666,1.53068 -1.65898,2.19529 -1.38854,1.09562 -3.44088,1.83804 -5.68851,2.0578 -0.4413,0.0432 -0.8346,0.0981 -0.87402,0.1219 -0.0394,0.024 -0.16355,0.68077 -0.27587,1.45964 -0.19875,1.37835 -0.39412,1.93088 -0.405,1.1454 z m 0.39326,-2.84087 c 0.21052,-1.60846 0.51219,-3.66833 0.59077,-4.03394 0.0621,-0.28888 0.0281,-0.3356 -0.39019,-0.53727 l -0.45818,-0.22088 0.0103,3.02881 c 0.006,1.66585 0.031,2.99322 0.0563,2.94972 0.0254,-0.0434 0.11127,-0.5774 0.19099,-1.18644 z m -0.84888,-0.49913 c -0.039,-0.16051 -0.18237,-1.03439 -0.31879,-1.94191 -0.13641,-0.90754 -0.27789,-1.6682 -0.31438,-1.69036 -0.0365,-0.0223 -0.43545,0.1596 -0.88656,0.40394 -0.45112,0.24433 -0.87243,0.44438 -0.93626,0.44459 -0.12888,4.3e-4 0.92634,-0.58281 1.50208,-0.83016 0.33842,-0.14539 0.5029,-0.35595 0.27806,-0.35595 -0.21758,0 -1.96305,1.13672 -1.8996,1.23711 0.0374,0.0592 0.0142,0.1076 -0.0517,0.1076 -0.0658,0 -0.23569,0.0622 -0.37751,0.13842 -0.65428,0.35121 -0.83347,0.43679 -0.83347,0.39812 0,-0.0229 0.58244,-0.4627 1.29431,-0.97727 0.71188,-0.51458 1.26535,-0.96406 1.22994,-0.99885 -0.0354,-0.0349 -0.31007,-0.0633 -0.61036,-0.0634 -0.3003,-9e-5 -1.74355,-0.0709 -3.20723,-0.15732 -1.463674,-0.0866 -2.686364,-0.14192 -2.717079,-0.12324 -0.03075,0.0187 0.03679,0.3119 0.150104,0.65168 0.548316,1.64474 2.646659,3.17559 5.132395,3.74436 0.7929,0.18143 2.37456,0.39139 2.53878,0.33701 0.0539,-0.0178 0.0661,-0.16376 0.0273,-0.32427 z m 2.74085,0.17469 c 2.21665,-0.3182 4.3646,-1.3707 5.39116,-2.6417 0.47717,-0.59077 1.05809,-1.84523 0.89919,-1.94171 -0.0307,-0.0187 -1.25335,0.0351 -2.71708,0.11946 -1.46374,0.0844 -2.90269,0.16398 -3.19768,0.17704 -0.29499,0.0135 -0.5588,0.0452 -0.58625,0.0718 -0.0452,0.0434 0.68481,0.60871 2.00195,1.5503 0.51714,0.36968 0.64064,0.52307 0.26056,0.32358 -0.12539,-0.0659 -0.39902,-0.20479 -0.60807,-0.30888 -0.20906,-0.10405 -0.80532,-0.41168 -1.32504,-0.68356 -0.51972,-0.2719 -0.97373,-0.49435 -1.00892,-0.49435 -0.10219,0 -0.20175,0.49258 -0.41565,2.05651 -0.11008,0.80482 -0.23419,1.57886 -0.27581,1.72014 -0.0749,0.25435 -0.0714,0.25637 0.36215,0.21026 0.2408,-0.0257 0.78957,-0.0971 1.21949,-0.15878 z m 0.24439,-3.66524 c -0.42102,-0.30547 -0.83878,-0.55608 -0.92835,-0.55689 -0.0895,-0.001 -0.16284,0.0122 -0.16284,0.0276 0,0.068 1.74073,1.15504 1.79596,1.1215 0.0334,-0.0202 -0.28375,-0.2868 -0.70477,-0.59227 z m -3.30589,-1.20596 c 0,-0.0353 -2.21308,-0.0593 -4.917936,-0.0531 -4.03963,0.01 -4.673638,0.0244 -3.550037,0.0854 0.75235,0.0408 2.804206,0.1543 4.559672,0.25221 l 3.191771,0.17805 0.35826,-0.19913 c 0.19705,-0.10958 0.35827,-0.22805 0.35827,-0.2634 z m 11.46433,-0.11578 c -1.34799,-0.11543 -9.05594,-0.49007 -9.11448,-0.44296 -0.0407,0.0327 -0.21516,0.1574 -0.3878,0.27704 l -0.31387,0.21752 5.07091,-0.0122 c 2.78901,-0.007 4.92437,-0.0244 4.74524,-0.0397 z m -15.313821,-0.50497 c 1.572861,-0.0884 2.877631,-0.17165 2.899501,-0.18493 0.0219,-0.0135 -0.32704,-0.28895 -0.77533,-0.61262 -1.41008,-1.0181 -1.93949,-1.41426 -1.88996,-1.41426 0.0264,0 0.77734,0.37274 1.66878,0.82835 1.9235,0.98305 1.69999,1.11507 2.00519,-1.1843 0.11549,-0.87006 0.24397,-1.6849 0.28552,-1.81079 l 0.0756,-0.22887 -0.69841,0.0557 c -3.650301,0.29101 -6.654776,2.13151 -7.202073,4.41193 l -0.08915,0.37142 0.430322,-0.0354 c 0.236675,-0.0195 1.717207,-0.10784 3.29007,-0.19618 z m 13.155161,-0.13554 c -0.46399,-1.93262 -2.63471,-3.54614 -5.61434,-4.17316 -0.48972,-0.10319 -1.20234,-0.21224 -1.58362,-0.24263 l -0.69323,-0.0552 0.0726,0.268 c 0.0399,0.14741 0.16176,0.89089 0.27072,1.6522 0.10897,0.76129 0.23466,1.54435 0.27931,1.74011 0.0446,0.19578 0.0742,0.43603 0.0658,0.53392 -0.008,0.098 0.005,0.17796 0.0294,0.17796 0.0247,0 0.4401,-0.22245 0.92307,-0.49435 1.18886,-0.6693 1.38994,-0.93597 0.23854,-0.31639 -0.84659,0.45557 -1.20618,0.60397 -1.01981,0.4209 0.0713,-0.0701 2.19947,-1.13898 2.91992,-1.4666 0.3524,-0.16023 -0.24265,0.29804 -1.72073,1.3252 -0.42466,0.29512 -0.74384,0.55373 -0.70927,0.57474 0.0345,0.0211 1.49331,0.12254 3.24166,0.22558 1.74835,0.10319 3.22637,0.19151 3.2845,0.19647 0.0581,0.004 0.0651,-0.16004 0.0155,-0.36669 z m -8.40885,-2.84747 c -0.008,-1.64223 -0.0358,-2.93251 -0.061,-2.86725 -0.0253,0.0653 -0.16753,1.00848 -0.31614,2.09606 -0.1486,1.08758 -0.32145,2.27995 -0.38411,2.64974 -0.11171,0.65935 -0.10737,0.67651 0.22536,0.88983 0.18659,0.11959 0.38692,0.21753 0.44517,0.21753 0.0582,0 0.0991,-1.34366 0.0907,-2.98591 z m -1.28765,2.76639 c 0,-0.0337 -0.44917,-0.32735 -0.99815,-0.65253 -1.00592,-0.59586 -0.98882,-0.54339 0.0862,0.26447 0.52429,0.394 0.91193,0.55895 0.91193,0.38806 z"
           id="path49" /></g><path
         style="fill:#666666;fill-opacity:1;stroke-width:0.511232"
         d="m 33.155066,34.14451 c -0.713798,-0.29851 -1.55072,-0.79719 -1.55072,-0.92395 0,-0.0435 0.188277,-0.27608 0.418384,-0.51656 1.128255,-1.17911 1.835531,-2.58615 2.051767,-4.08177 0.05953,-0.4116 0.05734,-0.46073 -0.02286,-0.50559 -0.604762,-0.33845 -0.855906,-1.14375 -0.556915,-1.78582 0.110288,-0.23673 0.407484,-0.56683 0.559847,-0.62172 0.02996,-0.0116 0.09311,-0.30273 0.140856,-0.64882 0.164127,-1.19296 0.46924,-2.1044 0.909681,-2.71748 0.167859,-0.23365 0.177442,-0.26487 0.09414,-0.30761 -0.05101,-0.0262 -0.723961,-0.2573 -1.495692,-0.51361 -1.546458,-0.51361 -1.618081,-0.55559 -1.618081,-0.94837 0,-0.14725 0.03655,-0.24569 0.123719,-0.33277 0.09169,-0.0916 1.79888,-0.68191 6.577199,-2.27421 l 6.453561,-2.15052 6.45349,2.15052 c 4.77835,1.5923 6.48563,2.18262 6.57723,2.27421 0.15984,0.15984 0.16764,0.48599 0.0161,0.6785 -0.0912,0.11597 -1.08273,0.46169 -6.53708,2.27982 -3.53629,1.17878 -6.47778,2.14307 -6.53659,2.14288 -0.17937,-5.7e-4 -6.92736,-2.26847 -6.920102,-2.32576 0.01291,-0.10125 5.243232,-2.16746 6.702462,-2.64778 0.58291,-0.19186 0.75509,-0.32477 0.81174,-0.62653 0.0651,-0.34614 -0.24457,-0.70943 -0.60439,-0.70943 -0.37601,0 -5.991142,2.16492 -7.475948,2.88239 -1.513048,0.73105 -1.983438,1.41482 -2.242292,3.25953 l -0.07697,0.54865 0.207378,0.18734 c 0.579037,0.52314 0.599196,1.39836 0.04572,1.97751 -0.117003,0.1223 -0.15089,0.19972 -0.128884,0.2941 0.186379,0.8001 0.255573,3.1133 0.113387,3.79097 -0.23965,1.14241 -1.226907,2.30193 -1.95535,2.29661 -0.132345,-5.6e-4 -0.37299,-0.0571 -0.534741,-0.12476 z m 11.229366,-3.05922 c -2.38962,-0.13132 -4.422543,-0.58351 -5.785859,-1.28697 -0.457656,-0.23618 -1.042427,-0.64417 -1.238931,-0.86441 -0.09828,-0.11016 -0.09763,-0.11506 0.03358,-0.27091 0.657323,-0.78116 0.547926,-2.08645 -0.235699,-2.81192 -0.276623,-0.25611 -0.312641,-0.31305 -0.311699,-0.49291 0.0026,-0.27083 0.09428,-0.91033 0.162811,-1.12064 l 0.05488,-0.16863 3.914477,1.30913 c 3.51077,1.17417 3.9503,1.30917 4.26204,1.30917 0.31193,0 0.75867,-0.13747 4.35766,-1.34101 2.20554,-0.73756 4.02831,-1.34105 4.05059,-1.34105 0.0223,0 0.0404,0.84919 0.0404,1.88707 0,1.5231 -0.0158,1.94777 -0.082,2.20183 -0.35667,1.36929 -2.74745,2.49365 -6.14098,2.88806 -0.69208,0.0803 -2.43393,0.13878 -3.0814,0.10319 z"
         id="path8" /></g></g></svg>
