<svg width="56" height="55" viewBox="0 0 56 55" fill="none" xmlns="http://www.w3.org/2000/svg">
<path d="M7.37592 54.6677C4.35479 53.8724 1.98298 51.4834 1.20863 48.4558C0.968634 47.5171 0.962252 46.9805 0.963763 27.6999C0.966182 5.86651 0.925946 7.01856 1.75691 5.28198C2.66468 3.38662 3.89476 2.13971 5.78143 1.20201C7.62228 0.287027 6.30442 0.337712 28.328 0.335217C47.6088 0.333063 48.1454 0.338989 49.084 0.579367C51.4767 1.19135 53.5152 2.80888 54.5837 4.94333C55.6267 7.02684 55.5593 5.36104 55.5197 28.064L55.4818 48.2206L55.1425 49.1344C54.2027 51.668 52.357 53.5318 49.852 54.4766L48.8459 54.8563L28.564 54.8827C8.94199 54.9092 8.25257 54.9016 7.37194 54.6688L7.37592 54.6677ZM37.6449 45.2787V35.8889H41.5639H45.4828L45.8883 31.9139C46.1109 29.7277 46.326 27.6432 46.3658 27.2817L46.4388 26.6244H42.0322H37.6258L37.6711 23.0876C37.7165 19.1824 37.7437 19.0287 38.5325 18.2644C39.2547 17.5607 39.8395 17.454 43.3128 17.3909L46.4113 17.3346V12.7151V8.09549L42.4989 8.0975C36.2795 8.10064 34.1381 8.39306 31.7633 9.56448C30.7882 10.0455 30.3795 10.3436 29.4939 11.2204C28.5802 12.1248 28.3253 12.4729 27.8391 13.479C26.728 15.7785 26.3808 18.1994 26.3802 23.6512L26.38 26.6247H23.5004H20.6209V31.2569V35.8892H23.5004H26.38V45.279V54.6687H32.0138H37.6475L37.6449 45.2787Z" fill="black"/>
</svg>
