<svg width="57" height="55" viewBox="0 0 57 55" fill="none" xmlns="http://www.w3.org/2000/svg">
<path d="M27.415 54.2524C2.84928 54.2221 2.07943 54.2146 1.8931 54.0872L1.70111 53.9572L1.99668 53.5986C2.15957 53.4013 2.30963 53.224 2.33042 53.2048C2.34932 53.1859 2.47706 53.0284 2.60972 52.8556C2.74276 52.6829 2.88371 52.5071 2.92264 52.466C2.96044 52.4252 3.1192 52.2378 3.27265 52.0506C3.42647 51.8632 3.64909 51.5984 3.76747 51.4618C3.88576 51.3254 4.13481 51.0246 4.31955 50.7942C4.50513 50.5636 4.79066 50.2178 4.95439 50.0256C5.46108 49.4311 5.77759 49.0511 6.03255 48.7329C6.1671 48.5647 6.39731 48.2866 6.54467 48.1153C6.69207 47.9437 6.97962 47.5961 7.18413 47.3425C7.3886 47.0885 7.64613 46.7827 7.75524 46.6624C7.86447 46.5418 8.03269 46.3411 8.12907 46.2161C8.31804 45.9704 8.68025 45.5297 8.79303 45.4087C8.83083 45.3679 8.98846 45.1823 9.14229 44.9973C9.29612 44.8121 9.68626 44.3431 10.0091 43.9544C10.6076 43.2341 10.958 42.814 11.4376 42.2412C11.5858 42.0644 11.7589 41.8571 11.8222 41.7802C12.8978 40.4805 13.9874 39.1695 14.3477 38.7412C14.5976 38.4442 15.2418 37.6645 15.7802 37.0083C16.3186 36.352 16.7976 35.8131 16.8455 35.8105C16.8909 35.808 17.1294 35.9666 17.3694 36.1628C17.6098 36.3593 17.9634 36.6447 18.1562 36.7975C18.3482 36.9502 18.5798 37.1384 18.672 37.2165C18.7627 37.294 18.983 37.4683 19.1612 37.6035C19.3385 37.7388 19.5007 37.871 19.5196 37.8975C19.5385 37.9239 19.6208 37.9909 19.7006 38.0464C19.7822 38.1016 19.9855 38.2615 20.1545 38.4009C20.9039 39.0191 21.7723 39.7282 22.4122 40.2441C23.0844 40.7864 23.5757 41.1818 25.011 42.3377C25.392 42.6442 25.7186 42.9115 25.7377 42.9316C25.7566 42.9505 25.9297 43.0942 26.1214 43.2476C26.3134 43.4014 26.5332 43.5794 26.6108 43.6435C27.3184 44.2339 27.9376 44.6765 28.1082 44.7139C28.2258 44.7404 28.3841 44.7215 28.4756 44.6731C28.6475 44.5828 29.2887 44.085 30.3139 43.2456C31.2577 42.4732 32.2445 41.6694 32.5864 41.3946C32.7538 41.2601 33.0222 41.0401 33.1812 40.9055C33.3415 40.771 33.7361 40.4506 34.059 40.1935C34.3818 39.9365 35.1043 39.3547 35.6645 38.9008C36.2248 38.4469 37.1681 37.6848 37.7608 37.2071C38.3538 36.7296 38.9417 36.25 39.068 36.1416C39.1946 36.0331 39.3518 35.945 39.4171 35.9462C39.4806 35.9471 39.8457 36.3211 40.2358 36.795C40.6204 37.2609 41.0444 37.773 41.1792 37.933C41.3137 38.0932 41.5336 38.3625 41.6685 38.5316C41.803 38.7009 42.0113 38.9502 42.1305 39.0862C42.417 39.4109 43.5236 40.7303 43.8345 41.1168C44.093 41.4385 44.422 41.8321 44.9126 42.4079C45.0762 42.6002 45.362 42.9459 45.5475 43.1765C45.733 43.407 45.9815 43.707 46.0995 43.8429C46.2178 43.9789 46.4253 44.2284 46.5598 44.3976C46.6944 44.5669 47.0093 44.9449 47.2583 45.2379C47.5082 45.5309 48.1215 46.269 48.6209 46.8778C49.1203 47.4867 49.614 48.082 49.7175 48.201C49.8215 48.3196 50.8084 49.5019 51.9117 50.8279C53.0151 52.1537 54.0544 53.3953 54.2215 53.5867C54.5609 53.9754 54.6043 54.1616 54.3681 54.2144C54.0578 54.2844 52.4097 54.2864 27.415 54.2524ZM55.1319 53.2217C54.9081 52.9765 53.7635 51.6189 53.5817 51.3832C53.5088 51.2849 53.2967 51.0332 53.1178 50.8242C52.7414 50.3856 52.3638 49.9352 52.0026 49.4953C51.3424 48.6899 48.4901 45.2532 48.3543 45.0987C48.2726 45.0027 48.0594 44.751 47.8885 44.5397C47.7165 44.3284 47.3082 43.8383 46.9817 43.4509C46.6544 43.0636 46.2613 42.5933 46.1076 42.4061C45.9538 42.2186 45.55 41.734 45.2099 41.3287C44.444 40.4156 44.5213 40.5086 43.5564 39.3396C43.1151 38.8047 42.549 38.1239 42.2993 37.827C42.0494 37.53 41.7508 37.1677 41.6353 37.0216C41.5196 36.8757 41.3152 36.6283 41.1806 36.4726C41.046 36.3169 40.7674 35.9921 40.5629 35.751L40.191 35.3124L40.4605 35.052C40.694 34.8268 41.0335 34.5455 42.4791 33.3826C42.9803 32.9794 44.4987 31.7482 44.6409 31.6299C44.7138 31.5657 45.1894 31.1841 45.689 30.7815C46.1884 30.3787 46.6682 29.975 46.7546 29.8841L46.9118 29.7185V18.6519V7.58534L46.7282 7.44094L46.5444 7.29659H28.2546H9.96473L9.78105 7.44094L9.59737 7.58534V18.7208V29.8561L9.92771 30.1229C10.1087 30.2696 10.3214 30.4412 10.3998 30.5044C10.4724 30.5679 10.7146 30.7576 10.9255 30.9262C11.1364 31.0948 11.6359 31.4993 12.0342 31.8245C12.4324 32.1495 12.9671 32.5827 13.2221 32.7867C13.4765 32.9907 13.827 33.2752 13.9998 33.4191C14.1725 33.5627 14.7147 34.0036 15.2049 34.3982C16.0317 35.0642 16.0899 35.1269 16.0153 35.268C15.9699 35.3519 15.9068 35.4385 15.8732 35.4608C15.8354 35.4835 15.7413 35.5976 15.657 35.7151C15.527 35.8947 15.2166 36.2688 13.9901 37.726C13.116 38.7643 12.6181 39.3641 12.2216 39.8572C11.9586 40.1837 11.5595 40.6597 11.3339 40.9147C11.1086 41.1694 10.8536 41.4684 10.769 41.5785C10.6243 41.7649 9.99226 42.5285 8.57717 44.2244C8.07502 44.8255 6.27709 46.9953 5.48468 47.9556C5.34559 48.125 5.19898 48.2977 5.16005 48.3398C5.12225 48.3806 4.71419 48.8727 4.25588 49.43C3.79742 49.9873 3.36812 50.5061 3.30171 50.5829C3.23822 50.6601 2.99858 50.9427 2.77691 51.2118C2.55429 51.4809 2.33927 51.7363 2.29939 51.7794C2.2616 51.8203 1.99093 52.1442 1.70267 52.4942C1.17962 53.1294 1.00229 53.242 0.889509 53.0111C0.851714 52.9438 0.82603 46.4856 0.816959 38.6594L0.798043 24.43L0.555421 24.0264C0.267043 23.548 0.215282 23.3149 0.253455 22.6849C0.279912 22.3039 0.325978 22.1434 0.512686 21.8462C0.639301 21.644 0.861932 21.3926 1.00843 21.2872C1.15507 21.1822 1.6006 20.8296 1.99783 20.5043C2.39513 20.1793 2.89372 19.775 3.105 19.6061C3.3159 19.4375 3.55267 19.2474 3.62894 19.1843C3.70188 19.1208 4.01987 18.8649 4.32745 18.6151C4.6351 18.3653 4.90232 18.145 4.92141 18.1254C4.96676 18.0846 6.91014 16.505 7.31856 16.1829C7.47957 16.0559 7.75984 15.8261 7.94066 15.6723L8.26984 15.393L8.28876 11.3966C8.30766 7.72368 8.31521 7.37753 8.43426 7.12063C8.59149 6.7714 8.92817 6.41548 9.26651 6.24109C9.51445 6.11334 9.74498 6.10729 14.9412 6.10729H20.3566L20.7612 5.77845C20.9838 5.59741 21.1971 5.42542 21.236 5.39563C21.2738 5.36918 21.4631 5.20972 21.6555 5.04834C21.8475 4.88695 22.3785 4.45386 22.8345 4.08592C24.1089 3.05872 25.219 2.15867 26.1586 1.39067C27.2594 0.491104 27.2553 0.493963 27.6526 0.34694C28.0902 0.185176 28.7376 0.221433 29.167 0.431197C29.3397 0.515859 29.6582 0.735107 29.8728 0.917998C30.3132 1.29179 31.8357 2.54063 32.481 3.05748C32.7138 3.24419 33.0149 3.48603 33.1495 3.59503C33.2841 3.70388 33.5826 3.94506 33.8135 4.13154C34.0444 4.31787 34.5629 4.73821 34.9664 5.06604C35.3701 5.39411 35.8387 5.76203 36.0075 5.88434L36.3152 6.10695H41.6529C46.8476 6.10695 46.998 6.11074 47.2638 6.24605C47.6319 6.43389 47.8833 6.6969 48.0606 7.08026C48.2043 7.39132 48.2088 7.5007 48.2307 11.3823L48.2572 15.3652L48.7847 15.7847C49.3623 16.2437 51.1104 17.6524 51.7752 18.195C52.0061 18.3832 52.6665 18.9189 53.2426 19.3852C53.8192 19.8516 54.3535 20.2861 54.4304 20.351C54.503 20.4164 54.8377 20.684 55.1644 20.9472C56.0793 21.684 56.2131 21.8944 56.2645 22.6757C56.3023 23.2734 56.2267 23.5729 55.9462 23.9742L55.7581 24.2395L55.7202 38.5639C55.6824 52.5555 55.6824 52.8945 55.5502 53.1504C55.4776 53.2948 55.3918 53.4127 55.3638 53.4127C55.3374 53.4127 55.2338 53.3261 55.1375 53.2203L55.1319 53.2217ZM8.27267 22.9219C8.27645 19.7404 8.26513 17.1172 8.23489 17.0926C8.20844 17.0662 8.17138 17.0851 8.14152 17.1229C8.11507 17.1637 7.93251 17.3221 7.7365 17.4702C7.5411 17.6184 7.22625 17.8707 7.03799 18.0306C6.84977 18.1909 6.22393 18.6997 5.64725 19.1619C3.83731 20.6131 3.28233 21.0637 2.91549 21.3797C2.72009 21.5483 2.40524 21.8024 2.21698 21.9442C1.64759 22.3724 1.49021 22.5819 1.49021 22.9105C1.49021 23.2374 1.64856 23.4488 2.2051 23.8675C2.3869 24.0043 2.66993 24.2307 2.83366 24.3714C2.99731 24.512 3.4931 24.9135 3.93535 25.2642C4.37755 25.6149 4.75485 25.9207 4.77394 25.9439C4.79284 25.9666 5.18619 26.2882 5.64714 26.6579C6.10828 27.0272 6.87723 27.647 7.35576 28.0349C7.83421 28.4226 8.23445 28.7319 8.24447 28.7219C8.25203 28.7143 8.26511 26.1033 8.27267 22.9219ZM48.5604 28.4533C48.6715 28.369 48.7777 28.281 48.7966 28.2598C48.8419 28.2126 50.1096 27.1844 50.4646 26.9104C50.6036 26.803 50.8564 26.5981 51.0258 26.4561C51.1951 26.314 51.3996 26.1523 51.4797 26.0971C51.5613 26.0419 51.6414 25.9754 51.6607 25.9497C51.6796 25.9232 52.1218 25.5605 52.6422 25.1421C54.2679 23.835 54.7757 23.4083 54.9042 23.2407C55.0652 23.0306 55.0633 22.6476 54.9004 22.4335C54.7795 22.2751 53.9124 21.5413 53.199 20.9929C53.0263 20.8598 52.8687 20.7328 52.8498 20.7109C52.8309 20.6882 52.3905 20.3268 51.8716 19.9066C51.3531 19.4867 50.8653 19.0905 50.7884 19.0268C50.6191 18.8862 50.0053 18.3926 49.2512 17.7899C48.9435 17.5442 48.6208 17.2838 48.5344 17.2112C48.4437 17.1383 48.3481 17.0793 48.3137 17.0793C48.2759 17.0793 48.2407 17.2758 48.2226 17.5161C48.1682 18.4391 48.2415 28.6088 48.2955 28.6088C48.3333 28.6088 48.4456 28.5389 48.5563 28.4542L48.5604 28.4533ZM34.0322 6.05279C34.0867 6.015 33.9944 5.90502 33.7529 5.71415C33.3818 5.42237 32.7036 4.87585 32.2017 4.46384C32.0479 4.33761 31.7649 4.10856 31.5732 3.9553C31.3812 3.80147 30.6736 3.22979 30.001 2.68417C29.3288 2.13852 28.6879 1.64536 28.5775 1.58825C28.2547 1.4212 27.9626 1.524 27.3911 2.00642C27.108 2.24491 26.506 2.73869 26.053 3.10379C25.6 3.46889 25.0033 3.95634 24.7274 4.18685C24.4515 4.4174 23.8314 4.92065 23.3498 5.30492C22.8186 5.72853 22.5048 6.0239 22.5512 6.05493C22.6551 6.12296 33.9247 6.1209 34.0322 6.05279ZM26.1921 35.6998C25.319 35.6027 24.6436 35.4829 24.2357 35.3528C23.3643 35.0747 23.14 34.9874 22.6665 34.7391C21.8342 34.3028 21.4081 33.9923 20.8218 33.395C19.935 32.4917 19.4364 31.5374 18.9585 29.831C18.6119 28.5928 18.6138 25.7221 18.9618 24.4505C19.2993 23.2173 19.3518 23.0745 19.8068 22.1315C20.3153 21.0784 20.7881 20.4213 21.6848 19.5214C23.7821 17.4165 26.2728 16.4525 29.6157 16.4516C31.3146 16.4511 32.3276 16.6247 33.7733 17.1657C35.5588 17.8331 37.1178 19.4928 37.7132 21.3598C38.3318 23.2993 38.3235 25.7742 37.6943 27.6998C37.2521 29.0483 36.6396 29.9745 35.7325 30.6672C34.9658 31.2526 34.0974 31.543 33.1129 31.543C31.4142 31.543 30.4253 30.639 30.4227 29.0839C30.4222 28.8269 30.3962 28.6005 30.3683 28.581C30.3418 28.5621 30.14 28.7858 29.9315 29.0802C29.4322 29.7839 28.3839 30.8421 27.9451 31.085C26.7416 31.7517 25.6112 31.6959 24.7569 30.9277C23.722 29.9975 23.4879 27.8368 24.1693 25.5072C24.7314 23.5851 25.9057 22.0468 27.3858 21.2924C27.8634 21.049 27.9998 20.9991 28.4907 20.8887C29.433 20.6774 30.5642 20.8003 31.4524 21.2104C31.95 21.4401 32.05 21.4239 32.5954 21.024C32.9337 20.7753 33.073 20.7341 33.1894 20.8467C33.2272 20.8845 33.3504 20.922 33.4653 20.9337C33.7473 20.9639 33.7563 21.0909 33.5379 22.0145C33.4396 22.4317 33.3096 23.0091 33.2484 23.2974C33.1849 23.5857 33.1108 23.9158 33.0783 24.0312C33.0405 24.1464 32.9853 24.4139 32.9445 24.6251C32.8991 24.8364 32.8236 25.2139 32.7654 25.4635C32.7109 25.7134 32.6297 26.0592 32.5934 26.2322C32.5556 26.405 32.4596 26.8454 32.3779 27.2105C31.9725 29.016 32.0903 29.8885 32.7871 30.2257C33.3874 30.5164 34.1733 30.282 34.8494 29.6118C35.3016 29.1637 35.7825 28.2401 35.9735 27.455C36.037 27.1859 36.1299 26.8244 36.1753 26.6515C36.3144 26.1249 36.2838 23.3842 36.13 22.7035C35.9553 21.9271 35.7781 21.4103 35.4851 20.8272C35.0701 20.0019 34.9966 19.9027 34.3005 19.2339C32.6 17.6011 29.2726 17.1706 26.3695 18.2078C23.7466 19.145 21.917 21.3285 21.1681 24.4155C20.7051 26.3236 20.7662 28.7202 21.32 30.3548C22.1477 32.7988 23.9619 34.1814 26.7446 34.488C27.4895 34.57 29.4643 34.5258 29.9685 34.4128C30.1223 34.3826 30.3898 34.3202 30.5625 34.2828C30.7352 34.245 31.0609 34.1641 31.2865 34.1032C31.8122 33.9607 31.9277 34.0186 31.9932 34.4585C32.0197 34.6422 32.0661 34.8259 32.1043 34.8672C32.1859 34.9685 31.9849 35.2468 31.8284 35.2468C31.7649 35.2468 31.5657 35.2876 31.3953 35.3421C30.7667 35.5356 30.3638 35.6077 29.3739 35.7045C28.1862 35.8201 27.2566 35.8177 26.1921 35.6998ZM27.4897 30.0338C28.1118 29.8509 28.6361 29.4061 29.3347 28.4684C30.0032 27.571 30.4144 26.7337 30.6556 25.7782C30.9829 24.4813 31.012 24.2902 31.0131 23.4262C31.0139 22.5454 31.013 22.5406 30.8023 22.2804C30.3093 21.6716 29.1843 21.6828 28.2297 22.3069C27.3456 22.8844 26.7676 23.8262 26.2287 25.5693C26.0333 26.2024 25.8686 27.74 25.923 28.4342C25.9959 29.3548 26.2775 29.8828 26.7834 30.0387C26.958 30.0924 27.1028 30.1385 27.1054 30.1411C27.1081 30.1438 27.2814 30.0951 27.4897 30.0338Z" fill="black"/>
</svg>
