<?xml version="1.0" encoding="UTF-8" standalone="no"?>
<!-- Created with Inkscape (http://www.inkscape.org/) -->

<svg
   version="1.1"
   id="svg80"
   width="512"
   height="512"
   viewBox="0 0 512 512"
   sodipodi:docname="logo1.svg"
   inkscape:version="1.3 (0e150ed6c4, 2023-07-21)"
   inkscape:export-filename="logo1.png"
   inkscape:export-xdpi="187.5"
   inkscape:export-ydpi="187.5"
   xmlns:inkscape="http://www.inkscape.org/namespaces/inkscape"
   xmlns:sodipodi="http://sodipodi.sourceforge.net/DTD/sodipodi-0.dtd"
   xmlns="http://www.w3.org/2000/svg"
   xmlns:svg="http://www.w3.org/2000/svg"
   xmlns:rdf="http://www.w3.org/1999/02/22-rdf-syntax-ns#"
   xmlns:cc="http://creativecommons.org/ns#"
   xmlns:dc="http://purl.org/dc/elements/1.1/">
  <metadata
     id="metadata86">
    <rdf:RDF>
      <cc:Work
         rdf:about="">
        <dc:format>image/svg+xml</dc:format>
        <dc:type
           rdf:resource="http://purl.org/dc/dcmitype/StillImage" />
      </cc:Work>
    </rdf:RDF>
  </metadata>
  <defs
     id="defs84">
    <clipPath
       clipPathUnits="userSpaceOnUse"
       id="clipPath27972">
      <rect
         style="opacity:1;fill:#ffff00;fill-opacity:1;fill-rule:evenodd;stroke:none;stroke-width:3.77952766;stroke-linecap:square;stroke-miterlimit:4;stroke-dasharray:none;stroke-opacity:1;paint-order:markers stroke fill"
         id="rect27974"
         width="611.50812"
         height="483.73584"
         x="-419.59442"
         y="674.77454" />
    </clipPath>
    <clipPath
       clipPathUnits="userSpaceOnUse"
       id="clipPath107">
      <g
         id="g107"
         transform="matrix(0.17660893,0,0,0.17660893,-148.38929,300.84341)">
        <rect
           y="-1528.3556"
           x="938.93964"
           height="1122.5197"
           width="793.70081"
           id="rect107"
           style="fill:#032050;fill-opacity:1;stroke-width:0.999999" />
      </g>
    </clipPath>
    <clipPath
       clipPathUnits="userSpaceOnUse"
       id="clipPath104">
      <g
         id="g104">
        <rect
           y="-1528.3556"
           x="938.93964"
           height="1122.5197"
           width="793.70081"
           id="rect104"
           style="fill:#032050;fill-opacity:1;stroke-width:0.999999" />
      </g>
    </clipPath>
    <clipPath
       clipPathUnits="userSpaceOnUse"
       id="clipPath105">
      <g
         id="g105"
         transform="matrix(0.58290572,0,0,0.58290572,-671.03249,848.76237)">
        <rect
           y="-1528.3556"
           x="938.93964"
           height="1122.5197"
           width="793.70081"
           id="rect105"
           style="fill:#032050;fill-opacity:1;stroke-width:0.999999" />
      </g>
    </clipPath>
    <clipPath
       clipPathUnits="userSpaceOnUse"
       id="clipPath102">
      <g
         id="g102"
         transform="matrix(0.24997468,0,0,0.24997468,-242.50798,364.14657)">
        <rect
           y="-1528.3556"
           x="938.93964"
           height="1122.5197"
           width="793.70081"
           id="rect102"
           style="fill:#032050;fill-opacity:1;stroke-width:0.999999" />
      </g>
    </clipPath>
    <clipPath
       clipPathUnits="userSpaceOnUse"
       id="clipPath103">
      <g
         id="g103">
        <rect
           y="-1528.3556"
           x="938.93964"
           height="1122.5197"
           width="793.70081"
           id="rect103"
           style="fill:#032050;fill-opacity:1;stroke-width:0.999999" />
      </g>
    </clipPath>
  </defs>
  <sodipodi:namedview
     pagecolor="#ffffff"
     bordercolor="#666666"
     borderopacity="1"
     objecttolerance="10"
     gridtolerance="10"
     guidetolerance="10"
     inkscape:pageopacity="0"
     inkscape:pageshadow="2"
     inkscape:window-width="1366"
     inkscape:window-height="699"
     id="namedview82"
     showgrid="false"
     inkscape:zoom="0.64"
     inkscape:cx="304.6875"
     inkscape:cy="196.875"
     inkscape:window-x="0"
     inkscape:window-y="32"
     inkscape:window-maximized="1"
     inkscape:current-layer="svg80"
     inkscape:showpageshadow="2"
     inkscape:pagecheckerboard="0"
     inkscape:deskcolor="#d1d1d1" />
  <path
     style="opacity:1;fill:#ffff00;fill-opacity:1;fill-rule:evenodd;stroke:none;stroke-width:3.77952766;stroke-linecap:square;stroke-miterlimit:4;stroke-dasharray:none;stroke-opacity:1;paint-order:markers stroke fill"
     d=""
     id="path11619"
     inkscape:connector-curvature="0" />
  <path
     style="opacity:1;fill:#ffff00;fill-opacity:1;fill-rule:evenodd;stroke:#ffff00;stroke-width:3.77952766;stroke-linecap:square;stroke-miterlimit:4;stroke-dasharray:none;stroke-opacity:1;paint-order:markers stroke fill"
     d=""
     id="path11633"
     inkscape:connector-curvature="0" />
  <g
     id="g1">
    <path
       inkscape:connector-curvature="0"
       id="path4782"
       d="m 1091.1228,-1268.1712 c -0.267,-0.6773 -0.8348,-2.2389 -1.2619,-3.4703 l -0.7765,-2.2389 -4.6602,-0.3265 c -4.0099,-0.2809 -5.0613,-0.5309 -7.5343,-1.7912 -3.3617,-1.713 -5.4437,-4.353 -6.5826,-8.3465 -0.3956,-1.3868 -1.0826,-3.126 -1.5268,-3.8649 -1.3521,-2.2489 -2.8469,-9.1795 -1.9799,-9.1795 1.0385,0 2.889,1.511 2.8932,2.3623 0.01,1.2956 1.0663,4.7681 2.0161,6.6048 0.4114,0.7957 1.0404,2.4312 1.3978,3.6345 1.3177,4.4372 4.3225,6.462 10.2555,6.9109 2.6989,0.2042 3.3942,0.1255 3.5984,-0.4065 0.2793,-0.7278 -2.368,-7.4637 -2.9333,-7.4637 -0.5876,0 -3.5926,3.5372 -3.5926,4.2288 0,1.021 -0.8416,1.2756 -2.2659,0.6856 -2.3435,-0.9707 -1.3526,-3.7901 2.4488,-6.9677 1.1308,-0.9452 2.056,-1.912 2.056,-2.1483 0,-0.6121 -2.2585,-6.2203 -2.7514,-6.832 -0.2445,-0.3036 -1.9229,-0.5233 -4.1383,-0.5417 -6.6727,-0.055 -10.8457,-2.3957 -13.2484,-7.4302 -0.7455,-1.562 -1.3554,-3.1705 -1.3554,-3.5744 0,-0.404 -0.5106,-1.7421 -1.1347,-2.9736 -1.3801,-2.7236 -2.1323,-9.3784 -1.0587,-9.3666 1.1811,0.014 1.5964,0.669 2.121,3.3515 0.289,1.4777 1.0087,3.8957 1.5994,5.3734 0.5906,1.4776 1.4113,3.6417 1.8236,4.8089 0.8774,2.4831 3.4105,4.8694 5.9894,5.642 0.954,0.2858 3.0713,0.5197 4.7051,0.5197 3.3022,0 3.5087,-0.2523 2.3269,-2.8429 -0.354,-0.776 -0.9483,-2.1666 -1.3205,-3.0902 -0.3732,-0.9258 -0.9878,-1.6792 -1.37,-1.6792 -0.9036,0 -4.2781,3.0525 -4.2781,3.8698 0,0.5287 -0.2178,0.5184 -1.3434,-0.064 -1.5,-0.7757 -1.6463,-1.4736 -0.6945,-3.3141 0.6489,-1.2548 3.0586,-3.5963 4.5857,-4.4559 0.7732,-0.4352 0.7616,-0.5968 -0.2516,-3.5076 -1.7511,-5.0306 -1.7395,-5.0206 -5.7615,-5.013 -7.6475,0.014 -12.1241,-2.9668 -14.4677,-9.6348 -0.4978,-1.4163 -1.3919,-3.3158 -1.9869,-4.2211 -1.255,-1.9093 -1.995,-4.7813 -2.0105,-7.803 -0.012,-2.262 0.2647,-2.4609 2.5638,-1.8447 0.8753,0.2345 1.0101,0.5716 1.0272,2.5686 0.011,1.2642 0.3264,3.1046 0.7013,4.0898 0.375,0.9851 1.0342,3.1338 1.465,4.7749 1.4987,5.7097 4.0436,7.633 10.4638,7.9081 2.787,0.1194 3.9181,0.017 3.9181,-0.3556 0,-1.1627 -2.8105,-7.1779 -3.3537,-7.1779 -0.7283,0 -3.1809,2.7509 -3.5835,4.0193 -0.2283,0.7193 -0.5305,0.874 -1.2709,0.6508 -0.5343,-0.1611 -1.1185,-0.4275 -1.2983,-0.592 -0.7489,-0.6849 0.7005,-3.7244 2.8076,-5.8876 1.2216,-1.2541 2.2221,-2.5187 2.2234,-2.8101 0,-0.2915 -0.6152,-2.0652 -1.37,-3.9417 l -1.3725,-3.4117 -4.3392,-0.2477 c -5.3724,-0.3067 -7.2165,-0.9004 -9.7655,-3.1441 -2.1722,-1.9121 -3.3584,-3.8955 -4.2009,-7.0243 -0.2978,-1.1055 -0.9464,-2.8042 -1.4416,-3.7749 -0.7476,-1.4653 -1.8702,-8.5795 -1.441,-9.1319 0.062,-0.08 0.7067,0.1621 1.4327,0.5376 1.1543,0.597 1.3518,0.9902 1.5728,3.1322 0.1414,1.3696 0.861,3.6961 1.6322,5.2769 0.7586,1.555 1.3793,3.0902 1.3793,3.4115 0,0.9589 1.6277,3.8369 2.7551,4.8715 1.4977,1.3744 3.9569,2.2873 6.4832,2.4065 3.36,0.1585 4.1952,0.037 4.1952,-0.6072 0,-0.7646 -2.191,-6.2144 -2.72,-6.7656 -0.5666,-0.5904 -2.371,1.2143 -3.3214,3.322 l -0.7819,1.7339 -1.514,-0.722 c -0.8326,-0.3971 -1.5139,-0.8766 -1.5139,-1.0657 0,-1.0569 1.3363,-3.1406 3.4063,-5.3115 l 2.3483,-2.4628 -1.4459,-3.5823 -1.446,-3.5823 -4.23,-0.2756 c -2.3265,-0.1517 -4.8517,-0.4807 -5.6117,-0.7313 -3.4595,-1.1406 -6.3281,-4.0371 -7.5873,-7.6611 -0.3973,-1.1433 -1.1352,-3.0862 -1.6397,-4.3176 -1.2477,-3.045 -2.0151,-5.9043 -2.3899,-8.9043 -0.3459,-2.7682 0.045,-3.1364 1.9283,-1.8171 0.6759,0.4734 0.9952,1.1568 0.9952,2.1299 0,0.7881 0.1903,2.036 0.4228,2.7732 1.0169,3.2237 3.662,9.0691 4.687,10.358 1.5388,1.935 4.514,3.2671 8.0303,3.5954 2.48,0.2316 3.0043,0.1591 3.2373,-0.4483 0.2847,-0.7419 -1.8943,-6.8671 -2.5974,-7.3017 -0.5512,-0.3406 -3.4248,2.8172 -3.7527,4.1238 -0.3173,1.2641 -0.2469,1.2409 -1.7222,0.5687 -0.6273,-0.2859 -1.1406,-0.8095 -1.1406,-1.1638 0,-1.3751 1.5489,-3.7959 3.4906,-5.4557 l 2.0312,-1.7362 -1.575,-4.1821 -1.5749,-4.1822 -4.4712,-0.2475 c -7.4265,-0.4111 -10.8413,-2.7065 -13.1312,-8.8269 -0.5119,-1.368 -1.3541,-3.0819 -1.8716,-3.8087 -1.5162,-2.1294 -2.8809,-10.1777 -1.7258,-10.1777 0.2347,0 0.8964,0.2141 1.4704,0.4756 0.8358,0.3808 1.156,1.0675 1.6074,3.4475 0.3101,1.6345 0.7517,3.1983 0.9814,3.4751 0.2296,0.2767 0.7477,1.7982 1.1511,3.3811 0.4035,1.583 1.0058,3.4082 1.3384,4.0562 0.9273,1.8063 3.1258,3.4302 5.665,4.1842 2.6494,0.7868 6.8713,0.9058 7.3039,0.2059 0.4472,-0.7237 -2.4838,-8.4788 -3.2046,-8.4788 -0.7357,0 -3.224,3.3225 -3.5948,4.8002 -0.2077,0.8273 -0.4647,0.9855 -1.2187,0.7504 -1.3425,-0.4186 -1.5901,-0.9844 -1.131,-2.5851 0.2197,-0.7658 0.3993,-1.4561 0.3993,-1.534 0,-0.078 1.0365,-1.2377 2.3033,-2.5771 l 2.3032,-2.4353 -1.4717,-3.8068 -1.4718,-3.8068 h -3.6608 c -7.5262,0 -12.5156,-2.762 -14.7801,-8.1818 -0.9056,-2.1672 -0.88,-2.3327 0.455,-2.9409 1.7027,-0.7758 1.7905,-0.7206 3.0956,1.9468 1.3898,2.8407 3.3412,4.5056 6.3377,5.4075 2.8014,0.8431 6.8896,0.8523 6.8896,0.015 0,-0.8098 -2.1925,-6.6556 -2.6864,-7.1626 -0.6045,-0.6204 -3.4165,1.3738 -4.0319,2.8595 -0.6472,1.5625 -0.8953,1.6205 -2.2475,0.5256 -0.9967,-0.8071 -0.9983,-0.8278 -0.1955,-2.5195 0.4565,-0.962 1.7396,-2.374 2.9427,-3.2384 l 2.1333,-1.5326 -0.602,-1.6571 c -0.3311,-0.9113 -0.9369,-2.4392 -1.3463,-3.3951 -0.4094,-0.956 -0.5794,-1.8863 -0.3778,-2.0673 0.2015,-0.181 7.5198,-3.0593 16.2627,-6.3962 8.7429,-3.3369 27.2811,-10.4433 41.196,-15.7921 13.9148,-5.3488 34.1657,-13.1306 45.0021,-17.293 10.8363,-4.1624 20.4376,-7.8534 21.3363,-8.2022 1.6044,-0.6228 1.6421,-0.6125 2.0941,0.5754 0.253,0.6653 1.6969,4.5344 3.2085,8.5981 1.5115,4.0636 3.0246,8.0936 3.3625,8.9556 0.3378,0.862 1.8491,4.892 3.3583,8.9557 1.5093,4.0636 3.0243,8.0936 3.3666,8.9556 1.4457,3.6396 13.6831,36.0202 24.7074,65.3762 6.5204,17.3627 15.0789,40.0048 19.0189,50.3157 3.94,10.3109 6.9957,18.907 6.7904,19.1026 -0.3888,0.3703 -9.4795,3.9822 -18.7324,7.4425 -2.9554,1.1053 -6.2951,2.3893 -7.4216,2.8534 -1.1266,0.4641 -3.0409,1.1757 -4.254,1.5814 -1.2131,0.4056 -2.8101,0.9992 -3.549,1.3191 -0.7388,0.3198 -10.2094,3.9484 -21.0457,8.0635 -18.1014,6.8739 -41.2807,15.8159 -43.4349,16.756 -0.4926,0.215 -1.6008,0.643 -2.4628,0.9511 -0.862,0.308 -2.1717,0.8109 -2.9106,1.1175 -5.446,2.2598 -19.5354,7.3683 -20.3219,7.3683 -0.6419,0 -1.134,-0.4164 -1.4552,-1.2314 z m 12.4325,-8.2158 c 5.8784,-2.2406 11.9977,-4.5372 13.5985,-5.1036 1.6009,-0.5663 9.0564,-3.3483 16.568,-6.1821 7.5115,-2.8339 19.8542,-7.4866 27.4281,-10.3395 7.5739,-2.8528 16.037,-6.0761 18.8069,-7.1627 2.7698,-1.0867 9.4691,-3.6277 14.8872,-5.6468 16.3176,-6.0807 16.7919,-6.2793 16.7919,-7.0349 0,-0.8638 -20.1654,-54.2566 -29.645,-78.4922 -0.7225,-1.8472 -1.4733,-3.8622 -1.6685,-4.4779 -0.1953,-0.6157 -0.7721,-2.1269 -1.2818,-3.3583 -0.5098,-1.2314 -2.2746,-5.866 -3.9218,-10.299 -5.2301,-14.0756 -23.5786,-62.3396 -24.3434,-64.0329 -0.2225,-0.4925 -0.5252,-1.2691 -0.6727,-1.7256 -0.1476,-0.4566 -0.5185,-0.7261 -0.8243,-0.599 -0.3058,0.1271 -5.8957,2.2816 -12.4221,4.7878 -6.5265,2.5062 -13.176,5.0678 -14.7769,5.6925 -4.7798,1.8652 -7.6282,2.9501 -22.1652,8.4421 -7.6347,2.8843 -20.027,7.6127 -27.5386,10.5074 -7.5115,2.8947 -18.4934,7.1177 -24.4041,9.3843 -5.9107,2.2667 -11.9558,4.5892 -13.4335,5.1611 -1.4776,0.5719 -3.0607,1.1588 -3.5178,1.3043 -0.6537,0.208 -0.7657,0.5264 -0.5248,1.4917 0.6314,2.5302 1.2444,2.7702 4.6143,1.8073 7.0154,-2.0048 11.9982,0.3087 12.5275,5.8164 0.2821,2.9361 -0.7549,5.0519 -3.4104,6.9584 -2.1177,1.5204 -4.9734,2.9891 -5.8119,2.9891 -0.2561,0 -0.5762,0.1789 -0.7113,0.3975 -0.2488,0.4026 2.1708,6.6852 2.8275,7.342 0.1961,0.196 1.3312,0.1381 2.5224,-0.1289 7.9825,-1.7889 13.2085,0.3562 13.1978,5.4174 -0.01,3.917 -3.8646,8.6061 -8.1282,9.8835 -0.9454,0.2832 -1.7188,0.6793 -1.7188,0.8802 0,0.5359 2.6994,7.2732 3.0664,7.6531 0.1721,0.1781 2.0619,0 4.1997,-0.3898 8.0252,-1.4736 11.7771,0.6534 12.2897,6.9671 0.1611,1.9835 0.015,2.8011 -0.7059,3.9439 -1.2995,2.0611 -4.3184,4.0955 -7.3124,4.9279 -1.4201,0.3949 -2.5819,0.8842 -2.5819,1.0875 0,0.5481 2.3161,6.3415 2.7736,6.9378 0.2913,0.3796 1.12,0.2929 3.1761,-0.3324 3.9697,-1.2073 8.2672,-1.1385 10.2162,0.1635 2.1553,1.4398 3.1986,3.6482 2.8874,6.1116 -0.5077,4.0178 -4.7394,8.6975 -8.3933,9.2818 -0.9483,0.1517 -1.7995,0.4004 -1.8915,0.5527 -0.1994,0.3304 2.326,6.8228 2.8724,7.3847 0.2159,0.2219 2.0358,0.062 4.2118,-0.3695 7.7141,-1.5307 12.0575,0.8993 12.0053,6.7165 -0.038,4.3164 -3.4943,8.4942 -8.0436,9.7249 -1.0467,0.2831 -1.9031,0.7798 -1.9031,1.1038 0,0.3239 0.6399,2.1134 1.4219,3.9765 1.3956,3.3246 1.4474,3.3826 2.7986,3.1298 7.3955,-1.3836 9.8829,-1.2806 12.2736,0.5085 1.7071,1.2775 3.2083,4.3951 3.2083,6.6626 0,4.2282 -3.5512,7.5386 -9.5154,8.8702 -1.5185,0.339 -1.5249,0.7184 -0.073,4.3227 1.3671,3.393 1.7318,3.8584 2.5165,3.2116 0.3183,-0.2623 1.7743,-0.6971 3.2357,-0.9661 8.2352,-1.5161 12.1102,0.7619 12.1168,7.1231 0,2.4871 -0.1757,3.1442 -1.2248,4.5154 -1.2537,1.6386 -4.7802,3.6427 -7.3916,4.2005 -1.3043,0.2786 -1.4254,0.4346 -1.1695,1.5067 0.356,1.4914 0.5635,1.8676 1.0304,1.8676 0.2026,0 5.1778,-1.8333 11.0562,-4.0739 z"
       style="fill:#f9f9f9;fill-opacity:1;fill-rule:evenodd;stroke:none;stroke-width:1.71554;stroke-linecap:square;stroke-miterlimit:4;stroke-dasharray:none;stroke-opacity:1;paint-order:markers stroke fill"
       clip-path="url(#clipPath104)"
       transform="matrix(2.1088992,0,0,2.1088992,-2098.3106,3158.4549)" />
    <path
       style="fill:#f9f9f9;fill-opacity:1;stroke:#000080;stroke-width:0.453906;stroke-opacity:1"
       d="m 1130.5585,-1312.1147 c -3.0849,0.9645 -5.7017,1.3004 -7.5723,0.972 -2.1903,-0.3844 -3.8075,-1.5828 -5.5246,-4.0936 -1.3248,-1.9373 -1.5867,-2.5265 -4.5927,-10.3308 -2.8565,-7.4161 -3.1808,-8.1648 -4.1544,-9.5897 -1.0407,-1.5231 -2.072,-2.2405 -3.4682,-2.4126 -1.2509,-0.1543 -2.1212,0.01 -4.4442,0.8122 l -2.0272,0.7046 -1.2517,-3.3526 -1.2516,-3.3525 2.0918,-0.8347 c 1.7169,-0.6851 2.2168,-0.9242 2.7892,-1.334 1.7904,-1.2816 2.3387,-2.559 2.0903,-4.8703 -0.1784,-1.6599 -0.4499,-2.5205 -3.1601,-10.0173 -2.8466,-7.8738 -3.0316,-8.4805 -3.3024,-10.8292 -0.5334,-4.6253 0.7669,-7.0065 5.2705,-9.651 0.6303,-0.3701 1.7028,-0.8398 3.7668,-1.6498 l 2.8856,-1.1321 1.2641,3.386 1.264,3.3859 -2.159,0.806 c -3.8752,1.4468 -5.0196,2.4644 -4.9485,4.387 0.06,1.621 0.2737,2.3174 3.1462,10.2526 2.2473,6.2079 2.745,7.6647 2.94,8.607 0.7446,3.5968 0.4417,6.1098 -0.9684,8.0362 l -0.4757,0.6498 0.5628,0.1188 c 2.0184,0.4256 3.9179,1.8464 5.3017,3.9653 1.1759,1.8007 1.3915,2.2958 4.3511,9.991 3.0392,7.9026 3.3211,8.538 4.3593,9.8279 0.7417,0.9214 1.5352,1.2027 3.0254,1.0723 0.6342,-0.056 1.2115,-0.2162 2.9651,-0.8253 l 2.1776,-0.7563 0.1623,0.4347 c 0.1556,0.4168 0.1746,0.4301 0.4601,0.3235 l 0.2978,-0.1111 1.1118,2.978 1.1118,2.978 -1.7688,0.6394 c -0.9729,0.3517 -2.0196,0.7178 -2.3259,0.8136 z m 27.4631,-14.9004 -1.2598,-3.3746 2.3885,-0.9486 c 1.9924,-0.7914 2.5022,-1.0297 3.0736,-1.4372 1.6766,-1.1956 1.9149,-1.9077 1.4981,-4.4757 -0.05,-0.3066 -1.2441,-3.74 -2.7701,-7.9636 -1.6044,-4.4405 -2.7855,-7.8408 -2.9383,-8.4602 -1.0064,-4.0765 -0.8028,-6.6029 0.7102,-8.8116 l 0.4974,-0.7262 -0.5976,-0.148 c -2.2362,-0.554 -3.948,-1.9058 -5.4338,-4.2912 -1.1893,-1.9093 -1.5354,-2.7087 -4.4472,-10.272 -2.2946,-5.9602 -2.8987,-7.4496 -3.2564,-8.0283 -1.0045,-1.625 -1.5995,-2.1073 -2.7407,-2.221 -1.1384,-0.1134 -2.0633,0.079 -4.6247,0.9606 l -2.28,0.7851 -1.255,-3.3616 -1.255,-3.3616 1.6627,-0.6207 c 7.0683,-2.6318 11.0752,-2.6049 13.8133,0.1012 1.1251,1.1118 2.0368,2.4159 3.1668,4.5294 0.5159,0.965 1.1366,2.4959 3.4254,8.4479 3.0125,7.834 3.1477,8.135 4.3353,9.6547 0.9316,1.1921 1.8256,1.7036 3.1635,1.8099 1.1538,0.092 2.0149,-0.081 4.2934,-0.8596 l 2.0812,-0.7115 1.2551,3.3618 1.2551,3.3618 -1.8608,0.6961 c -1.4251,0.5335 -2.0546,0.818 -2.6888,1.2163 -2.2896,1.4382 -2.8454,2.9667 -2.2892,6.2958 0.1274,0.7625 0.5734,2.0743 2.832,8.3303 2.6243,7.2688 2.8624,8.0077 3.2856,10.1967 0.7581,3.9204 0.105,6.6885 -2.0581,8.7231 -1.6306,1.5337 -3.1981,2.4148 -6.8368,3.8433 l -2.8854,1.1328 -1.2598,-3.3746 z m -10.923,-10.4749 c -2.6171,0.3902 -4.8017,-0.4521 -7.2182,-2.7832 -1.0961,-1.0572 -2.8326,-3.238 -4.2443,-5.3303 -0.6538,-0.9689 -1.295,-1.9185 -1.425,-2.1101 l -0.2362,-0.3485 -0.2354,1.6556 c -1.4268,10.0389 -3.65,14.9658 -7.3864,16.3691 -1.4737,0.5537 -2.9374,0.4714 -4.386,-0.246 -1.2442,-0.6161 -2.0075,-1.4538 -2.4862,-2.7287 -0.8333,-2.2186 0.01,-4.819 2.1239,-6.56 l 0.4775,-0.3931 2.2852,1.4045 2.2852,1.4046 0.3224,-0.4808 c 0.1773,-0.2645 0.593,-1.0272 0.9237,-1.6951 1.3847,-2.7964 2.3557,-6.2996 2.8741,-10.3695 l 0.2086,-1.6371 -1.3693,-1.775 c -1.803,-2.3374 -3.773,-4.7541 -5.1301,-6.2936 -1.062,-1.2048 -2.9387,-3.056 -3.3659,-3.3202 -0.1828,-0.113 -0.6131,-0.014 -3.4608,0.8032 -1.7886,0.5128 -3.3145,0.9355 -3.3909,0.9393 -0.1012,0.01 -0.2635,-0.3274 -0.6001,-1.2288 l -0.4613,-1.2357 4.324,-3.4899 c 4.5818,-3.698 4.7389,-3.8034 5.8982,-3.9559 1.5818,-0.2081 3.2316,0.5295 4.9159,2.1981 1.3217,1.3094 3.5727,4.2287 5.7905,7.5099 0.3945,0.5837 0.7431,1.0516 0.7747,1.0397 0.032,-0.012 0.093,-0.3783 0.1368,-0.8145 0.1323,-1.3234 0.6102,-4.0669 1.0276,-5.8973 1.1228,-4.9252 2.7016,-8.0639 4.9378,-9.8164 0.841,-0.6591 2.3214,-1.2217 3.2421,-1.2322 1.5861,-0.018 3.0309,0.7354 3.9843,2.0777 0.4294,0.6048 0.9796,2.0923 1.0533,2.8479 0.1869,1.9171 -0.6544,3.935 -2.2333,5.3547 -0.2518,0.2265 -0.5192,0.4112 -0.5944,0.4105 -0.075,-9e-4 -1.0444,-0.621 -2.154,-1.3784 -1.1096,-0.7574 -2.0433,-1.3914 -2.0748,-1.4089 -0.099,-0.055 -0.7633,0.755 -1.2563,1.5305 -1.5277,2.4032 -2.5547,6.1832 -2.961,10.8985 l -0.055,0.6427 1.3563,1.8688 c 5.4796,7.5501 7.3654,9.6355 9.5247,10.5333 1.5221,0.6328 2.563,0.5672 4.5708,-0.288 1.1503,-0.4899 2.307,-1.1136 2.84,-1.5312 0.1579,-0.1237 0.1892,-0.062 0.6861,1.3491 l 0.5208,1.4788 -1.1002,0.8401 c -1.5775,1.2048 -3.6258,2.6354 -4.7995,3.3522 -1.2968,0.792 -3.4834,1.694 -4.4594,1.8395 z"
       id="path4786"
       inkscape:connector-curvature="0"
       clip-path="url(#clipPath103)"
       transform="matrix(2.1088992,0,0,2.1088992,-2098.3106,3158.4549)" />
    <g
       id="g88754"
       style="fill:#f9f9f9;fill-opacity:1"
       transform="matrix(8.4364513,0,0,8.4364513,-52.403863,86.350058)"
       clip-path="url(#clipPath102)">
      <path
         inkscape:connector-curvature="0"
         id="path11639"
         d="M 39.684539,10.096758 C 39.426895,10.046428 39.334205,9.999098 39.176191,9.837162 38.815977,9.468014 38.322223,8.468075 37.640536,6.727181 37.319483,5.907274 37.228833,5.717018 37.087519,5.566511 36.923807,5.392153 36.74108,5.398137 36.36352,5.590221 c -0.06461,0.03288 -0.137024,0.05976 -0.160921,0.05976 -0.04136,0 -0.04293,-0.0053 -0.03269,-0.10993 0.01637,-0.16711 0.05261,-0.268376 0.78334,-2.188811 0.09897,-0.260119 0.184407,-0.473049 0.189852,-0.47318 0.0054,-1.15e-4 0.06939,0.148172 0.142112,0.329558 0.289407,0.721867 0.364068,0.835552 0.559353,0.85169 0.148702,0.01229 0.265885,-0.01704 0.688994,-0.172421 0.200459,-0.07361 0.434735,-0.151271 0.520609,-0.172558 0.153618,-0.03808 0.157324,-0.03812 0.229767,-0.0027 0.09519,0.04659 0.201367,0.220204 0.213847,0.349658 0.02101,0.21778 -0.110084,0.308917 -1.012181,0.703749 -0.226839,0.09928 -0.420192,0.188007 -0.42968,0.197166 -0.01003,0.0097 0.05894,0.197341 0.166545,0.452566 0.221105,0.524416 0.305055,0.734335 0.637082,1.593048 0.314438,0.813223 0.421479,1.069568 0.569455,1.363769 0.214031,0.425526 0.40723,0.664547 0.621998,0.769513 0.101814,0.04976 0.13226,0.05529 0.304933,0.05529 0.227059,5e-6 0.348202,-0.03306 0.713298,-0.194608 0.279956,-0.123885 0.371091,-0.140602 0.460697,-0.08451 0.116533,0.07294 0.350501,0.403951 0.350866,0.49641 3.68e-4,0.07438 -0.119833,0.162909 -0.429259,0.316335 -0.311155,0.15428 -0.646257,0.274952 -0.935081,0.336741 -0.236165,0.05052 -0.650337,0.06543 -0.831921,0.02998 z"
         style="fill:#f9f9f9;fill-opacity:1;fill-rule:evenodd;stroke:none;stroke-width:0.428842;stroke-linecap:square;stroke-miterlimit:4;stroke-dasharray:none;stroke-opacity:1;paint-order:markers stroke fill" />
      <path
         inkscape:export-ydpi="95"
         inkscape:export-xdpi="95"
         inkscape:connector-curvature="0"
         id="path11641"
         d="M 44.007494,8.607446 C 43.83461,8.545666 43.720868,8.357581 43.466586,7.713019 43.268868,7.211835 42.516984,5.32752 42.153857,4.42317 41.435742,2.634733 41.047199,1.553206 41.047199,1.342732 c 0,-0.04195 0.0046,-0.04859 0.05523,-0.08112 0.07072,-0.04538 0.200502,-0.0989 0.325059,-0.13404 0.202987,-0.05727 0.265525,-0.05053 0.34744,0.03747 0.07346,0.07892 0.138631,0.214557 0.303114,0.630863 0.204081,0.51655 0.336323,0.841961 0.475303,1.169598 0.17154,0.404396 0.456566,1.048606 0.463935,1.048576 0.0034,-1.1e-5 0.08107,-0.146503 0.17251,-0.325528 0.174616,-0.341888 0.242034,-0.459272 0.331301,-0.576847 0.07037,-0.0927 0.255733,-0.283139 0.343679,-0.35311 0.244582,-0.194585 0.529393,-0.329697 0.831115,-0.394271 0.167363,-0.03581 0.508426,-0.03856 0.66061,-0.0053 0.422902,0.09239 0.767374,0.326369 0.960765,0.652593 0.454915,0.767386 1.713355,3.696104 1.713355,3.987428 0,0.0275 -0.01158,0.03608 -0.112358,0.08334 -0.195042,0.09144 -0.406809,0.181085 -0.458466,0.194091 -0.116676,0.02937 -0.185376,-0.03707 -0.31707,-0.306664 C 47.036279,6.751898 46.971334,6.593399 46.680181,5.840904 46.283914,4.816752 46.135028,4.47286 45.926705,4.100558 45.651062,3.60794 45.369631,3.329856 45.063243,3.247362 c -0.169787,-0.04571 -0.447359,-0.03031 -0.641051,0.03556 -0.409343,0.139221 -0.789786,0.551884 -0.935729,1.014982 -0.05177,0.164244 -0.07005,0.284865 -0.06968,0.459474 2.49e-4,0.137724 0.0051,0.17982 0.03241,0.287763 0.06811,0.268639 0.287449,0.863401 0.668771,1.813412 0.301219,0.750448 0.396118,1.007321 0.45043,1.219233 0.07794,0.304069 0.0479,0.401492 -0.14695,0.47663 -0.173052,0.06674 -0.32219,0.08585 -0.413932,0.05307 z"
         style="fill:#f9f9f9;fill-opacity:1;fill-rule:evenodd;stroke:none;stroke-width:0.428842;stroke-linecap:square;stroke-miterlimit:4;stroke-dasharray:none;stroke-opacity:1;paint-order:markers stroke fill" />
      <path
         inkscape:connector-curvature="0"
         id="path25-9"
         d="m 24.435017,16.172228 c -0.05813,-0.120098 -0.10571,-0.257023 -0.10571,-0.30426 0,-0.04724 -0.01944,-0.125445 -0.04313,-0.173771 -0.02374,-0.04833 -0.08318,-0.178934 -0.132101,-0.290249 -0.04891,-0.111298 -0.109195,-0.24192 -0.133937,-0.290245 -0.02472,-0.04831 -0.04499,-0.1288 -0.04499,-0.178836 0,-0.08958 -0.164724,-0.594415 -0.24834,-0.761088 -0.02355,-0.04695 -0.07001,-0.176412 -0.10326,-0.287732 -0.05467,-0.183021 -0.144555,-0.403271 -0.263002,-0.644421 -0.02374,-0.04833 -0.04327,-0.139405 -0.04347,-0.202388 -1.28e-4,-0.06299 -0.03432,-0.17975 -0.0759,-0.259454 -0.04156,-0.07972 -0.07558,-0.18652 -0.07558,-0.237348 0,-0.05084 -0.02276,-0.106498 -0.0506,-0.1237 -0.0278,-0.01719 -0.05073,-0.06978 -0.05091,-0.116829 -1.28e-4,-0.04705 -0.03431,-0.150776 -0.0759,-0.23048 -0.04156,-0.07972 -0.07558,-0.172974 -0.07558,-0.20726 0,-0.05855 -0.09909,-0.296901 -0.205641,-0.494627 -0.02605,-0.04831 -0.04734,-0.127534 -0.04734,-0.176014 0,-0.04852 -0.05833,-0.248013 -0.129624,-0.443411 C 22.242389,9.961893 22.137587,9.679509 22.078919,9.534709 21.920676,9.144134 21.891009,9.000162 21.953305,8.925104 c 0.03354,-0.04039 0.09069,-0.07344 0.127039,-0.07344 0.03633,0 0.09618,-0.03006 0.132943,-0.06676 0.06639,-0.06628 0.156979,-0.100557 0.496933,-0.188037 l 0.177091,-0.04558 1.872083,1.896137 c 1.563339,1.583419 1.895035,1.896067 2.01123,1.895772 h 0.13914 l 0.005,-0.822199 c 0.003,-0.452219 0.0099,-0.867741 0.01596,-0.923401 0.006,-0.05566 0.01518,-0.91095 0.02031,-1.900659 l 0.0093,-1.799468 0.17709,-0.08444 c 0.0974,-0.04646 0.17709,-0.105192 0.17709,-0.130554 0,-0.02535 0.08538,-0.05804 0.189736,-0.07263 0.104359,-0.01459 0.25207,-0.04235 0.328255,-0.06169 0.109281,-0.02776 0.144926,-0.01523 0.168909,0.05917 0.01669,0.05187 0.08774,0.219549 0.157832,0.372602 0.07009,0.153063 0.14569,0.323828 0.168003,0.379476 0.02232,0.05565 0.190647,0.410949 0.374066,0.789543 0.18342,0.378596 0.333494,0.711377 0.333494,0.739512 0,0.02815 0.07746,0.207902 0.172124,0.399488 0.09468,0.191567 0.219835,0.455093 0.278149,0.585593 0.05831,0.130501 0.128856,0.251369 0.156755,0.268614 0.02791,0.01725 0.05072,0.07215 0.05072,0.122026 0,0.04988 0.05693,0.197722 0.126495,0.328571 0.06957,0.130844 0.126491,0.258189 0.126491,0.282967 0,0.06986 0.42374,0.934075 0.46731,0.953085 0.02124,0.0093 0.03868,0.05772 0.03868,0.107652 0,0.04992 0.03418,0.119123 0.0759,0.153762 0.04176,0.03465 0.0759,0.10363 0.0759,0.15332 0,0.04968 0.05354,0.200582 0.118994,0.335333 0.06545,0.134747 0.184073,0.392999 0.263605,0.573881 0.07953,0.18089 0.174158,0.365039 0.210287,0.409218 0.08657,0.105851 -0.02057,0.201526 -0.365201,0.326226 -0.13914,0.05035 -0.280508,0.112394 -0.314146,0.13788 -0.04289,0.03251 -0.07098,0.0073 -0.09403,-0.0846 -0.01807,-0.07203 -0.05317,-0.130951 -0.07798,-0.130951 -0.02482,0 -0.04514,-0.0328 -0.04514,-0.07292 0,-0.0401 -0.09108,-0.269116 -0.202391,-0.508963 -0.111314,-0.23983 -0.202386,-0.457476 -0.202386,-0.483653 0,-0.02621 -0.02275,-0.04758 -0.05059,-0.04758 -0.02781,0 -0.05059,-0.02415 -0.05059,-0.05362 0,-0.0295 -0.09108,-0.244439 -0.202386,-0.477657 -0.111315,-0.233226 -0.202391,-0.458214 -0.202391,-0.499979 0,-0.04173 -0.021,-0.0889 -0.0467,-0.104781 -0.02571,-0.01587 -0.06165,-0.09691 -0.07992,-0.180072 -0.01827,-0.08317 -0.05416,-0.151204 -0.07979,-0.151204 -0.0256,0 -0.04655,-0.03615 -0.04655,-0.08026 0,-0.04411 -0.08997,-0.254744 -0.199927,-0.468021 C 28.826148,10.468541 28.697826,10.1859 28.650946,10.05372 28.604056,9.921521 28.546039,9.813379 28.521989,9.813379 c -0.02403,0 -0.04372,-0.04092 -0.04372,-0.09098 0,-0.05004 -0.08768,-0.272035 -0.194836,-0.493317 C 28.176274,9.007794 28.057377,8.753884 28.019222,8.664835 27.942752,8.486383 27.744681,8.349666 27.672497,8.425508 c -0.02462,0.0259 -0.05832,0.798419 -0.07488,1.716757 -0.05034,2.790857 -0.07271,3.168222 -0.195645,3.301437 -0.0578,0.06262 -0.148127,0.113839 -0.200764,0.113839 -0.05263,0 -0.138093,0.02273 -0.189901,0.05043 -0.0734,0.03928 -0.127671,0.02226 -0.24579,-0.07714 -0.180674,-0.152021 -1.52674,-1.512605 -1.577124,-1.594133 -0.01929,-0.03121 -0.41867,-0.443032 -0.887489,-0.915118 -0.62665,-0.631029 -0.879802,-0.85443 -0.955898,-0.843537 -0.139155,0.01994 -0.15952,0.204372 -0.0513,0.464697 0.04753,0.114333 0.103292,0.253416 0.123935,0.309075 0.02066,0.05565 0.07484,0.187349 0.120434,0.292656 0.04563,0.105287 0.08291,0.220574 0.08291,0.256164 0,0.03559 0.05692,0.1827 0.126491,0.326915 0.06957,0.144203 0.126495,0.317884 0.126495,0.385949 0,0.06807 0.02276,0.13783 0.05059,0.155035 0.02781,0.0172 0.0506,0.06633 0.0506,0.109179 0,0.04284 0.0326,0.149653 0.07248,0.237343 0.03985,0.08769 0.108691,0.273288 0.152941,0.412427 0.04426,0.139138 0.100389,0.298516 0.124744,0.35418 0.02438,0.05566 0.08076,0.184317 0.125344,0.285931 0.0446,0.101603 0.08104,0.215768 0.08104,0.253691 0,0.0379 0.04783,0.193875 0.106247,0.346538 0.05843,0.152665 0.118075,0.329129 0.132532,0.392155 0.01444,0.06303 0.04635,0.126989 0.07085,0.142128 0.02453,0.0151 0.04464,0.07742 0.0448,0.138392 1.17e-4,0.06097 0.05704,0.222877 0.12649,0.359773 0.06945,0.136899 0.126422,0.284896 0.126594,0.328878 1.31e-4,0.04397 0.03475,0.145965 0.0768,0.226639 0.04205,0.08068 0.07039,0.149872 0.06294,0.153801 -0.285172,0.150034 -0.590892,0.281398 -0.654877,0.281398 -0.04817,0 -0.12792,-0.09217 -0.189011,-0.218367 z"
         style="fill:#f9f9f9;fill-opacity:1;fill-rule:evenodd;stroke:none;stroke-width:0.428842;stroke-linecap:square;stroke-miterlimit:4;stroke-dasharray:none;stroke-opacity:1;paint-order:markers stroke fill" />
      <path
         inkscape:connector-curvature="0"
         id="path27"
         d="m 33.312352,12.56288 c -0.248309,-0.09 -0.613745,-0.301168 -0.696201,-0.402289 -0.05238,-0.06426 -0.128788,-0.152574 -0.16978,-0.196285 -0.257812,-0.274879 -0.456994,-1.06392 -0.362904,-1.437605 0.146053,-0.580001 0.36437,-0.891381 0.896126,-1.278109 0.263765,-0.191827 0.922458,-0.515947 1.048529,-0.515947 0.03993,0 0.0854,-0.02066 0.100969,-0.04582 0.01558,-0.02521 0.115307,-0.05995 0.221609,-0.0772 0.221448,-0.03594 0.392048,-0.168498 0.392048,-0.304652 0,-0.164172 -0.251563,-0.599167 -0.460187,-0.79574 C 34.03767,7.278511 33.589897,7.151707 33.34863,7.244741 c -0.08203,0.03163 -0.205528,0.05752 -0.27444,0.05752 -0.06891,0 -0.28436,0.07749 -0.47876,0.172173 -0.520863,0.253722 -0.554561,0.272996 -0.554561,0.317181 0,0.02225 -0.02542,0.04039 -0.05652,0.04039 -0.03107,0 -0.134652,0.05961 -0.230157,0.132448 -0.0955,0.07285 -0.190976,0.132448 -0.212162,0.132448 -0.08688,0 -0.348812,-0.369936 -0.348812,-0.492676 0,-0.09153 0.236463,-0.297815 0.492379,-0.429545 0.107982,-0.05557 0.196331,-0.121135 0.196331,-0.145684 0,-0.02455 0.03409,-0.04464 0.07578,-0.04464 0.04167,0 0.226438,-0.06816 0.41058,-0.151475 0.83519,-0.377871 1.463656,-0.47043 2.000954,-0.294689 0.268904,0.08796 0.797334,0.510217 0.797334,0.637149 0,0.04065 0.02384,0.0739 0.05298,0.0739 0.02911,0 0.05297,0.03409 0.05297,0.07569 0,0.04162 0.0307,0.107183 0.06823,0.145689 0.07921,0.08127 0.249636,0.431007 0.249636,0.512273 0,0.0305 0.0596,0.167509 0.132444,0.304514 0.07285,0.137005 0.132448,0.282775 0.132448,0.323952 0,0.06526 0.189601,0.522812 0.314413,0.758752 0.02363,0.04464 0.0598,0.157909 0.08039,0.251636 0.02061,0.09374 0.05938,0.170451 0.08621,0.170451 0.02682,0 0.04875,0.04629 0.04875,0.102827 0,0.05656 0.02384,0.117562 0.05298,0.135568 0.02912,0.01799 0.05312,0.07306 0.05331,0.122336 1.34e-4,0.04927 0.03594,0.157856 0.07947,0.241326 0.04352,0.08346 0.07913,0.17297 0.07913,0.198915 0,0.0259 0.05847,0.168406 0.129943,0.316545 0.106762,0.221308 0.118664,0.287415 0.06673,0.370583 -0.03475,0.05569 -0.09325,0.101244 -0.129941,0.101244 -0.0367,0 -0.06673,0.02105 -0.06673,0.04679 0,0.02573 -0.04173,0.06081 -0.09271,0.07793 -0.05101,0.01712 -0.139809,0.06161 -0.197373,0.09888 -0.541003,0.350247 -1.305096,0.729992 -1.468843,0.729992 -0.04075,0 -0.09676,0.02054 -0.124441,0.04566 -0.157704,0.143134 -1.201179,0.273765 -1.454245,0.182048 z m 1.19878,-0.786368 c 0.447061,-0.178356 0.471676,-0.189944 1.039538,-0.489275 0.223142,-0.117615 0.251646,-0.152588 0.251646,-0.308749 0,-0.09686 -0.03907,-0.266322 -0.08681,-0.376567 -0.04772,-0.11026 -0.109858,-0.260071 -0.138025,-0.332915 -0.02815,-0.07285 -0.08247,-0.203963 -0.120669,-0.29137 -0.03819,-0.08743 -0.109792,-0.27046 -0.159087,-0.406748 -0.141234,-0.390475 -0.236151,-0.465226 -0.511397,-0.402733 -0.7265,0.164933 -1.149022,0.367999 -1.514715,0.727967 -0.203826,0.200644 -0.271175,0.312627 -0.326376,0.542735 -0.05225,0.217801 -0.05478,0.317537 -0.01014,0.400921 0.03265,0.06104 0.0594,0.147337 0.0594,0.19177 0,0.04444 0.06464,0.187806 0.143643,0.318604 0.270699,0.448166 0.859814,0.631089 1.373005,0.42636 z"
         style="fill:#f9f9f9;fill-opacity:1;fill-rule:evenodd;stroke:none;stroke-width:0.428842;stroke-linecap:square;stroke-miterlimit:4;stroke-dasharray:none;stroke-opacity:1;paint-order:markers stroke fill" />
    </g>
  </g>
</svg>
