<?xml version="1.0" encoding="UTF-8" standalone="no"?>
<!-- Created with Inkscape (http://www.inkscape.org/) -->

<svg
   version="1.1"
   id="svg80"
   width="512"
   height="512"
   viewBox="0 0 512 512"
   sodipodi:docname="logo maths x.svg"
   inkscape:version="1.3 (0e150ed6c4, 2023-07-21)"
   inkscape:export-filename="logo.png"
   inkscape:export-xdpi="187.5"
   inkscape:export-ydpi="187.5"
   xmlns:inkscape="http://www.inkscape.org/namespaces/inkscape"
   xmlns:sodipodi="http://sodipodi.sourceforge.net/DTD/sodipodi-0.dtd"
   xmlns="http://www.w3.org/2000/svg"
   xmlns:svg="http://www.w3.org/2000/svg"
   xmlns:rdf="http://www.w3.org/1999/02/22-rdf-syntax-ns#"
   xmlns:cc="http://creativecommons.org/ns#"
   xmlns:dc="http://purl.org/dc/elements/1.1/">
  <metadata
     id="metadata86">
    <rdf:RDF>
      <cc:Work
         rdf:about="">
        <dc:format>image/svg+xml</dc:format>
        <dc:type
           rdf:resource="http://purl.org/dc/dcmitype/StillImage" />
        <dc:title />
      </cc:Work>
    </rdf:RDF>
  </metadata>
  <defs
     id="defs84">
    <clipPath
       clipPathUnits="userSpaceOnUse"
       id="clipPath27972">
      <rect
         style="opacity:1;fill:#ffff00;fill-opacity:1;fill-rule:evenodd;stroke:none;stroke-width:3.77952766;stroke-linecap:square;stroke-miterlimit:4;stroke-dasharray:none;stroke-opacity:1;paint-order:markers stroke fill"
         id="rect27974"
         width="611.50812"
         height="483.73584"
         x="-419.59442"
         y="674.77454" />
    </clipPath>
    <clipPath
       clipPathUnits="userSpaceOnUse"
       id="clipPath107">
      <g
         id="g107"
         transform="matrix(0.17660893,0,0,0.17660893,-148.38929,300.84341)">
        <rect
           y="-1528.3556"
           x="938.93964"
           height="1122.5197"
           width="793.70081"
           id="rect107"
           style="fill:#032050;fill-opacity:1;stroke-width:0.999999" />
      </g>
    </clipPath>
    <clipPath
       clipPathUnits="userSpaceOnUse"
       id="clipPath104">
      <g
         id="g104">
        <rect
           y="-1528.3556"
           x="938.93964"
           height="1122.5197"
           width="793.70081"
           id="rect104"
           style="fill:#032050;fill-opacity:1;stroke-width:0.999999" />
      </g>
    </clipPath>
    <clipPath
       clipPathUnits="userSpaceOnUse"
       id="clipPath105">
      <g
         id="g105"
         transform="matrix(0.58290572,0,0,0.58290572,-671.03249,848.76237)">
        <rect
           y="-1528.3556"
           x="938.93964"
           height="1122.5197"
           width="793.70081"
           id="rect105"
           style="fill:#032050;fill-opacity:1;stroke-width:0.999999" />
      </g>
    </clipPath>
    <filter
       inkscape:collect="always"
       style="color-interpolation-filters:sRGB"
       id="filter2147"
       x="-0.025075902"
       width="1.0501518"
       y="-0.023012627"
       height="1.0460253">
      <feGaussianBlur
         inkscape:collect="always"
         stdDeviation="1.222352"
         id="feGaussianBlur2149" />
    </filter>
    <clipPath
       clipPathUnits="userSpaceOnUse"
       id="clipPath102">
      <g
         id="g102"
         transform="matrix(0.24997468,0,0,0.24997468,-242.50798,364.14657)">
        <rect
           y="-1528.3556"
           x="938.93964"
           height="1122.5197"
           width="793.70081"
           id="rect102"
           style="fill:#032050;fill-opacity:1;stroke-width:0.999999" />
      </g>
    </clipPath>
    <clipPath
       clipPathUnits="userSpaceOnUse"
       id="clipPath103">
      <g
         id="g103">
        <rect
           y="-1528.3556"
           x="938.93964"
           height="1122.5197"
           width="793.70081"
           id="rect103"
           style="fill:#032050;fill-opacity:1;stroke-width:0.999999" />
      </g>
    </clipPath>
  </defs>
  <sodipodi:namedview
     pagecolor="#ffffff"
     bordercolor="#666666"
     borderopacity="1"
     objecttolerance="10"
     gridtolerance="10"
     guidetolerance="10"
     inkscape:pageopacity="0"
     inkscape:pageshadow="2"
     inkscape:window-width="1366"
     inkscape:window-height="699"
     id="namedview82"
     showgrid="false"
     inkscape:zoom="0.45254834"
     inkscape:cx="183.40582"
     inkscape:cy="156.88932"
     inkscape:window-x="0"
     inkscape:window-y="32"
     inkscape:window-maximized="1"
     inkscape:current-layer="svg80"
     inkscape:showpageshadow="2"
     inkscape:pagecheckerboard="0"
     inkscape:deskcolor="#d1d1d1" />
  <path
     style="opacity:1;fill:#ffff00;fill-opacity:1;fill-rule:evenodd;stroke:none;stroke-width:3.77952766;stroke-linecap:square;stroke-miterlimit:4;stroke-dasharray:none;stroke-opacity:1;paint-order:markers stroke fill"
     d=""
     id="path11619"
     inkscape:connector-curvature="0" />
  <path
     style="opacity:1;fill:#ffff00;fill-opacity:1;fill-rule:evenodd;stroke:#ffff00;stroke-width:3.77952766;stroke-linecap:square;stroke-miterlimit:4;stroke-dasharray:none;stroke-opacity:1;paint-order:markers stroke fill"
     d=""
     id="path11633"
     inkscape:connector-curvature="0" />
  <g
     id="g120"
     transform="matrix(1.6901885,0,0,1.6901885,-167.22674,340.31235)">
    <g
       id="g79235"
       transform="matrix(5.6622278,0,0,5.6622278,-8.49292,-375.7192)"
       clip-path="url(#clipPath107)">
      <path
         id="path12332"
         style="opacity:1;fill:none;stroke:#ffffff;stroke-width:0.209313"
         d="m 69.728425,58.456399 c 0,5.724917 0.09058,9.112097 0.346027,24.031154 0,0 -17.169784,0.7588 -25.13598,0.7588 -13.691113,0 -24.789954,-11.098841 -24.789953,-24.789954 0,-13.691113 11.09884,-24.789953 24.789953,-24.789953 13.691113,0 24.789952,11.09884 24.789953,24.789953 z"
         sodipodi:nodetypes="scssss" />
      <path
         id="path11789"
         style="opacity:1;fill:#ffffff;stroke-width:0.209313"
         d="m 71.056455,56.529969 c 0,5.724917 0.09058,9.112097 0.346027,24.031154 0,0 -17.169784,0.7588 -25.13598,0.7588 -13.691113,0 -24.789954,-11.098841 -24.789953,-24.789954 0,-13.691113 11.09884,-24.789953 24.789953,-24.789953 13.691113,0 24.789952,11.09884 24.789953,24.789953 z"
         sodipodi:nodetypes="scssss" />
    </g>
    <g
       transform="matrix(1.7155433,0,0,1.7155433,302.4784,-128.3639)"
       style="fill:#6ed5f9;fill-opacity:1;filter:url(#filter2147)"
       id="g2001"
       clip-path="url(#clipPath105)">
      <path
         inkscape:connector-curvature="0"
         id="path1966"
         d="m -42.332907,107.48027 c -0.155591,-0.39479 -0.486584,-1.30507 -0.735539,-2.02287 l -0.452641,-1.30507 -2.716448,-0.19032 c -2.337382,-0.16376 -2.950242,-0.30945 -4.391821,-1.04406 -1.959536,-0.99855 -3.173167,-2.53738 -3.837038,-4.865211 -0.230547,-0.80841 -0.631031,-1.82221 -0.889963,-2.25288 -0.788141,-1.31091 -1.659491,-5.3508 -1.154097,-5.3508 0.605362,0 1.684044,0.88076 1.68646,1.37702 0.0037,0.75517 0.621548,2.77931 1.175213,3.84998 0.239834,0.46379 0.606483,1.41713 0.814781,2.11855 0.768096,2.586451 2.519606,3.766741 5.978012,4.028381 1.57321,0.11902 1.978493,0.0732 2.097521,-0.23694 0.162796,-0.42424 -1.380333,-4.350611 -1.709864,-4.350611 -0.342493,0 -2.094132,2.06184 -2.094132,2.46499 0,0.595121 -0.490556,0.743551 -1.320829,0.399651 -1.366033,-0.565841 -0.788429,-2.209281 1.427464,-4.061541 0.659141,-0.55097 1.198438,-1.1145 1.198438,-1.25228 0,-0.35676 -1.316503,-3.62579 -1.603785,-3.98239 -0.142573,-0.17697 -1.120915,-0.30503 -2.412294,-0.31574 -3.889536,-0.0323 -6.322004,-1.39649 -7.722557,-4.33109 -0.434539,-0.9105 -0.790073,-1.84811 -0.790073,-2.08359 0,-0.23547 -0.297621,-1.01546 -0.661386,-1.73331 -0.804479,-1.58757 -1.242936,-5.46671 -0.61712,-5.45986 0.688472,0.008 0.930516,0.39001 1.236329,1.95362 0.168463,0.86135 0.587981,2.27083 0.932265,3.13217 0.344284,0.86135 0.822653,2.12277 1.063038,2.80315 0.511405,1.44745 1.987991,2.83841 3.491235,3.28879 0.556088,0.16661 1.790271,0.30293 2.742634,0.30293 1.924875,0 2.045245,-0.14707 1.356352,-1.65715 -0.206367,-0.45237 -0.552747,-1.26296 -0.769726,-1.8013 -0.217519,-0.53968 -0.575797,-0.97881 -0.7986,-0.97881 -0.526661,0 -2.493711,1.77931 -2.493711,2.2557 0,0.30823 -0.126937,0.30222 -0.783045,-0.0371 -0.874408,-0.45218 -0.95966,-0.85896 -0.404855,-1.93183 0.378227,-0.7314 1.78289,-2.09629 2.673046,-2.59736 0.450699,-0.2537 0.443944,-0.34789 -0.146653,-2.04462 -1.020707,-2.93237 -1.013992,-2.92653 -3.358431,-2.92211 -4.457734,0.008 -7.067187,-1.72936 -8.433289,-5.61616 -0.290158,-0.82555 -0.811345,-1.93277 -1.158193,-2.46048 -0.731522,-1.11298 -1.162859,-2.78707 -1.171924,-4.54844 -0.0068,-1.31853 0.154316,-1.43445 1.494454,-1.07531 0.510212,0.13673 0.588788,0.33323 0.598742,1.49727 0.0063,0.73694 0.190272,1.80971 0.408823,2.38395 0.218551,0.57423 0.602816,1.82675 0.853924,2.78337 0.873631,3.32819 2.357089,4.44931 6.099464,4.60964 1.62451,0.0696 2.283878,0.01 2.283878,-0.20728 0,-0.67775 -1.638261,-4.18406 -1.95493,-4.18406 -0.424518,0 -1.854155,1.60353 -2.088819,2.34289 -0.133075,0.41928 -0.309237,0.50948 -0.74082,0.37933 -0.311428,-0.0939 -0.651989,-0.24917 -0.756804,-0.34503 -0.436528,-0.39923 0.408366,-2.171 1.636567,-3.43195 0.712063,-0.73104 1.295289,-1.46817 1.296062,-1.63804 7.94e-4,-0.16988 -0.358609,-1.20379 -0.798619,-2.29759 l -0.80002,-1.98872 -2.529322,-0.14439 c -3.131648,-0.17877 -4.20657,-0.52486 -5.692372,-1.83271 -1.266225,-1.11458 -1.957663,-2.27072 -2.448764,-4.09453 -0.173519,-0.6444 -0.551659,-1.63457 -0.840311,-2.20037 -0.435751,-0.85414 -1.090107,-5.00106 -0.839941,-5.32305 0.03611,-0.0465 0.411906,0.0945 0.835107,0.3134 0.672864,0.34795 0.787955,0.57714 0.916823,1.82576 0.0824,0.79836 0.501843,2.15444 0.951397,3.07591 0.442214,0.90642 0.804026,1.80129 0.804026,1.98859 0,0.55894 0.948756,2.23653 1.605942,2.83963 0.873011,0.80117 2.306494,1.33326 3.779083,1.40275 1.958594,0.0924 2.44542,0.022 2.44542,-0.35392 0,-0.4457 -1.277168,-3.62243 -1.585521,-3.94372 -0.330274,-0.34412 -1.382057,0.70785 -1.936057,1.9364 l -0.455761,1.0107 -0.882494,-0.42083 c -0.48537,-0.23146 -0.882491,-0.51101 -0.882491,-0.62122 0,-0.61609 0.778925,-1.83069 1.985547,-3.09612 l 1.36887,-1.43558 -0.842873,-2.08812 -0.84287,-2.08812 -2.465681,-0.1607 c -1.356122,-0.0884 -2.828105,-0.2802 -3.27107,-0.42625 -2.016583,-0.66489 -3.688686,-2.35324 -4.422717,-4.46569 -0.231576,-0.66644 -0.661678,-1.799 -0.955783,-2.51679 -0.727268,-1.77495 -1.174599,-3.44161 -1.39309,-5.19035 -0.201607,-1.61361 0.02611,-1.82821 1.124043,-1.0592 0.393951,0.27594 0.580107,0.67434 0.580107,1.24154 0,0.45938 0.110908,1.18682 0.246464,1.61654 0.592741,1.87907 2.13455,5.28642 2.732027,6.03771 0.896988,1.12791 2.631276,1.90441 4.68091,2.09581 1.445607,0.13499 1.751235,0.0927 1.887085,-0.26136 0.165934,-0.43242 -1.10419,-4.00284 -1.514062,-4.25616 -0.32127,-0.19855 -1.996305,1.64211 -2.187469,2.40376 -0.184936,0.73685 -0.143941,0.72331 -1.003901,0.33149 -0.365651,-0.1666 -0.664818,-0.47186 -0.664818,-0.67835 0,-0.80158 0.902832,-2.21269 2.034678,-3.18017 l 1.183991,-1.01204 -0.918059,-2.4378 -0.918056,-2.4378 -2.606255,-0.14427 c -4.328956,-0.23964 -6.319485,-1.57767 -7.654279,-5.14524 -0.29836,-0.79743 -0.789284,-1.7965 -1.09094,-2.22014 -0.883817,-1.2412 -1.679329,-5.93261 -1.005983,-5.93261 0.136802,0 0.522496,0.12473 0.857094,0.27719 0.487179,0.22197 0.673824,0.62227 0.93699,2.00956 0.180747,0.9528 0.438158,1.86435 0.572029,2.02566 0.133868,0.1613 0.435824,1.04821 0.671012,1.97091 0.235186,0.92269 0.586243,1.98665 0.780127,2.36433 0.540514,1.05292 1.822069,1.99949 3.30218,2.43904 1.544362,0.45863 4.00532,0.52798 4.257479,0.11998 0.260696,-0.42182 -1.447835,-4.94232 -1.867961,-4.94232 -0.428879,0 -1.879293,1.93671 -2.095476,2.79805 -0.121031,0.48223 -0.270828,0.57447 -0.710359,0.43743 -0.782561,-0.24399 -0.926849,-0.57379 -0.659249,-1.50686 0.128024,-0.44639 0.23277,-0.84879 0.23277,-0.89422 0,-0.0454 0.604157,-0.72141 1.34257,-1.50217 l 1.34257,-1.41957 -0.857885,-2.21901 -0.857888,-2.21901 h -2.133904 c -4.387056,0 -7.295436,-1.609976 -8.615442,-4.769191 -0.527841,-1.263303 -0.512921,-1.359741 0.265221,-1.714285 0.992529,-0.452226 1.043726,-0.420029 1.80445,1.134837 0.810112,1.65581 1.947614,2.626339 3.694295,3.152013 1.632961,0.491448 4.016013,0.496832 4.016013,0.0091 0,-0.472082 -1.278038,-3.879643 -1.565934,-4.175156 -0.35239,-0.361718 -1.991524,0.800724 -2.350243,1.666745 -0.377259,0.910783 -0.521886,0.944605 -1.310069,0.306377 -0.58099,-0.470461 -0.58193,-0.482542 -0.113985,-1.46866 0.266091,-0.56075 1.014034,-1.383834 1.715333,-1.887667 l 1.243508,-0.893371 -0.350896,-0.965909 c -0.19299,-0.531252 -0.546137,-1.421828 -0.78477,-1.979065 -0.23863,-0.557231 -0.337749,-1.099489 -0.220258,-1.205013 0.117489,-0.105524 4.383326,-1.783299 9.47964,-3.728394 5.096311,-1.945095 15.902323,-6.087481 24.013358,-9.205301 8.111035,-3.117821 19.915428,-7.653901 26.231981,-10.080181 6.31656,-2.426279 11.91323,-4.577781 12.43705,-4.781113 0.93525,-0.363046 0.95721,-0.357013 1.22067,0.335409 0.14755,0.387811 0.98917,2.643146 1.87026,5.011854 0.88108,2.368709 1.76309,4.717841 1.96001,5.220295 0.19692,0.502455 1.07785,2.851587 1.95761,5.220296 0.87977,2.368708 1.76286,4.717841 1.96242,5.220295 0.84266,2.121561 7.97594,20.996395 14.40206,38.108165 3.80077,10.12084 8.78957,23.31903 11.08621,29.32929 2.29666,6.01027 4.07784,11.02102 3.95817,11.13502 -0.22664,0.21588 -5.52567,2.32125 -10.9192,4.3383 -1.72271,0.64425 -3.66946,1.3927 -4.32613,1.66323 -0.65669,0.27053 -1.77252,0.68533 -2.47964,0.9218 -0.70713,0.23646 -1.63807,0.58248 -2.06873,0.76893 -0.43069,0.18645 -5.95114,2.30155 -12.26769,4.70024 -10.55139,4.00684 -24.062765,9.219191 -25.318437,9.767221 -0.287116,0.12532 -0.933127,0.37477 -1.435579,0.55435 -0.502455,0.17958 -1.265923,0.47273 -1.696598,0.65143 -3.174506,1.31725 -11.387302,4.29504 -11.845767,4.29504 -0.37416,0 -0.661024,-0.24275 -0.848246,-0.71779 z m 7.246983,-4.78905 c 3.426542,-1.30606 6.993543,-2.64475 7.92667,-2.974881 0.93313,-0.33012 5.279025,-1.95175 9.657544,-3.60361 4.37853,-1.65187 11.57314,-4.36398 15.98802,-6.02692 4.41489,-1.66294 9.34807,-3.54179 10.96263,-4.17521 1.61454,-0.63343 5.51958,-2.11462 8.67786,-3.29154 9.51164,-3.54446 9.78807,-3.66027 9.78807,-4.10067 0,-0.50356 -11.75453,-31.62651 -17.28022,-45.7536 -0.42114,-1.07669 -0.85881,-2.25125 -0.97261,-2.61015 -0.1138,-0.35889 -0.45003,-1.23982 -0.74717,-1.95761 -0.29716,-0.71779 -1.32587,-3.41929 -2.28603,-6.00334 -3.04865,-8.204722 -13.74411,-36.338077 -14.18989,-37.32511 -0.12968,-0.287115 -0.30614,-0.739764 -0.39215,-1.005888 -0.086,-0.26612 -0.30221,-0.423235 -0.48044,-0.349144 -0.17824,0.07409 -3.43667,1.329973 -7.24096,2.790849 -3.80429,1.460873 -7.680364,2.95406 -8.613491,3.318187 -2.786208,1.087245 -4.446563,1.719625 -12.920231,4.92093 -4.450302,1.681297 -11.673885,4.437465 -16.052408,6.124813 -4.378523,1.687346 -10.779911,4.148937 -14.225304,5.4702 -3.445397,1.32126 -6.969096,2.675038 -7.830445,3.008397 -0.861348,0.333354 -1.784095,0.675478 -2.050549,0.760272 -0.381056,0.121266 -0.446355,0.306861 -0.305933,0.869532 0.368075,1.474856 0.725382,1.6148 2.689733,1.05347 4.089307,-1.168553 6.993824,0.179999 7.302304,3.390421 0.164452,1.711487 -0.439991,2.944776 -1.987933,4.056124 -1.234409,0.886243 -2.899029,1.742381 -3.387784,1.742381 -0.14928,0 -0.335856,0.104267 -0.414615,0.231696 -0.145018,0.23465 1.265362,3.89685 1.648177,4.27966 0.114305,0.11431 0.775946,0.0805 1.470313,-0.0751 4.653063,-1.04278 7.699338,0.20764 7.693054,3.1578 -0.0049,2.28328 -2.252691,5.01655 -4.737933,5.76115 -0.551069,0.1651 -1.001943,0.39599 -1.001943,0.51309 0,0.31239 1.573538,4.23957 1.787441,4.46103 0.100301,0.10384 1.20192,0.002 2.448044,-0.22721 4.677944,-0.85896 6.864948,0.38088 7.163742,4.0612 0.09386,1.15615 0.0086,1.63274 -0.411475,2.29892 -0.757489,1.20138 -2.517209,2.38726 -4.262467,2.87248 -0.827743,0.23014 -1.504987,0.51539 -1.504987,0.6339 0,0.31947 1.350055,3.69648 1.616734,4.04408 0.16977,0.22128 0.652878,0.17072 1.851382,-0.19376 2.313935,-0.70371 4.819018,-0.66362 5.95507,0.0953 1.256337,0.83929 1.864489,2.12656 1.683067,3.56252 -0.295891,2.34199 -2.762596,5.06982 -4.892476,5.4104 -0.552781,0.0884 -1.048928,0.23338 -1.102553,0.32219 -0.116245,0.19253 1.355809,3.977 1.674346,4.30454 0.125836,0.12939 1.186667,0.0363 2.455074,-0.21536 4.496584,-0.89227 7.028395,0.52419 6.997925,3.91507 -0.02259,2.51607 -2.036828,4.9513 -4.688668,5.66868 -0.610121,0.16505 -1.10931,0.4546 -1.10931,0.64343 0,0.18884 0.37298,1.2319 0.828847,2.31791 0.81349,1.93797 0.843714,1.97177 1.631341,1.82441 4.310835,-0.80655 5.760747,-0.74647 7.154344,0.29642 0.995056,0.74464 1.870117,2.56188 1.870117,3.88367 0,2.46461 -2.07002,4.39427 -5.546563,5.17047 -0.885145,0.19762 -0.888863,0.41877 -0.04236,2.51969 0.796899,1.97783 1.00947,2.24912 1.466882,1.87211 0.185531,-0.15292 1.034277,-0.40635 1.886103,-0.56317 4.80037,-0.88375 7.059108,0.4441 7.062955,4.15212 0.0016,1.4497 -0.102392,1.83273 -0.713918,2.632011 -0.730797,0.95519 -2.786443,2.12336 -4.308639,2.44851 -0.760261,0.1624 -0.83085,0.25334 -0.681701,0.87826 0.207489,0.86937 0.328464,1.08862 0.600659,1.08862 0.118052,0 3.018171,-1.06859 6.444711,-2.37466 z"
         style="opacity:1;fill:#6ed5f9;fill-opacity:1;fill-rule:evenodd;stroke:none;stroke-width:1;stroke-linecap:square;stroke-miterlimit:4;stroke-dasharray:none;stroke-opacity:1;paint-order:markers stroke fill" />
      <path
         style="fill:#6ed5f9;fill-opacity:1;stroke:#000000;stroke-width:0.264583;stroke-opacity:1"
         d="m -19.34561,81.865369 c -1.7982,0.56221 -3.323532,0.758 -4.413944,0.56659 -1.276736,-0.22411 -2.219412,-0.92264 -3.220289,-2.38622 -0.77222,-1.12922 -0.924919,-1.47271 -2.677138,-6.02188 -1.66505,-4.32287 -1.854113,-4.75929 -2.421613,-5.58986 -0.606636,-0.88784 -1.207777,-1.30603 -2.021617,-1.40636 -0.729147,-0.0899 -1.236504,0.003 -2.590541,0.47345 l -1.181714,0.41072 -0.729586,-1.95423 -0.72958,-1.95423 1.219332,-0.48655 c 1.000771,-0.39935 1.292193,-0.53871 1.625843,-0.77755 1.043631,-0.74709 1.363213,-1.49169 1.218438,-2.83892 -0.103976,-0.9676 -0.262223,-1.46923 -1.842055,-5.83919 -1.659266,-4.58968 -1.767102,-4.9433 -1.924987,-6.31238 -0.310906,-2.69613 0.447067,-4.08413 3.072202,-5.62561 0.367445,-0.21576 0.992579,-0.48956 2.195692,-0.96167 l 1.68203,-0.65991 0.736846,1.97369 0.736836,1.97365 -1.258525,0.46985 c -2.258872,0.84332 -2.925921,1.43648 -2.884493,2.55719 0.03494,0.94492 0.159494,1.35085 1.833949,5.9763 1.309976,3.61863 1.600049,4.46781 1.713748,5.01706 0.434002,2.09661 0.257477,3.56143 -0.56452,4.68437 l -0.277273,0.37879 0.328086,0.0692 c 1.176518,0.24813 2.283733,1.07629 3.090339,2.31142 0.685459,1.04963 0.811141,1.33823 2.536277,5.82383 1.771621,4.60646 1.935906,4.97684 2.541106,5.72875 0.4323,0.53709 0.894879,0.70104 1.763496,0.62502 0.369673,-0.0324 0.706205,-0.12601 1.728395,-0.48104 l 1.26934,-0.44087 0.0946,0.25339 c 0.0907,0.24296 0.10173,0.25072 0.26818,0.18858 l 0.17359,-0.0648 0.64807,1.73589 0.64807,1.7359 -1.03106,0.37274 c -0.5671,0.20499 -1.1772,0.41841 -1.35577,0.47425 z m 16.00843,-8.68552 -0.73438,-1.96707 1.3923,-0.55299 c 1.16139,-0.46126 1.45854,-0.6002 1.79162,-0.83773 0.97726,-0.69693 1.1162,-1.11201 0.87324,-2.60889 -0.029,-0.17874 -0.72518,-2.18011 -1.61473,-4.64205 -0.93522,-2.58838 -1.62364,-4.57047 -1.71276,-4.9315 -0.58661,-2.37624 -0.46792,-3.84887 0.41398,-5.13636 l 0.28994,-0.42327 -0.34832,-0.0863 c -1.30351,-0.32291 -2.30133,-1.1109 -3.16741,-2.50132 -0.69324,-1.11296 -0.895,-1.57895 -2.59227,-5.98763 -1.33754,-3.47421 -1.68969,-4.34241 -1.8982,-4.67973 -0.58552,-0.94725 -0.93237,-1.22836 -1.59754,-1.29466 -0.66357,-0.0661 -1.20274,0.0459 -2.69578,0.55998 l -1.32902,0.45759 -0.73156,-1.95949 -0.73154,-1.95949 0.96921,-0.36183 c 4.12016,-1.53407 6.45577,-1.5184 8.05186,0.059 0.65579,0.64811 1.18726,1.40828 1.8459,2.64025 0.30072,0.56247 0.66257,1.45485 1.99673,4.92434 1.75599,4.56646 1.83477,4.74191 2.52703,5.62774 0.54306,0.69491 1.06415,0.99304 1.84405,1.05504 0.67255,0.0535 1.17449,-0.047 2.50262,-0.50108 l 1.21318,-0.41475 0.73159,1.95962 0.73159,1.95961 -1.08467,0.40577 c -0.83071,0.31097 -1.19761,0.47679 -1.56731,0.70898 -1.33463,0.83833 -1.6586,1.72932 -1.33437,3.66987 0.0743,0.44442 0.33421,1.2091 1.65077,4.85575 1.5297,4.23704 1.66849,4.66775 1.91523,5.94373 0.44189,2.28522 0.0612,3.89878 -1.19973,5.08477 -0.95044,0.89395 -1.86416,1.4076 -3.9852,2.24026 l -1.68189,0.66028 -0.73438,-1.96707 z m -6.36711,-6.10591 c -1.52551,0.22744 -2.79891,-0.26355 -4.20753,-1.62231 -0.6389,-0.61628 -1.6511,-1.88748 -2.474,-3.10706 -0.38109,-0.56479 -0.75487,-1.11831 -0.83063,-1.23002 l -0.13774,-0.20313 -0.13718,0.96503 c -0.83173,5.85178 -2.12764,8.72365 -4.305595,9.54164 -0.859009,0.32278 -1.712245,0.2748 -2.556629,-0.14337 -0.725273,-0.35917 -1.170164,-0.84746 -1.449242,-1.5906 -0.485701,-1.2932 0.0051,-2.80899 1.23807,-3.82385 l 0.27835,-0.22911 1.332058,0.8187 1.332055,0.81871 0.187923,-0.28025 c 0.103354,-0.15414 0.34565,-0.59878 0.53843,-0.9881 0.80714,-1.62999 1.37313,-3.67203 1.67533,-6.04443 l 0.12158,-0.95426 -0.79818,-1.03469 c -1.05099,-1.36243 -2.199309,-2.77118 -2.990357,-3.66856 -0.619064,-0.7023 -1.712984,-1.78137 -1.961991,-1.93537 -0.106551,-0.0659 -0.357392,-0.008 -2.017337,0.46821 -1.042612,0.29891 -1.93207,0.54528 -1.976559,0.54751 -0.05902,0.003 -0.153657,-0.19083 -0.349811,-0.71624 l -0.26891,-0.72029 2.520469,-2.03429 c 2.670775,-2.1556 2.762342,-2.21702 3.438128,-2.30593 0.922038,-0.12132 1.883704,0.30867 2.865488,1.28129 0.77045,0.76323 2.08252,2.46493 3.37529,4.37757 0.22995,0.34022 0.43318,0.61294 0.45162,0.60605 0.0184,-0.007 0.0543,-0.22052 0.0797,-0.47477 0.0771,-0.77143 0.35569,-2.37063 0.59896,-3.4376 0.6545,-2.87094 1.57481,-4.70051 2.87827,-5.72201 0.49025,-0.3842 1.35319,-0.71218 1.88987,-0.7183 0.92456,-0.0105 1.76674,0.42868 2.32244,1.21115 0.25034,0.35251 0.57106,1.21957 0.61401,1.66001 0.10892,1.11753 -0.38144,2.29374 -1.30179,3.12133 -0.14677,0.13198 -0.30267,0.23965 -0.34648,0.23925 -0.0438,-5.3e-4 -0.60883,-0.36195 -1.25562,-0.80345 -0.64679,-0.4415 -1.19101,-0.81106 -1.20937,-0.82125 -0.0575,-0.0319 -0.44496,0.44011 -0.73233,0.89213 -0.89053,1.40083 -1.48918,3.60424 -1.726,6.35278 l -0.0323,0.37466 0.7906,1.08933 c 3.1941,4.40099 4.29332,5.6166 5.55202,6.13991 0.88724,0.36887 1.49398,0.33065 2.66435,-0.16783 0.67052,-0.28561 1.34475,-0.64912 1.65543,-0.89255 0.092,-0.0721 0.11031,-0.0361 0.39995,0.7864 l 0.30354,0.86196 -0.64127,0.48973 c -0.91956,0.70227 -2.11351,1.53618 -2.79766,1.954 -0.75595,0.46168 -2.03053,0.98745 -2.59942,1.07225 z"
         id="path1968"
         inkscape:connector-curvature="0" />
      <path
         inkscape:connector-curvature="0"
         id="path1970"
         d="m -20.32146,21.110261 c -0.60079,-0.11737 -0.81693,-0.22774 -1.185395,-0.60534 -0.839969,-0.8608 -1.991334,-3.192519 -3.580931,-7.252036 -0.748651,-1.911909 -0.960036,-2.35556 -1.28956,-2.70652 -0.381752,-0.406581 -0.807845,-0.392625 -1.68826,0.0553 -0.150657,0.07665 -0.319522,0.139359 -0.375247,0.139359 -0.09644,0 -0.100115,-0.01235 -0.07622,-0.256342 0.03817,-0.389676 0.122683,-0.625814 1.826639,-5.104001 0.230798,-0.606558 0.430013,-1.103081 0.442709,-1.103384 0.01266,-2.7e-4 0.161813,0.345513 0.331385,0.76848 0.674855,1.683294 0.848953,1.948388 1.304331,1.986021 0.346752,0.02866 0.62001,-0.03973 1.606637,-0.402062 0.467445,-0.171671 1.013741,-0.352742 1.213988,-0.402381 0.358215,-0.0888 0.366858,-0.08889 0.535784,-0.0062 0.22197,0.108649 0.46956,0.513485 0.49866,0.815356 0.049,0.507829 -0.2567,0.720347 -2.360262,1.641041 -0.528959,0.231515 -0.979831,0.438406 -1.001953,0.459763 -0.02356,0.02276 0.137433,0.46017 0.388361,1.055322 0.515583,1.222861 0.711342,1.712363 1.485582,3.714763 0.733227,1.896319 0.982832,2.494079 1.327892,3.180115 0.49909,0.992268 0.9496,1.54963 1.45041,1.794396 0.23741,0.11604 0.30841,0.12892 0.71106,0.12893 0.52947,10e-6 0.81196,-0.0771 1.66331,-0.453799 0.65282,-0.288883 0.86533,-0.327866 1.07428,-0.197079 0.27174,0.170089 0.81732,0.941958 0.81817,1.157558 8.6e-4,0.17345 -0.27943,0.37988 -1.00097,0.73765 -0.72557,0.35976 -1.50698,0.64115 -2.18048,0.78523 -0.5507,0.1178 -1.51649,0.15258 -1.93992,0.0699 z"
         style="opacity:1;fill:#6ed5f9;fill-opacity:1;fill-rule:evenodd;stroke:none;stroke-width:1;stroke-linecap:square;stroke-miterlimit:4;stroke-dasharray:none;stroke-opacity:1;paint-order:markers stroke fill" />
      <path
         inkscape:export-ydpi="95"
         inkscape:export-xdpi="95"
         inkscape:connector-curvature="0"
         id="path1972"
         d="m -10.24094,17.637398 c -0.40314,-0.144058 -0.66837,-0.582652 -1.26132,-2.08568 -0.46105,-1.168689 -2.21434,-5.562648 -3.0611,-7.671464 -1.67454,-4.17038 -2.58057,-6.69235 -2.58057,-7.183146 0,-0.09781 0.011,-0.11329 0.12879,-0.18917 0.16492,-0.10582 0.46754,-0.23061 0.75799,-0.312564 0.47334,-0.133561 0.61917,-0.117837 0.81018,0.08737 0.17131,0.184037 0.32327,0.500314 0.70682,1.471086 0.47589,1.204519 0.78426,1.963331 1.10834,2.727333 0.40001,0.942998 1.06465,2.445204 1.08183,2.445134 0.008,-2.6e-5 0.18904,-0.341623 0.40227,-0.759086 0.40718,-0.797234 0.56439,-1.070958 0.77255,-1.345127 0.1641,-0.216154 0.59633,-0.660239 0.80141,-0.823402 0.57033,-0.453744 1.23447,-0.768806 1.93804,-0.919386 0.39027,-0.08352 1.18558,-0.08992 1.54045,-0.01238 0.98615,0.21544 1.78941,0.761045 2.24037,1.521755 1.0608,1.789433 3.9953,8.618791 3.9953,9.298117 0,0.06413 -0.027,0.08415 -0.262,0.194323 -0.45481,0.21321 -0.94862,0.422264 -1.06908,0.452593 -0.27207,0.06851 -0.43227,-0.08644 -0.73936,-0.715098 C -3.17824,13.310465 -3.32968,12.940867 -4.00861,11.186154 -4.93265,8.797975 -5.27983,7.99607 -5.76561,7.127911 -6.40837,5.979197 -7.06463,5.330745 -7.77908,5.13838 -8.175,5.031778 -8.82226,5.06769 -9.27392,5.2213 c -0.95453,0.324641 -1.84167,1.286916 -2.18199,2.366795 -0.1207,0.382995 -0.16335,0.664265 -0.16249,1.071428 5.8e-4,0.321153 0.0118,0.419313 0.0756,0.671022 0.15881,0.626429 0.67029,2.013329 1.55948,4.22862 0.7024,1.74994 0.92369,2.348932 1.05034,2.843079 0.18174,0.709047 0.11169,0.936225 -0.34267,1.111435 -0.40353,0.155608 -0.7513,0.200197 -0.96523,0.123748 z"
         style="opacity:1;fill:#6ed5f9;fill-opacity:1;fill-rule:evenodd;stroke:none;stroke-width:1;stroke-linecap:square;stroke-miterlimit:4;stroke-dasharray:none;stroke-opacity:1;paint-order:markers stroke fill" />
      <path
         inkscape:connector-curvature="0"
         id="path1974"
         d="m -55.881196,35.277399 c -0.135572,-0.28005 -0.246498,-0.59934 -0.246498,-0.70949 0,-0.11016 -0.04532,-0.29252 -0.100569,-0.40521 -0.05536,-0.11268 -0.193963,-0.41725 -0.30804,-0.67682 -0.114043,-0.25953 -0.254628,-0.56412 -0.312323,-0.67681 -0.05765,-0.11267 -0.104909,-0.30034 -0.104909,-0.41702 0,-0.20889 -0.384114,-1.38609 -0.579094,-1.77475 -0.05491,-0.10948 -0.163277,-0.41137 -0.240801,-0.67095 -0.127479,-0.42678 -0.337081,-0.94037 -0.613283,-1.5027 -0.05536,-0.11268 -0.100913,-0.32507 -0.101371,-0.47194 -2.97e-4,-0.14688 -0.08003,-0.41915 -0.176977,-0.60501 -0.09692,-0.18588 -0.176246,-0.43494 -0.176246,-0.55346 0,-0.11855 -0.05309,-0.24834 -0.117992,-0.28845 -0.06484,-0.0401 -0.118312,-0.16271 -0.118711,-0.27243 -2.97e-4,-0.10971 -0.08003,-0.35159 -0.176977,-0.53745 -0.09692,-0.18588 -0.176246,-0.40335 -0.176246,-0.4833 0,-0.13652 -0.231076,-0.69233 -0.479526,-1.1534 -0.06073,-0.11267 -0.110389,-0.29739 -0.110389,-0.41044 0,-0.11313 -0.136018,-0.57833 -0.302263,-1.03397 -0.670671,-1.838025 -0.915057,-2.496503 -1.051862,-2.834157 -0.368999,-0.910764 -0.438178,-1.246487 -0.292914,-1.421511 0.0782,-0.09418 0.211475,-0.171258 0.296236,-0.171258 0.08471,0 0.224261,-0.07009 0.310004,-0.155675 0.154818,-0.154556 0.366054,-0.234477 1.15878,-0.438475 l 0.412949,-0.10628 4.365437,4.421526 c 3.645484,3.69231 4.418952,4.42136 4.689902,4.42067 h 0.324456 l 0.01165,-1.91725 c 0.0069,-1.05451 0.02317,-2.02345 0.03721,-2.15324 0.01404,-0.12979 0.03539,-2.124208 0.04737,-4.432067 l 0.02181,-4.196107 0.412951,-0.196921 c 0.227125,-0.108333 0.412949,-0.245298 0.412949,-0.304432 0,-0.05913 0.1991,-0.135344 0.442436,-0.169374 0.243347,-0.03402 0.587792,-0.09875 0.765443,-0.14386 0.254831,-0.06472 0.337948,-0.0355 0.393874,0.137981 0.03893,0.120972 0.204602,0.511958 0.36804,0.868856 0.163438,0.356922 0.33973,0.755123 0.391762,0.884885 0.05205,0.129784 0.44456,0.958275 0.87227,1.841104 0.42771,0.88283 0.777657,1.658831 0.777657,1.724437 0,0.06565 0.180618,0.484799 0.401374,0.93155 0.220756,0.446707 0.51262,1.061213 0.648603,1.36552 0.135972,0.304307 0.300471,0.586157 0.365529,0.626368 0.06507,0.04021 0.118289,0.16826 0.118289,0.28455 0,0.11629 0.132741,0.46106 0.294969,0.76618 0.162228,0.30511 0.294957,0.60206 0.294957,0.65984 0,0.16289 0.988105,2.17813 1.089704,2.22246 0.04954,0.0217 0.09019,0.1346 0.09019,0.25103 0,0.1164 0.07968,0.27778 0.176977,0.35855 0.09738,0.0808 0.176976,0.24165 0.176976,0.35752 0,0.11584 0.124865,0.46773 0.27748,0.78195 0.152628,0.31421 0.429229,0.91642 0.614688,1.33821 0.185447,0.42181 0.406112,0.85122 0.490359,0.95424 0.201852,0.24683 -0.04795,0.46993 -0.851596,0.76071 -0.324456,0.11741 -0.654106,0.26209 -0.732542,0.32152 -0.100002,0.0758 -0.165515,0.0169 -0.219261,-0.19729 -0.04213,-0.16796 -0.123985,-0.30536 -0.18184,-0.30536 -0.05788,0 -0.105251,-0.0765 -0.105251,-0.17002 0,-0.0935 -0.212378,-0.62754 -0.471946,-1.18683 -0.25957,-0.55925 -0.471935,-1.06677 -0.471935,-1.12781 0,-0.0611 -0.05308,-0.11095 -0.11798,-0.11095 -0.06485,0 -0.117993,-0.0563 -0.117993,-0.12502 0,-0.0688 -0.212365,-0.57 -0.471934,-1.11383 -0.259569,-0.54385 -0.471946,-1.06849 -0.471946,-1.16588 0,-0.0973 -0.04897,-0.20732 -0.108905,-0.24434 -0.05993,-0.037 -0.143758,-0.22598 -0.186349,-0.4199 -0.04258,-0.19393 -0.126326,-0.35259 -0.186053,-0.35259 -0.0597,0 -0.108563,-0.0843 -0.108563,-0.18717 0,-0.10286 -0.209796,-0.59403 -0.466203,-1.09136 -0.256395,-0.49732 -0.555622,-1.1564 -0.664939,-1.464625 -0.109362,-0.308268 -0.244637,-0.56044 -0.300711,-0.56044 -0.05605,0 -0.101942,-0.09543 -0.101942,-0.212148 0,-0.116679 -0.204453,-0.634348 -0.45433,-1.150345 -0.249878,-0.516012 -0.52713,-1.108095 -0.616104,-1.315745 -0.178312,-0.416124 -0.640189,-0.734929 -0.808513,-0.558077 -0.05742,0.06039 -0.136006,1.861801 -0.174625,4.003233 -0.117387,6.507887 -0.169533,7.387847 -0.456215,7.698487 -0.134751,0.14601 -0.345415,0.26546 -0.468156,0.26546 -0.122741,0 -0.322013,0.053 -0.442824,0.11759 -0.171166,0.0916 -0.297709,0.0519 -0.573146,-0.1799 -0.421306,-0.35449 -3.560141,-3.52718 -3.677631,-3.71729 -0.04498,-0.0728 -0.976278,-1.03309 -2.069498,-2.13393 -1.46126,-1.47147 -2.051576,-1.99241 -2.22902,-1.96701 -0.32449,0.0465 -0.371979,0.47657 -0.119647,1.08361 0.110846,0.26661 0.240869,0.59093 0.288999,0.72072 0.04817,0.12978 0.17451,0.43687 0.280835,0.68243 0.106395,0.24553 0.193336,0.51435 0.193336,0.59734 0,0.083 0.13273,0.42603 0.294957,0.76232 0.162228,0.33626 0.29497,0.74126 0.29497,0.89998 0,0.15873 0.05309,0.3214 0.11798,0.36152 0.06485,0.0401 0.117981,0.15467 0.117981,0.25459 0,0.0999 0.07603,0.34897 0.169032,0.55345 0.09292,0.20448 0.25345,0.63727 0.356637,0.96172 0.103197,0.32445 0.234089,0.6961 0.290882,0.8259 0.05685,0.12979 0.188324,0.4298 0.292286,0.66675 0.103997,0.23692 0.188998,0.50314 0.188998,0.59157 0,0.0884 0.111531,0.45209 0.247753,0.80808 0.136269,0.35599 0.275334,0.76748 0.309045,0.91445 0.03368,0.14698 0.108106,0.29612 0.165196,0.33142 0.0572,0.0352 0.10411,0.18053 0.104453,0.32271 2.74e-4,0.1422 0.133004,0.51972 0.294957,0.83894 0.161966,0.31923 0.294799,0.66434 0.295198,0.7669 3.08e-4,0.10252 0.08105,0.34037 0.179089,0.52849 0.09806,0.18811 0.164134,0.34948 0.146759,0.35864 -0.664985,0.34986 -1.37788,0.65618 -1.527083,0.65618 -0.112329,0 -0.298291,-0.21493 -0.440747,-0.5092 z"
         style="opacity:1;fill:#6ed5f9;fill-opacity:1;fill-rule:evenodd;stroke:none;stroke-width:1;stroke-linecap:square;stroke-miterlimit:4;stroke-dasharray:none;stroke-opacity:1;paint-order:markers stroke fill" />
      <path
         inkscape:connector-curvature="0"
         id="path1976"
         d="m -35.180502,26.860909 c -0.579021,-0.20986 -1.431167,-0.70228 -1.623441,-0.93808 -0.122158,-0.14984 -0.300315,-0.35578 -0.395903,-0.45771 -0.601182,-0.64098 -1.065647,-2.48091 -0.846241,-3.35229 0.340574,-1.35248 0.84966,-2.078574 2.08964,-2.980372 0.61506,-0.447313 2.151042,-1.203117 2.445022,-1.203117 0.09312,0 0.199124,-0.04817 0.235461,-0.106859 0.03634,-0.05881 0.26888,-0.139789 0.516758,-0.180011 0.516389,-0.08379 0.914205,-0.392915 0.914205,-0.710408 0,-0.382826 -0.586611,-1.397172 -1.073094,-1.855554 -0.571049,-0.538011 -1.615193,-0.833701 -2.177792,-0.616756 -0.191283,0.07375 -0.479263,0.134123 -0.639958,0.134123 -0.160694,0 -0.663086,0.18068 -1.1164,0.401485 -1.21458,0.591645 -1.293158,0.636587 -1.293158,0.739621 0,0.05187 -0.05928,0.09419 -0.131781,0.09419 -0.07244,0 -0.31399,0.138988 -0.536696,0.30885 -0.222695,0.169863 -0.445329,0.308851 -0.49473,0.308851 -0.202625,0 -0.813382,-0.86264 -0.813382,-1.148852 0,-0.213442 0.551398,-0.694463 1.148158,-1.001639 0.2518,-0.129594 0.45782,-0.282471 0.45782,-0.339714 0,-0.05725 0.07949,-0.104109 0.176687,-0.104109 0.09718,0 0.528019,-0.158949 0.957414,-0.35322 1.947544,-0.881142 3.413039,-1.096976 4.665942,-0.687172 0.627047,0.2051 1.859271,1.189755 1.859271,1.485744 0,0.09479 0.05558,0.172325 0.123544,0.172325 0.06789,0 0.123534,0.07949 0.123534,0.176496 0,0.09706 0.0716,0.249936 0.159105,0.339725 0.184696,0.189502 0.582117,1.005047 0.582117,1.194548 0,0.07111 0.138976,0.390609 0.308839,0.710085 0.169874,0.319477 0.30885,0.659393 0.30885,0.75541 0,0.152172 0.442126,1.219123 0.733167,1.769303 0.05511,0.104109 0.139454,0.36822 0.187468,0.586779 0.04805,0.218594 0.138463,0.39747 0.201012,0.39747 0.06252,0 0.113673,0.107934 0.113673,0.239786 0,0.131881 0.05558,0.274133 0.123544,0.316123 0.06789,0.04195 0.12388,0.170376 0.124298,0.285269 3.11e-4,0.11487 0.08379,0.3681 0.185305,0.56274 0.10148,0.19462 0.184542,0.40334 0.184542,0.46384 0,0.0604 0.136358,0.3927 0.303006,0.73814 0.248954,0.51606 0.276708,0.67021 0.15559,0.86415 -0.08104,0.12984 -0.217435,0.23607 -0.303006,0.23607 -0.08558,0 -0.15559,0.0491 -0.15559,0.10912 0,0.06 -0.09729,0.14178 -0.216192,0.18173 -0.118932,0.0399 -0.326015,0.14366 -0.460247,0.23056 -1.261542,0.81673 -3.0433,1.70224 -3.425134,1.70224 -0.09502,0 -0.225624,0.0479 -0.290181,0.1065 -0.367742,0.33377 -2.800979,0.63838 -3.391094,0.42451 z m 2.795386,-1.8337 c 1.042483,-0.4159 1.099881,-0.44292 2.424058,-1.14092 0.520332,-0.27426 0.586802,-0.35581 0.586802,-0.71996 0,-0.22586 -0.09108,-0.62102 -0.202422,-0.8781 -0.111282,-0.25711 -0.256174,-0.60645 -0.321855,-0.77631 -0.06563,-0.16986 -0.192298,-0.475613 -0.281383,-0.679434 -0.08905,-0.203861 -0.256019,-0.630675 -0.370969,-0.948478 -0.329338,-0.910535 -0.55067,-1.084843 -1.192504,-0.939115 -1.694095,0.384597 -2.679359,0.858122 -3.532103,1.697514 -0.475294,0.467876 -0.632342,0.729003 -0.761063,1.265583 -0.121836,0.50788 -0.127728,0.74045 -0.02366,0.93489 0.07614,0.14234 0.138511,0.34357 0.138511,0.44718 0,0.10363 0.150725,0.43794 0.334955,0.74294 0.631231,1.04506 2.004965,1.47161 3.201652,0.99421 z"
         style="opacity:1;fill:#6ed5f9;fill-opacity:1;fill-rule:evenodd;stroke:none;stroke-width:1;stroke-linecap:square;stroke-miterlimit:4;stroke-dasharray:none;stroke-opacity:1;paint-order:markers stroke fill" />
    </g>
    <path
       inkscape:connector-curvature="0"
       id="path4782"
       d="m 1091.1228,-1268.1712 c -0.267,-0.6773 -0.8348,-2.2389 -1.2619,-3.4703 l -0.7765,-2.2389 -4.6602,-0.3265 c -4.0099,-0.2809 -5.0613,-0.5309 -7.5343,-1.7912 -3.3617,-1.713 -5.4437,-4.353 -6.5826,-8.3465 -0.3956,-1.3868 -1.0826,-3.126 -1.5268,-3.8649 -1.3521,-2.2489 -2.8469,-9.1795 -1.9799,-9.1795 1.0385,0 2.889,1.511 2.8932,2.3623 0.01,1.2956 1.0663,4.7681 2.0161,6.6048 0.4114,0.7957 1.0404,2.4312 1.3978,3.6345 1.3177,4.4372 4.3225,6.462 10.2555,6.9109 2.6989,0.2042 3.3942,0.1255 3.5984,-0.4065 0.2793,-0.7278 -2.368,-7.4637 -2.9333,-7.4637 -0.5876,0 -3.5926,3.5372 -3.5926,4.2288 0,1.021 -0.8416,1.2756 -2.2659,0.6856 -2.3435,-0.9707 -1.3526,-3.7901 2.4488,-6.9677 1.1308,-0.9452 2.056,-1.912 2.056,-2.1483 0,-0.6121 -2.2585,-6.2203 -2.7514,-6.832 -0.2445,-0.3036 -1.9229,-0.5233 -4.1383,-0.5417 -6.6727,-0.055 -10.8457,-2.3957 -13.2484,-7.4302 -0.7455,-1.562 -1.3554,-3.1705 -1.3554,-3.5744 0,-0.404 -0.5106,-1.7421 -1.1347,-2.9736 -1.3801,-2.7236 -2.1323,-9.3784 -1.0587,-9.3666 1.1811,0.014 1.5964,0.669 2.121,3.3515 0.289,1.4777 1.0087,3.8957 1.5994,5.3734 0.5906,1.4776 1.4113,3.6417 1.8236,4.8089 0.8774,2.4831 3.4105,4.8694 5.9894,5.642 0.954,0.2858 3.0713,0.5197 4.7051,0.5197 3.3022,0 3.5087,-0.2523 2.3269,-2.8429 -0.354,-0.776 -0.9483,-2.1666 -1.3205,-3.0902 -0.3732,-0.9258 -0.9878,-1.6792 -1.37,-1.6792 -0.9036,0 -4.2781,3.0525 -4.2781,3.8698 0,0.5287 -0.2178,0.5184 -1.3434,-0.064 -1.5,-0.7757 -1.6463,-1.4736 -0.6945,-3.3141 0.6489,-1.2548 3.0586,-3.5963 4.5857,-4.4559 0.7732,-0.4352 0.7616,-0.5968 -0.2516,-3.5076 -1.7511,-5.0306 -1.7395,-5.0206 -5.7615,-5.013 -7.6475,0.014 -12.1241,-2.9668 -14.4677,-9.6348 -0.4978,-1.4163 -1.3919,-3.3158 -1.9869,-4.2211 -1.255,-1.9093 -1.995,-4.7813 -2.0105,-7.803 -0.012,-2.262 0.2647,-2.4609 2.5638,-1.8447 0.8753,0.2345 1.0101,0.5716 1.0272,2.5686 0.011,1.2642 0.3264,3.1046 0.7013,4.0898 0.375,0.9851 1.0342,3.1338 1.465,4.7749 1.4987,5.7097 4.0436,7.633 10.4638,7.9081 2.787,0.1194 3.9181,0.017 3.9181,-0.3556 0,-1.1627 -2.8105,-7.1779 -3.3537,-7.1779 -0.7283,0 -3.1809,2.7509 -3.5835,4.0193 -0.2283,0.7193 -0.5305,0.874 -1.2709,0.6508 -0.5343,-0.1611 -1.1185,-0.4275 -1.2983,-0.592 -0.7489,-0.6849 0.7005,-3.7244 2.8076,-5.8876 1.2216,-1.2541 2.2221,-2.5187 2.2234,-2.8101 0,-0.2915 -0.6152,-2.0652 -1.37,-3.9417 l -1.3725,-3.4117 -4.3392,-0.2477 c -5.3724,-0.3067 -7.2165,-0.9004 -9.7655,-3.1441 -2.1722,-1.9121 -3.3584,-3.8955 -4.2009,-7.0243 -0.2978,-1.1055 -0.9464,-2.8042 -1.4416,-3.7749 -0.7476,-1.4653 -1.8702,-8.5795 -1.441,-9.1319 0.062,-0.08 0.7067,0.1621 1.4327,0.5376 1.1543,0.597 1.3518,0.9902 1.5728,3.1322 0.1414,1.3696 0.861,3.6961 1.6322,5.2769 0.7586,1.555 1.3793,3.0902 1.3793,3.4115 0,0.9589 1.6277,3.8369 2.7551,4.8715 1.4977,1.3744 3.9569,2.2873 6.4832,2.4065 3.36,0.1585 4.1952,0.037 4.1952,-0.6072 0,-0.7646 -2.191,-6.2144 -2.72,-6.7656 -0.5666,-0.5904 -2.371,1.2143 -3.3214,3.322 l -0.7819,1.7339 -1.514,-0.722 c -0.8326,-0.3971 -1.5139,-0.8766 -1.5139,-1.0657 0,-1.0569 1.3363,-3.1406 3.4063,-5.3115 l 2.3483,-2.4628 -1.4459,-3.5823 -1.446,-3.5823 -4.23,-0.2756 c -2.3265,-0.1517 -4.8517,-0.4807 -5.6117,-0.7313 -3.4595,-1.1406 -6.3281,-4.0371 -7.5873,-7.6611 -0.3973,-1.1433 -1.1352,-3.0862 -1.6397,-4.3176 -1.2477,-3.045 -2.0151,-5.9043 -2.3899,-8.9043 -0.3459,-2.7682 0.045,-3.1364 1.9283,-1.8171 0.6759,0.4734 0.9952,1.1568 0.9952,2.1299 0,0.7881 0.1903,2.036 0.4228,2.7732 1.0169,3.2237 3.662,9.0691 4.687,10.358 1.5388,1.935 4.514,3.2671 8.0303,3.5954 2.48,0.2316 3.0043,0.1591 3.2373,-0.4483 0.2847,-0.7419 -1.8943,-6.8671 -2.5974,-7.3017 -0.5512,-0.3406 -3.4248,2.8172 -3.7527,4.1238 -0.3173,1.2641 -0.2469,1.2409 -1.7222,0.5687 -0.6273,-0.2859 -1.1406,-0.8095 -1.1406,-1.1638 0,-1.3751 1.5489,-3.7959 3.4906,-5.4557 l 2.0312,-1.7362 -1.575,-4.1821 -1.5749,-4.1822 -4.4712,-0.2475 c -7.4265,-0.4111 -10.8413,-2.7065 -13.1312,-8.8269 -0.5119,-1.368 -1.3541,-3.0819 -1.8716,-3.8087 -1.5162,-2.1294 -2.8809,-10.1777 -1.7258,-10.1777 0.2347,0 0.8964,0.2141 1.4704,0.4756 0.8358,0.3808 1.156,1.0675 1.6074,3.4475 0.3101,1.6345 0.7517,3.1983 0.9814,3.4751 0.2296,0.2767 0.7477,1.7982 1.1511,3.3811 0.4035,1.583 1.0058,3.4082 1.3384,4.0562 0.9273,1.8063 3.1258,3.4302 5.665,4.1842 2.6494,0.7868 6.8713,0.9058 7.3039,0.2059 0.4472,-0.7237 -2.4838,-8.4788 -3.2046,-8.4788 -0.7357,0 -3.224,3.3225 -3.5948,4.8002 -0.2077,0.8273 -0.4647,0.9855 -1.2187,0.7504 -1.3425,-0.4186 -1.5901,-0.9844 -1.131,-2.5851 0.2197,-0.7658 0.3993,-1.4561 0.3993,-1.534 0,-0.078 1.0365,-1.2377 2.3033,-2.5771 l 2.3032,-2.4353 -1.4717,-3.8068 -1.4718,-3.8068 h -3.6608 c -7.5262,0 -12.5156,-2.762 -14.7801,-8.1818 -0.9056,-2.1672 -0.88,-2.3327 0.455,-2.9409 1.7027,-0.7758 1.7905,-0.7206 3.0956,1.9468 1.3898,2.8407 3.3412,4.5056 6.3377,5.4075 2.8014,0.8431 6.8896,0.8523 6.8896,0.015 0,-0.8098 -2.1925,-6.6556 -2.6864,-7.1626 -0.6045,-0.6204 -3.4165,1.3738 -4.0319,2.8595 -0.6472,1.5625 -0.8953,1.6205 -2.2475,0.5256 -0.9967,-0.8071 -0.9983,-0.8278 -0.1955,-2.5195 0.4565,-0.962 1.7396,-2.374 2.9427,-3.2384 l 2.1333,-1.5326 -0.602,-1.6571 c -0.3311,-0.9113 -0.9369,-2.4392 -1.3463,-3.3951 -0.4094,-0.956 -0.5794,-1.8863 -0.3778,-2.0673 0.2015,-0.181 7.5198,-3.0593 16.2627,-6.3962 8.7429,-3.3369 27.2811,-10.4433 41.196,-15.7921 13.9148,-5.3488 34.1657,-13.1306 45.0021,-17.293 10.8363,-4.1624 20.4376,-7.8534 21.3363,-8.2022 1.6044,-0.6228 1.6421,-0.6125 2.0941,0.5754 0.253,0.6653 1.6969,4.5344 3.2085,8.5981 1.5115,4.0636 3.0246,8.0936 3.3625,8.9556 0.3378,0.862 1.8491,4.892 3.3583,8.9557 1.5093,4.0636 3.0243,8.0936 3.3666,8.9556 1.4457,3.6396 13.6831,36.0202 24.7074,65.3762 6.5204,17.3627 15.0789,40.0048 19.0189,50.3157 3.94,10.3109 6.9957,18.907 6.7904,19.1026 -0.3888,0.3703 -9.4795,3.9822 -18.7324,7.4425 -2.9554,1.1053 -6.2951,2.3893 -7.4216,2.8534 -1.1266,0.4641 -3.0409,1.1757 -4.254,1.5814 -1.2131,0.4056 -2.8101,0.9992 -3.549,1.3191 -0.7388,0.3198 -10.2094,3.9484 -21.0457,8.0635 -18.1014,6.8739 -41.2807,15.8159 -43.4349,16.756 -0.4926,0.215 -1.6008,0.643 -2.4628,0.9511 -0.862,0.308 -2.1717,0.8109 -2.9106,1.1175 -5.446,2.2598 -19.5354,7.3683 -20.3219,7.3683 -0.6419,0 -1.134,-0.4164 -1.4552,-1.2314 z m 12.4325,-8.2158 c 5.8784,-2.2406 11.9977,-4.5372 13.5985,-5.1036 1.6009,-0.5663 9.0564,-3.3483 16.568,-6.1821 7.5115,-2.8339 19.8542,-7.4866 27.4281,-10.3395 7.5739,-2.8528 16.037,-6.0761 18.8069,-7.1627 2.7698,-1.0867 9.4691,-3.6277 14.8872,-5.6468 16.3176,-6.0807 16.7919,-6.2793 16.7919,-7.0349 0,-0.8638 -20.1654,-54.2566 -29.645,-78.4922 -0.7225,-1.8472 -1.4733,-3.8622 -1.6685,-4.4779 -0.1953,-0.6157 -0.7721,-2.1269 -1.2818,-3.3583 -0.5098,-1.2314 -2.2746,-5.866 -3.9218,-10.299 -5.2301,-14.0756 -23.5786,-62.3396 -24.3434,-64.0329 -0.2225,-0.4925 -0.5252,-1.2691 -0.6727,-1.7256 -0.1476,-0.4566 -0.5185,-0.7261 -0.8243,-0.599 -0.3058,0.1271 -5.8957,2.2816 -12.4221,4.7878 -6.5265,2.5062 -13.176,5.0678 -14.7769,5.6925 -4.7798,1.8652 -7.6282,2.9501 -22.1652,8.4421 -7.6347,2.8843 -20.027,7.6127 -27.5386,10.5074 -7.5115,2.8947 -18.4934,7.1177 -24.4041,9.3843 -5.9107,2.2667 -11.9558,4.5892 -13.4335,5.1611 -1.4776,0.5719 -3.0607,1.1588 -3.5178,1.3043 -0.6537,0.208 -0.7657,0.5264 -0.5248,1.4917 0.6314,2.5302 1.2444,2.7702 4.6143,1.8073 7.0154,-2.0048 11.9982,0.3087 12.5275,5.8164 0.2821,2.9361 -0.7549,5.0519 -3.4104,6.9584 -2.1177,1.5204 -4.9734,2.9891 -5.8119,2.9891 -0.2561,0 -0.5762,0.1789 -0.7113,0.3975 -0.2488,0.4026 2.1708,6.6852 2.8275,7.342 0.1961,0.196 1.3312,0.1381 2.5224,-0.1289 7.9825,-1.7889 13.2085,0.3562 13.1978,5.4174 -0.01,3.917 -3.8646,8.6061 -8.1282,9.8835 -0.9454,0.2832 -1.7188,0.6793 -1.7188,0.8802 0,0.5359 2.6994,7.2732 3.0664,7.6531 0.1721,0.1781 2.0619,0 4.1997,-0.3898 8.0252,-1.4736 11.7771,0.6534 12.2897,6.9671 0.1611,1.9835 0.015,2.8011 -0.7059,3.9439 -1.2995,2.0611 -4.3184,4.0955 -7.3124,4.9279 -1.4201,0.3949 -2.5819,0.8842 -2.5819,1.0875 0,0.5481 2.3161,6.3415 2.7736,6.9378 0.2913,0.3796 1.12,0.2929 3.1761,-0.3324 3.9697,-1.2073 8.2672,-1.1385 10.2162,0.1635 2.1553,1.4398 3.1986,3.6482 2.8874,6.1116 -0.5077,4.0178 -4.7394,8.6975 -8.3933,9.2818 -0.9483,0.1517 -1.7995,0.4004 -1.8915,0.5527 -0.1994,0.3304 2.326,6.8228 2.8724,7.3847 0.2159,0.2219 2.0358,0.062 4.2118,-0.3695 7.7141,-1.5307 12.0575,0.8993 12.0053,6.7165 -0.038,4.3164 -3.4943,8.4942 -8.0436,9.7249 -1.0467,0.2831 -1.9031,0.7798 -1.9031,1.1038 0,0.3239 0.6399,2.1134 1.4219,3.9765 1.3956,3.3246 1.4474,3.3826 2.7986,3.1298 7.3955,-1.3836 9.8829,-1.2806 12.2736,0.5085 1.7071,1.2775 3.2083,4.3951 3.2083,6.6626 0,4.2282 -3.5512,7.5386 -9.5154,8.8702 -1.5185,0.339 -1.5249,0.7184 -0.073,4.3227 1.3671,3.393 1.7318,3.8584 2.5165,3.2116 0.3183,-0.2623 1.7743,-0.6971 3.2357,-0.9661 8.2352,-1.5161 12.1102,0.7619 12.1168,7.1231 0,2.4871 -0.1757,3.1442 -1.2248,4.5154 -1.2537,1.6386 -4.7802,3.6427 -7.3916,4.2005 -1.3043,0.2786 -1.4254,0.4346 -1.1695,1.5067 0.356,1.4914 0.5635,1.8676 1.0304,1.8676 0.2026,0 5.1778,-1.8333 11.0562,-4.0739 z"
       style="fill:#032050;fill-opacity:1;fill-rule:evenodd;stroke:none;stroke-width:1.71554;stroke-linecap:square;stroke-miterlimit:4;stroke-dasharray:none;stroke-opacity:1;paint-order:markers stroke fill"
       clip-path="url(#clipPath104)"
       transform="translate(-848.7069,1327.7247)" />
    <path
       style="fill:#032050;fill-opacity:1;stroke:#00ffff;stroke-width:0.453906;stroke-opacity:1"
       d="m 1130.5585,-1312.1147 c -3.0849,0.9645 -5.7017,1.3004 -7.5723,0.972 -2.1903,-0.3844 -3.8075,-1.5828 -5.5246,-4.0936 -1.3248,-1.9373 -1.5867,-2.5265 -4.5927,-10.3308 -2.8565,-7.4161 -3.1808,-8.1648 -4.1544,-9.5897 -1.0407,-1.5231 -2.072,-2.2405 -3.4682,-2.4126 -1.2509,-0.1543 -2.1212,0.01 -4.4442,0.8122 l -2.0272,0.7046 -1.2517,-3.3526 -1.2516,-3.3525 2.0918,-0.8347 c 1.7169,-0.6851 2.2168,-0.9242 2.7892,-1.334 1.7904,-1.2816 2.3387,-2.559 2.0903,-4.8703 -0.1784,-1.6599 -0.4499,-2.5205 -3.1601,-10.0173 -2.8466,-7.8738 -3.0316,-8.4805 -3.3024,-10.8292 -0.5334,-4.6253 0.7669,-7.0065 5.2705,-9.651 0.6303,-0.3701 1.7028,-0.8398 3.7668,-1.6498 l 2.8856,-1.1321 1.2641,3.386 1.264,3.3859 -2.159,0.806 c -3.8752,1.4468 -5.0196,2.4644 -4.9485,4.387 0.06,1.621 0.2737,2.3174 3.1462,10.2526 2.2473,6.2079 2.745,7.6647 2.94,8.607 0.7446,3.5968 0.4417,6.1098 -0.9684,8.0362 l -0.4757,0.6498 0.5628,0.1188 c 2.0184,0.4256 3.9179,1.8464 5.3017,3.9653 1.1759,1.8007 1.3915,2.2958 4.3511,9.991 3.0392,7.9026 3.3211,8.538 4.3593,9.8279 0.7417,0.9214 1.5352,1.2027 3.0254,1.0723 0.6342,-0.056 1.2115,-0.2162 2.9651,-0.8253 l 2.1776,-0.7563 0.1623,0.4347 c 0.1556,0.4168 0.1746,0.4301 0.4601,0.3235 l 0.2978,-0.1111 1.1118,2.978 1.1118,2.978 -1.7688,0.6394 c -0.9729,0.3517 -2.0196,0.7178 -2.3259,0.8136 z m 27.4631,-14.9004 -1.2598,-3.3746 2.3885,-0.9486 c 1.9924,-0.7914 2.5022,-1.0297 3.0736,-1.4372 1.6766,-1.1956 1.9149,-1.9077 1.4981,-4.4757 -0.05,-0.3066 -1.2441,-3.74 -2.7701,-7.9636 -1.6044,-4.4405 -2.7855,-7.8408 -2.9383,-8.4602 -1.0064,-4.0765 -0.8028,-6.6029 0.7102,-8.8116 l 0.4974,-0.7262 -0.5976,-0.148 c -2.2362,-0.554 -3.948,-1.9058 -5.4338,-4.2912 -1.1893,-1.9093 -1.5354,-2.7087 -4.4472,-10.272 -2.2946,-5.9602 -2.8987,-7.4496 -3.2564,-8.0283 -1.0045,-1.625 -1.5995,-2.1073 -2.7407,-2.221 -1.1384,-0.1134 -2.0633,0.079 -4.6247,0.9606 l -2.28,0.7851 -1.255,-3.3616 -1.255,-3.3616 1.6627,-0.6207 c 7.0683,-2.6318 11.0752,-2.6049 13.8133,0.1012 1.1251,1.1118 2.0368,2.4159 3.1668,4.5294 0.5159,0.965 1.1366,2.4959 3.4254,8.4479 3.0125,7.834 3.1477,8.135 4.3353,9.6547 0.9316,1.1921 1.8256,1.7036 3.1635,1.8099 1.1538,0.092 2.0149,-0.081 4.2934,-0.8596 l 2.0812,-0.7115 1.2551,3.3618 1.2551,3.3618 -1.8608,0.6961 c -1.4251,0.5335 -2.0546,0.818 -2.6888,1.2163 -2.2896,1.4382 -2.8454,2.9667 -2.2892,6.2958 0.1274,0.7625 0.5734,2.0743 2.832,8.3303 2.6243,7.2688 2.8624,8.0077 3.2856,10.1967 0.7581,3.9204 0.105,6.6885 -2.0581,8.7231 -1.6306,1.5337 -3.1981,2.4148 -6.8368,3.8433 l -2.8854,1.1328 -1.2598,-3.3746 z m -10.923,-10.4749 c -2.6171,0.3902 -4.8017,-0.4521 -7.2182,-2.7832 -1.0961,-1.0572 -2.8326,-3.238 -4.2443,-5.3303 -0.6538,-0.9689 -1.295,-1.9185 -1.425,-2.1101 l -0.2362,-0.3485 -0.2354,1.6556 c -1.4268,10.0389 -3.65,14.9658 -7.3864,16.3691 -1.4737,0.5537 -2.9374,0.4714 -4.386,-0.246 -1.2442,-0.6161 -2.0075,-1.4538 -2.4862,-2.7287 -0.8333,-2.2186 0.01,-4.819 2.1239,-6.56 l 0.4775,-0.3931 2.2852,1.4045 2.2852,1.4046 0.3224,-0.4808 c 0.1773,-0.2645 0.593,-1.0272 0.9237,-1.6951 1.3847,-2.7964 2.3557,-6.2996 2.8741,-10.3695 l 0.2086,-1.6371 -1.3693,-1.775 c -1.803,-2.3374 -3.773,-4.7541 -5.1301,-6.2936 -1.062,-1.2048 -2.9387,-3.056 -3.3659,-3.3202 -0.1828,-0.113 -0.6131,-0.014 -3.4608,0.8032 -1.7886,0.5128 -3.3145,0.9355 -3.3909,0.9393 -0.1012,0.01 -0.2635,-0.3274 -0.6001,-1.2288 l -0.4613,-1.2357 4.324,-3.4899 c 4.5818,-3.698 4.7389,-3.8034 5.8982,-3.9559 1.5818,-0.2081 3.2316,0.5295 4.9159,2.1981 1.3217,1.3094 3.5727,4.2287 5.7905,7.5099 0.3945,0.5837 0.7431,1.0516 0.7747,1.0397 0.032,-0.012 0.093,-0.3783 0.1368,-0.8145 0.1323,-1.3234 0.6102,-4.0669 1.0276,-5.8973 1.1228,-4.9252 2.7016,-8.0639 4.9378,-9.8164 0.841,-0.6591 2.3214,-1.2217 3.2421,-1.2322 1.5861,-0.018 3.0309,0.7354 3.9843,2.0777 0.4294,0.6048 0.9796,2.0923 1.0533,2.8479 0.1869,1.9171 -0.6544,3.935 -2.2333,5.3547 -0.2518,0.2265 -0.5192,0.4112 -0.5944,0.4105 -0.075,-9e-4 -1.0444,-0.621 -2.154,-1.3784 -1.1096,-0.7574 -2.0433,-1.3914 -2.0748,-1.4089 -0.099,-0.055 -0.7633,0.755 -1.2563,1.5305 -1.5277,2.4032 -2.5547,6.1832 -2.961,10.8985 l -0.055,0.6427 1.3563,1.8688 c 5.4796,7.5501 7.3654,9.6355 9.5247,10.5333 1.5221,0.6328 2.563,0.5672 4.5708,-0.288 1.1503,-0.4899 2.307,-1.1136 2.84,-1.5312 0.1579,-0.1237 0.1892,-0.062 0.6861,1.3491 l 0.5208,1.4788 -1.1002,0.8401 c -1.5775,1.2048 -3.6258,2.6354 -4.7995,3.3522 -1.2968,0.792 -3.4834,1.694 -4.4594,1.8395 z"
       id="path4786"
       inkscape:connector-curvature="0"
       clip-path="url(#clipPath103)"
       transform="translate(-848.7069,1327.7247)" />
    <g
       id="g88754"
       style="fill:#032050;fill-opacity:1"
       transform="matrix(4.0004051,0,0,4.0004051,121.42324,-129.0091)"
       clip-path="url(#clipPath102)">
      <path
         inkscape:connector-curvature="0"
         id="path11639"
         d="M 39.684539,10.096758 C 39.426895,10.046428 39.334205,9.999098 39.176191,9.837162 38.815977,9.468014 38.322223,8.468075 37.640536,6.727181 37.319483,5.907274 37.228833,5.717018 37.087519,5.566511 36.923807,5.392153 36.74108,5.398137 36.36352,5.590221 c -0.06461,0.03288 -0.137024,0.05976 -0.160921,0.05976 -0.04136,0 -0.04293,-0.0053 -0.03269,-0.10993 0.01637,-0.16711 0.05261,-0.268376 0.78334,-2.188811 0.09897,-0.260119 0.184407,-0.473049 0.189852,-0.47318 0.0054,-1.15e-4 0.06939,0.148172 0.142112,0.329558 0.289407,0.721867 0.364068,0.835552 0.559353,0.85169 0.148702,0.01229 0.265885,-0.01704 0.688994,-0.172421 0.200459,-0.07361 0.434735,-0.151271 0.520609,-0.172558 0.153618,-0.03808 0.157324,-0.03812 0.229767,-0.0027 0.09519,0.04659 0.201367,0.220204 0.213847,0.349658 0.02101,0.21778 -0.110084,0.308917 -1.012181,0.703749 -0.226839,0.09928 -0.420192,0.188007 -0.42968,0.197166 -0.01003,0.0097 0.05894,0.197341 0.166545,0.452566 0.221105,0.524416 0.305055,0.734335 0.637082,1.593048 0.314438,0.813223 0.421479,1.069568 0.569455,1.363769 0.214031,0.425526 0.40723,0.664547 0.621998,0.769513 0.101814,0.04976 0.13226,0.05529 0.304933,0.05529 0.227059,5e-6 0.348202,-0.03306 0.713298,-0.194608 0.279956,-0.123885 0.371091,-0.140602 0.460697,-0.08451 0.116533,0.07294 0.350501,0.403951 0.350866,0.49641 3.68e-4,0.07438 -0.119833,0.162909 -0.429259,0.316335 -0.311155,0.15428 -0.646257,0.274952 -0.935081,0.336741 -0.236165,0.05052 -0.650337,0.06543 -0.831921,0.02998 z"
         style="fill:#032050;fill-opacity:1;fill-rule:evenodd;stroke:none;stroke-width:0.428842;stroke-linecap:square;stroke-miterlimit:4;stroke-dasharray:none;stroke-opacity:1;paint-order:markers stroke fill" />
      <path
         inkscape:export-ydpi="95"
         inkscape:export-xdpi="95"
         inkscape:connector-curvature="0"
         id="path11641"
         d="M 44.007494,8.607446 C 43.83461,8.545666 43.720868,8.357581 43.466586,7.713019 43.268868,7.211835 42.516984,5.32752 42.153857,4.42317 41.435742,2.634733 41.047199,1.553206 41.047199,1.342732 c 0,-0.04195 0.0046,-0.04859 0.05523,-0.08112 0.07072,-0.04538 0.200502,-0.0989 0.325059,-0.13404 0.202987,-0.05727 0.265525,-0.05053 0.34744,0.03747 0.07346,0.07892 0.138631,0.214557 0.303114,0.630863 0.204081,0.51655 0.336323,0.841961 0.475303,1.169598 0.17154,0.404396 0.456566,1.048606 0.463935,1.048576 0.0034,-1.1e-5 0.08107,-0.146503 0.17251,-0.325528 0.174616,-0.341888 0.242034,-0.459272 0.331301,-0.576847 0.07037,-0.0927 0.255733,-0.283139 0.343679,-0.35311 0.244582,-0.194585 0.529393,-0.329697 0.831115,-0.394271 0.167363,-0.03581 0.508426,-0.03856 0.66061,-0.0053 0.422902,0.09239 0.767374,0.326369 0.960765,0.652593 0.454915,0.767386 1.713355,3.696104 1.713355,3.987428 0,0.0275 -0.01158,0.03608 -0.112358,0.08334 -0.195042,0.09144 -0.406809,0.181085 -0.458466,0.194091 -0.116676,0.02937 -0.185376,-0.03707 -0.31707,-0.306664 C 47.036279,6.751898 46.971334,6.593399 46.680181,5.840904 46.283914,4.816752 46.135028,4.47286 45.926705,4.100558 45.651062,3.60794 45.369631,3.329856 45.063243,3.247362 c -0.169787,-0.04571 -0.447359,-0.03031 -0.641051,0.03556 -0.409343,0.139221 -0.789786,0.551884 -0.935729,1.014982 -0.05177,0.164244 -0.07005,0.284865 -0.06968,0.459474 2.49e-4,0.137724 0.0051,0.17982 0.03241,0.287763 0.06811,0.268639 0.287449,0.863401 0.668771,1.813412 0.301219,0.750448 0.396118,1.007321 0.45043,1.219233 0.07794,0.304069 0.0479,0.401492 -0.14695,0.47663 -0.173052,0.06674 -0.32219,0.08585 -0.413932,0.05307 z"
         style="fill:#032050;fill-opacity:1;fill-rule:evenodd;stroke:none;stroke-width:0.428842;stroke-linecap:square;stroke-miterlimit:4;stroke-dasharray:none;stroke-opacity:1;paint-order:markers stroke fill" />
      <path
         inkscape:connector-curvature="0"
         id="path25-9"
         d="m 24.435017,16.172228 c -0.05813,-0.120098 -0.10571,-0.257023 -0.10571,-0.30426 0,-0.04724 -0.01944,-0.125445 -0.04313,-0.173771 -0.02374,-0.04833 -0.08318,-0.178934 -0.132101,-0.290249 -0.04891,-0.111298 -0.109195,-0.24192 -0.133937,-0.290245 -0.02472,-0.04831 -0.04499,-0.1288 -0.04499,-0.178836 0,-0.08958 -0.164724,-0.594415 -0.24834,-0.761088 -0.02355,-0.04695 -0.07001,-0.176412 -0.10326,-0.287732 -0.05467,-0.183021 -0.144555,-0.403271 -0.263002,-0.644421 -0.02374,-0.04833 -0.04327,-0.139405 -0.04347,-0.202388 -1.28e-4,-0.06299 -0.03432,-0.17975 -0.0759,-0.259454 -0.04156,-0.07972 -0.07558,-0.18652 -0.07558,-0.237348 0,-0.05084 -0.02276,-0.106498 -0.0506,-0.1237 -0.0278,-0.01719 -0.05073,-0.06978 -0.05091,-0.116829 -1.28e-4,-0.04705 -0.03431,-0.150776 -0.0759,-0.23048 -0.04156,-0.07972 -0.07558,-0.172974 -0.07558,-0.20726 0,-0.05855 -0.09909,-0.296901 -0.205641,-0.494627 -0.02605,-0.04831 -0.04734,-0.127534 -0.04734,-0.176014 0,-0.04852 -0.05833,-0.248013 -0.129624,-0.443411 C 22.242389,9.961893 22.137587,9.679509 22.078919,9.534709 21.920676,9.144134 21.891009,9.000162 21.953305,8.925104 c 0.03354,-0.04039 0.09069,-0.07344 0.127039,-0.07344 0.03633,0 0.09618,-0.03006 0.132943,-0.06676 0.06639,-0.06628 0.156979,-0.100557 0.496933,-0.188037 l 0.177091,-0.04558 1.872083,1.896137 c 1.563339,1.583419 1.895035,1.896067 2.01123,1.895772 h 0.13914 l 0.005,-0.822199 c 0.003,-0.452219 0.0099,-0.867741 0.01596,-0.923401 0.006,-0.05566 0.01518,-0.91095 0.02031,-1.900659 l 0.0093,-1.799468 0.17709,-0.08444 c 0.0974,-0.04646 0.17709,-0.105192 0.17709,-0.130554 0,-0.02535 0.08538,-0.05804 0.189736,-0.07263 0.104359,-0.01459 0.25207,-0.04235 0.328255,-0.06169 0.109281,-0.02776 0.144926,-0.01523 0.168909,0.05917 0.01669,0.05187 0.08774,0.219549 0.157832,0.372602 0.07009,0.153063 0.14569,0.323828 0.168003,0.379476 0.02232,0.05565 0.190647,0.410949 0.374066,0.789543 0.18342,0.378596 0.333494,0.711377 0.333494,0.739512 0,0.02815 0.07746,0.207902 0.172124,0.399488 0.09468,0.191567 0.219835,0.455093 0.278149,0.585593 0.05831,0.130501 0.128856,0.251369 0.156755,0.268614 0.02791,0.01725 0.05072,0.07215 0.05072,0.122026 0,0.04988 0.05693,0.197722 0.126495,0.328571 0.06957,0.130844 0.126491,0.258189 0.126491,0.282967 0,0.06986 0.42374,0.934075 0.46731,0.953085 0.02124,0.0093 0.03868,0.05772 0.03868,0.107652 0,0.04992 0.03418,0.119123 0.0759,0.153762 0.04176,0.03465 0.0759,0.10363 0.0759,0.15332 0,0.04968 0.05354,0.200582 0.118994,0.335333 0.06545,0.134747 0.184073,0.392999 0.263605,0.573881 0.07953,0.18089 0.174158,0.365039 0.210287,0.409218 0.08657,0.105851 -0.02057,0.201526 -0.365201,0.326226 -0.13914,0.05035 -0.280508,0.112394 -0.314146,0.13788 -0.04289,0.03251 -0.07098,0.0073 -0.09403,-0.0846 -0.01807,-0.07203 -0.05317,-0.130951 -0.07798,-0.130951 -0.02482,0 -0.04514,-0.0328 -0.04514,-0.07292 0,-0.0401 -0.09108,-0.269116 -0.202391,-0.508963 -0.111314,-0.23983 -0.202386,-0.457476 -0.202386,-0.483653 0,-0.02621 -0.02275,-0.04758 -0.05059,-0.04758 -0.02781,0 -0.05059,-0.02415 -0.05059,-0.05362 0,-0.0295 -0.09108,-0.244439 -0.202386,-0.477657 -0.111315,-0.233226 -0.202391,-0.458214 -0.202391,-0.499979 0,-0.04173 -0.021,-0.0889 -0.0467,-0.104781 -0.02571,-0.01587 -0.06165,-0.09691 -0.07992,-0.180072 -0.01827,-0.08317 -0.05416,-0.151204 -0.07979,-0.151204 -0.0256,0 -0.04655,-0.03615 -0.04655,-0.08026 0,-0.04411 -0.08997,-0.254744 -0.199927,-0.468021 C 28.826148,10.468541 28.697826,10.1859 28.650946,10.05372 28.604056,9.921521 28.546039,9.813379 28.521989,9.813379 c -0.02403,0 -0.04372,-0.04092 -0.04372,-0.09098 0,-0.05004 -0.08768,-0.272035 -0.194836,-0.493317 C 28.176274,9.007794 28.057377,8.753884 28.019222,8.664835 27.942752,8.486383 27.744681,8.349666 27.672497,8.425508 c -0.02462,0.0259 -0.05832,0.798419 -0.07488,1.716757 -0.05034,2.790857 -0.07271,3.168222 -0.195645,3.301437 -0.0578,0.06262 -0.148127,0.113839 -0.200764,0.113839 -0.05263,0 -0.138093,0.02273 -0.189901,0.05043 -0.0734,0.03928 -0.127671,0.02226 -0.24579,-0.07714 -0.180674,-0.152021 -1.52674,-1.512605 -1.577124,-1.594133 -0.01929,-0.03121 -0.41867,-0.443032 -0.887489,-0.915118 -0.62665,-0.631029 -0.879802,-0.85443 -0.955898,-0.843537 -0.139155,0.01994 -0.15952,0.204372 -0.0513,0.464697 0.04753,0.114333 0.103292,0.253416 0.123935,0.309075 0.02066,0.05565 0.07484,0.187349 0.120434,0.292656 0.04563,0.105287 0.08291,0.220574 0.08291,0.256164 0,0.03559 0.05692,0.1827 0.126491,0.326915 0.06957,0.144203 0.126495,0.317884 0.126495,0.385949 0,0.06807 0.02276,0.13783 0.05059,0.155035 0.02781,0.0172 0.0506,0.06633 0.0506,0.109179 0,0.04284 0.0326,0.149653 0.07248,0.237343 0.03985,0.08769 0.108691,0.273288 0.152941,0.412427 0.04426,0.139138 0.100389,0.298516 0.124744,0.35418 0.02438,0.05566 0.08076,0.184317 0.125344,0.285931 0.0446,0.101603 0.08104,0.215768 0.08104,0.253691 0,0.0379 0.04783,0.193875 0.106247,0.346538 0.05843,0.152665 0.118075,0.329129 0.132532,0.392155 0.01444,0.06303 0.04635,0.126989 0.07085,0.142128 0.02453,0.0151 0.04464,0.07742 0.0448,0.138392 1.17e-4,0.06097 0.05704,0.222877 0.12649,0.359773 0.06945,0.136899 0.126422,0.284896 0.126594,0.328878 1.31e-4,0.04397 0.03475,0.145965 0.0768,0.226639 0.04205,0.08068 0.07039,0.149872 0.06294,0.153801 -0.285172,0.150034 -0.590892,0.281398 -0.654877,0.281398 -0.04817,0 -0.12792,-0.09217 -0.189011,-0.218367 z"
         style="fill:#032050;fill-opacity:1;fill-rule:evenodd;stroke:none;stroke-width:0.428842;stroke-linecap:square;stroke-miterlimit:4;stroke-dasharray:none;stroke-opacity:1;paint-order:markers stroke fill" />
      <path
         inkscape:connector-curvature="0"
         id="path27"
         d="m 33.312352,12.56288 c -0.248309,-0.09 -0.613745,-0.301168 -0.696201,-0.402289 -0.05238,-0.06426 -0.128788,-0.152574 -0.16978,-0.196285 -0.257812,-0.274879 -0.456994,-1.06392 -0.362904,-1.437605 0.146053,-0.580001 0.36437,-0.891381 0.896126,-1.278109 0.263765,-0.191827 0.922458,-0.515947 1.048529,-0.515947 0.03993,0 0.0854,-0.02066 0.100969,-0.04582 0.01558,-0.02521 0.115307,-0.05995 0.221609,-0.0772 0.221448,-0.03594 0.392048,-0.168498 0.392048,-0.304652 0,-0.164172 -0.251563,-0.599167 -0.460187,-0.79574 C 34.03767,7.278511 33.589897,7.151707 33.34863,7.244741 c -0.08203,0.03163 -0.205528,0.05752 -0.27444,0.05752 -0.06891,0 -0.28436,0.07749 -0.47876,0.172173 -0.520863,0.253722 -0.554561,0.272996 -0.554561,0.317181 0,0.02225 -0.02542,0.04039 -0.05652,0.04039 -0.03107,0 -0.134652,0.05961 -0.230157,0.132448 -0.0955,0.07285 -0.190976,0.132448 -0.212162,0.132448 -0.08688,0 -0.348812,-0.369936 -0.348812,-0.492676 0,-0.09153 0.236463,-0.297815 0.492379,-0.429545 0.107982,-0.05557 0.196331,-0.121135 0.196331,-0.145684 0,-0.02455 0.03409,-0.04464 0.07578,-0.04464 0.04167,0 0.226438,-0.06816 0.41058,-0.151475 0.83519,-0.377871 1.463656,-0.47043 2.000954,-0.294689 0.268904,0.08796 0.797334,0.510217 0.797334,0.637149 0,0.04065 0.02384,0.0739 0.05298,0.0739 0.02911,0 0.05297,0.03409 0.05297,0.07569 0,0.04162 0.0307,0.107183 0.06823,0.145689 0.07921,0.08127 0.249636,0.431007 0.249636,0.512273 0,0.0305 0.0596,0.167509 0.132444,0.304514 0.07285,0.137005 0.132448,0.282775 0.132448,0.323952 0,0.06526 0.189601,0.522812 0.314413,0.758752 0.02363,0.04464 0.0598,0.157909 0.08039,0.251636 0.02061,0.09374 0.05938,0.170451 0.08621,0.170451 0.02682,0 0.04875,0.04629 0.04875,0.102827 0,0.05656 0.02384,0.117562 0.05298,0.135568 0.02912,0.01799 0.05312,0.07306 0.05331,0.122336 1.34e-4,0.04927 0.03594,0.157856 0.07947,0.241326 0.04352,0.08346 0.07913,0.17297 0.07913,0.198915 0,0.0259 0.05847,0.168406 0.129943,0.316545 0.106762,0.221308 0.118664,0.287415 0.06673,0.370583 -0.03475,0.05569 -0.09325,0.101244 -0.129941,0.101244 -0.0367,0 -0.06673,0.02105 -0.06673,0.04679 0,0.02573 -0.04173,0.06081 -0.09271,0.07793 -0.05101,0.01712 -0.139809,0.06161 -0.197373,0.09888 -0.541003,0.350247 -1.305096,0.729992 -1.468843,0.729992 -0.04075,0 -0.09676,0.02054 -0.124441,0.04566 -0.157704,0.143134 -1.201179,0.273765 -1.454245,0.182048 z m 1.19878,-0.786368 c 0.447061,-0.178356 0.471676,-0.189944 1.039538,-0.489275 0.223142,-0.117615 0.251646,-0.152588 0.251646,-0.308749 0,-0.09686 -0.03907,-0.266322 -0.08681,-0.376567 -0.04772,-0.11026 -0.109858,-0.260071 -0.138025,-0.332915 -0.02815,-0.07285 -0.08247,-0.203963 -0.120669,-0.29137 -0.03819,-0.08743 -0.109792,-0.27046 -0.159087,-0.406748 -0.141234,-0.390475 -0.236151,-0.465226 -0.511397,-0.402733 -0.7265,0.164933 -1.149022,0.367999 -1.514715,0.727967 -0.203826,0.200644 -0.271175,0.312627 -0.326376,0.542735 -0.05225,0.217801 -0.05478,0.317537 -0.01014,0.400921 0.03265,0.06104 0.0594,0.147337 0.0594,0.19177 0,0.04444 0.06464,0.187806 0.143643,0.318604 0.270699,0.448166 0.859814,0.631089 1.373005,0.42636 z"
         style="fill:#032050;fill-opacity:1;fill-rule:evenodd;stroke:none;stroke-width:0.428842;stroke-linecap:square;stroke-miterlimit:4;stroke-dasharray:none;stroke-opacity:1;paint-order:markers stroke fill" />
    </g>
  </g>
</svg>
