<?xml version="1.0" encoding="UTF-8" standalone="no"?>
<!-- Created with Inkscape (http://www.inkscape.org/) -->

<svg
   width="297mm"
   height="210mm"
   viewBox="0 0 297 210"
   version="1.1"
   id="svg1"
   inkscape:version="1.3 (0e150ed6c4, 2023-07-21)"
   sodipodi:docname="logo6.svg"
   xml:space="preserve"
   inkscape:export-filename="logo22.png"
   inkscape:export-xdpi="362.85715"
   inkscape:export-ydpi="362.85715"
   xmlns:inkscape="http://www.inkscape.org/namespaces/inkscape"
   xmlns:sodipodi="http://sodipodi.sourceforge.net/DTD/sodipodi-0.dtd"
   xmlns="http://www.w3.org/2000/svg"
   xmlns:svg="http://www.w3.org/2000/svg"><sodipodi:namedview
     id="namedview1"
     pagecolor="#ffffff"
     bordercolor="#000000"
     borderopacity="0.25"
     inkscape:showpageshadow="2"
     inkscape:pageopacity="0.0"
     inkscape:pagecheckerboard="0"
     inkscape:deskcolor="#d1d1d1"
     inkscape:document-units="mm"
     inkscape:zoom="0.32756264"
     inkscape:cx="454.87483"
     inkscape:cy="228.96384"
     inkscape:window-width="1366"
     inkscape:window-height="699"
     inkscape:window-x="0"
     inkscape:window-y="32"
     inkscape:window-maximized="1"
     inkscape:current-layer="layer1" /><defs
     id="defs1" /><g
     inkscape:label="Calque 1"
     inkscape:groupmode="layer"
     id="layer1"><g
       id="g1"
       transform="matrix(1.4339695,0,0,1.4339695,-28.021358,-53.306657)"
       style="fill:#008033"><path
         style="fill:#008033"
         d="m 65.893605,42.684613 c 0.884484,-2.5515 2.662845,-4.27899 5.17208,-5.02416 1.901661,-0.56474 13.261445,-0.56474 15.163106,0 2.521455,0.7488 4.85954,3.11633 5.27743,5.34391 0.091,0.48524 0.268487,0.94589 0.394347,1.02368 0.12586,0.0778 1.837778,0.31091 3.804279,0.51807 11.500723,1.21149 22.495183,5.74838 31.625593,13.050391 14.91351,11.92701 23.44273,30.618079 22.65749,49.651976 -0.37212,9.01991 -2.19531,16.27551 -6.1166,24.34166 -3.07606,6.3275 -6.676,11.40516 -11.59535,16.35509 -9.58812,9.64771 -22.96916,16.12949 -35.901759,17.39086 -4.498933,0.43879 -4.459993,0.42334 -4.98519,1.97834 -0.856727,2.53659 -2.644255,4.27698 -5.16024,5.02415 -1.920141,0.57023 -13.262395,0.56446 -15.189126,-0.008 -1.963738,-0.58317 -3.824569,-2.16101 -4.734803,-4.01473 l -0.754424,-1.5364 -0.0587,-61.38333 c -0.0552,-57.736867 -0.0313,-61.462257 0.401837,-62.711787 z m 7.714125,6.7524 c 3.210792,0 4.091499,0.25714 4.662476,1.36129 0.614404,1.18813 0.467387,2.04086 -0.522547,3.0308 l -0.899577,0.899581 H 73.77893 70.709778 v 3.96875 3.96875 h 2.897952 c 3.210792,0 4.091499,0.25714 4.662476,1.36129 0.614404,1.18813 0.467387,2.04086 -0.522547,3.03079 l -0.899577,0.89959 H 73.77893 70.709778 v 3.96875 3.968749 h 2.923542 c 3.231502,0 4.169926,0.28921 4.697823,1.44781 0.537837,1.18043 0.37904,1.98174 -0.583484,2.94427 l -0.899577,0.89958 H 73.77893 70.709778 v 3.96875 3.96875 h 2.923542 c 3.231502,0 4.169926,0.28921 4.697823,1.44782 0.537837,1.18043 0.37904,1.98174 -0.583484,2.94427 l -0.899577,0.89958 H 73.77893 70.709778 v 3.96875 3.968757 h 2.897952 c 3.210792,0 4.091499,0.25713 4.662476,1.36129 0.614404,1.18813 0.467387,2.04086 -0.522547,3.03079 l -0.899577,0.89958 H 73.77893 70.709778 v 3.96875 3.96875 h 2.897952 c 3.210792,0 4.091499,0.25714 4.662476,1.36129 0.614404,1.18813 0.467387,2.04086 -0.522547,3.0308 l -0.899577,0.89958 H 73.77893 70.709778 v 3.96875 3.96875 h 2.897952 c 3.210792,0 4.091499,0.25714 4.662476,1.36129 0.614404,1.18813 0.467387,2.04086 -0.522547,3.03079 l -0.899577,0.89959 H 73.77893 70.709778 v 3.96875 3.96875 h 2.923542 c 3.231502,0 4.169926,0.28921 4.697823,1.44781 0.537837,1.18043 0.37904,1.98174 -0.583484,2.94427 l -0.899577,0.89958 H 73.77893 70.709778 v 3.96875 3.96875 h 2.923542 c 3.231502,0 4.169926,0.28921 4.697823,1.44782 0.537837,1.18043 0.37904,1.98174 -0.583484,2.94426 l -0.899577,0.89959 H 73.77893 70.709778 v 2.3688 c 0,4.42973 0.14191,4.51036 7.937455,4.51036 6.357724,0 7.018931,-0.1256 7.621365,-1.44781 0.23783,-0.52199 0.31609,-6.78929 0.31609,-25.31401 V 116.0591 l 0.899584,-0.89958 c 1.220624,-1.22063 2.271848,-1.22063 3.492482,0 l 0.899574,0.89958 v 11.62083 11.62083 l 1.653631,-0.20019 c 3.728069,-0.45133 7.375601,-1.58142 11.046321,-3.4224 9.46208,-4.74554 16.10781,-13.43118 18.42056,-24.07478 0.6752,-3.10739 0.68067,-10.07645 0.0103,-13.157127 -1.49618,-6.87587 -4.64372,-12.73267 -9.42863,-17.54434 -5.72255,-5.75455 -12.29909,-8.970859 -20.710018,-10.128419 l -0.992184,-0.13655 v 11.651489 11.65149 l -0.899574,0.89958 c -1.220634,1.22063 -2.271858,1.22063 -3.492482,0 l -0.899584,-0.89958 V 69.319674 c 0,-18.524721 -0.0783,-24.792021 -0.31609,-25.314011 -0.604304,-1.3263 -1.256951,-1.44863 -7.674365,-1.43844 -7.757515,0.0123 -7.858395,0.069 -7.875075,4.4224 l -0.009,2.44739 z m 13.876542,53.816257 c 1.220624,-1.22063 2.271848,-1.22063 3.492482,0 0.947274,0.94728 1.121011,1.7645 0.612444,2.8807 -0.358637,0.78712 -1.552871,1.51138 -2.492115,1.51138 -1.040834,0 -2.512395,-1.54971 -2.512395,-2.64583 0,-0.6101 0.251357,-1.09802 0.899584,-1.74625 z m 6.484794,-37.613486 c 2.424765,0.24178 6.726874,1.26338 9.131044,2.1683 2.834,1.06672 7.27095,3.47348 9.56658,5.18927 2.80078,2.093339 6.37682,5.655629 8.46753,8.434949 3.30295,4.39085 6.02341,10.6752 7.1669,16.55575 0.7072,3.636897 0.63305,11.008897 -0.1477,14.684387 -1.69546,7.98154 -5.33476,14.76639 -10.91214,20.34377 -6.30145,6.30145 -14.95378,10.51332 -23.309104,11.34667 l -1.923558,0.19185 -0.07,8.00641 -0.07,8.00641 1.525231,-0.15249 c 3.803639,-0.38029 7.264331,-0.99992 7.388251,-1.32286 0.0721,-0.18797 -0.18426,-1.49951 -0.56975,-2.91452 -0.399997,-1.46826 -0.631367,-2.84979 -0.538947,-3.21804 0.28231,-1.1248 1.317607,-1.92262 2.494907,-1.92262 1.67715,0 2.30073,0.7481 3.08762,3.70417 0.368,1.38244 0.71868,2.6613 0.77929,2.8419 0.0811,0.24161 0.6194,0.14512 2.03764,-0.36526 1.70682,-0.61424 6.24463,-2.6046 6.48405,-2.84402 0.0498,-0.0498 -0.53059,-1.14842 -1.28982,-2.4413 -1.69649,-2.88891 -1.87015,-4.25372 -0.67235,-5.28402 0.86621,-0.74509 2.40061,-0.8565 3.2831,-0.23838 0.31423,0.22009 1.04836,1.26189 1.63142,2.3151 1.82191,3.29106 1.52179,3.16882 3.77203,1.5364 1.07149,-0.77732 2.67498,-2.02217 3.56329,-2.76634 l 1.61512,-1.35304 -2.03814,-2.13495 c -2.21134,-2.31636 -2.56516,-3.13395 -1.97131,-4.55524 0.42591,-1.01934 1.71813,-1.6695 2.87767,-1.44784 0.48015,0.0918 1.58832,0.92069 2.91035,2.17691 l 2.13494,2.02869 0.82939,-0.9442 c 1.13998,-1.29779 4.59457,-5.91912 4.59457,-6.14633 0,-0.10166 -1.07763,-0.80678 -2.39473,-1.56692 -1.3171,-0.76014 -2.56726,-1.6284 -2.77813,-1.92945 -0.60292,-0.8608 -0.48228,-2.40183 0.25516,-3.25915 1.0303,-1.19779 2.39512,-1.02413 5.28402,0.67235 1.29288,0.75924 2.39147,1.33966 2.4413,1.28982 0.23942,-0.23942 2.22978,-4.77723 2.84402,-6.48405 0.50964,-1.41618 0.60653,-1.95583 0.36526,-2.03448 -0.1806,-0.0589 -1.45945,-0.40711 -2.8419,-0.77386 -2.95444,-0.78378 -3.70417,-1.41046 -3.70417,-3.09621 0,-1.17729 0.79783,-2.21259 1.92262,-2.4949 0.36826,-0.0924 1.74978,0.13895 3.21804,0.53894 1.41502,0.3855 2.72655,0.64188 2.91452,0.56976 0.32283,-0.12389 0.94279,-3.58576 1.32241,-7.38441 l 0.15203,-1.52136 h -3.07147 -3.07148 l -0.89959,-0.89958 c -1.22063,-1.22063 -1.22063,-2.27187 0,-3.4925 l 0.89959,-0.89958 h 3.07148 3.07147 l -0.15203,-1.52136 c -0.37962,-3.798647 -0.99958,-7.260527 -1.32241,-7.384407 -0.18797,-0.0721 -1.4995,0.18426 -2.91452,0.56975 -1.46826,0.4 -2.84978,0.63137 -3.21804,0.53894 -1.12479,-0.2823 -1.92262,-1.31761 -1.92262,-2.4949 0,-1.68575 0.74973,-2.31242 3.70417,-3.09621 1.38245,-0.36675 2.6613,-0.71499 2.8419,-0.77386 0.24127,-0.0787 0.14438,-0.6183 -0.36526,-2.03448 -0.61424,-1.70682 -2.6046,-6.24463 -2.84402,-6.48405 -0.0498,-0.0498 -1.14842,0.53059 -2.4413,1.28982 -2.8889,1.69649 -4.25372,1.87015 -5.28402,0.67235 -0.73744,-0.85732 -0.85808,-2.39835 -0.25516,-3.25915 0.21087,-0.30105 1.46103,-1.1693 2.77813,-1.92945 1.3171,-0.76014 2.39473,-1.46526 2.39473,-1.56692 0,-0.227209 -3.45459,-4.848539 -4.59457,-6.146319 l -0.82939,-0.94421 -2.13494,2.02869 c -1.32203,1.25622 -2.4302,2.08513 -2.91035,2.17692 -1.15954,0.22165 -2.45176,-0.4285 -2.87767,-1.44785 -0.59254,-1.41815 -0.23895,-2.23917 1.96185,-4.55524 l 2.02868,-2.13494 -0.9442,-0.8294 c -1.29778,-1.13997 -5.91912,-4.59456 -6.14633,-4.59456 -0.10166,0 -0.80677,1.07763 -1.56692,2.39473 -0.76014,1.3171 -1.62839,2.56726 -1.92945,2.77812 -0.8608,0.60293 -2.40182,0.48228 -3.25914,-0.25515 -1.1978,-1.03031 -1.02414,-2.39512 0.67235,-5.28402 0.75923,-1.29289 1.33965,-2.39147 1.28982,-2.44131 -0.23942,-0.23942 -4.77723,-2.229781 -6.48405,-2.844011 -1.41619,-0.50965 -1.95584,-0.60653 -2.03448,-0.36527 -0.0589,0.1806 -0.40711,1.45946 -0.77386,2.841911 -0.78379,2.95444 -1.41046,3.70416 -3.09621,3.70416 -1.1773,0 -2.212597,-0.79782 -2.494907,-1.92262 -0.0924,-0.36825 0.13895,-1.74978 0.538947,-3.218031 0.38549,-1.41502 0.64188,-2.72656 0.56975,-2.91452 -0.12392,-0.32294 -3.584612,-0.94258 -7.388251,-1.32287 l -1.525231,-0.15249 0.07,8.006411 0.07,8.00642 z"
         id="path1" /><text
         xml:space="preserve"
         style="font-size:70.5556px;line-height:1;font-family:Z003;-inkscape-font-specification:Z003;text-align:center;text-anchor:middle;fill:#008033;stroke-width:4.99999"
         x="150.03772"
         y="172.76311"
         id="text1"><tspan
           sodipodi:role="line"
           id="tspan1"
           style="fill:#008033;stroke-width:5"
           x="150.03772"
           y="172.76311">k</tspan></text></g></g></svg>
